<svg xmlns="http://www.w3.org/2000/svg" viewBox="0 0 129.3 159.8">
  <title>branding</title>
  <g id="aac59aa6-679e-486d-bcf7-fb54a57c9444" data-name="Capa 2">
    <g id="b09b2d5c-cc6a-45d4-b5c4-87fb1b912304" data-name="Capa 1">
      <g>
        <g>
          <g>
            <polyline points="116.6 89 79.6 103.9 70.9 88.6" style="fill: none;stroke: #fff;stroke-miterlimit: 10"/>
            <path d="M78.1,51.7a22.1,22.1,0,0,0,5.8-6l32.7,12.1v.5L73.7,74.4V68.5h4.4V51.7Z" style="fill: none;stroke: #fff;stroke-miterlimit: 10"/>
            <rect x="57.4" y="68.5" width="16.3" height="0.01" style="fill: none;stroke: #fff;stroke-miterlimit: 10"/>
            <polyline points="65 78 64.8 77.8 73.7 74.4 116.6 58.3 128.6 84.2 116.6 89 116.6 88.4" style="fill: none;stroke: #fff;stroke-miterlimit: 10"/>
            <polyline points="70.9 88.6 79.6 103.9 116.6 89 116.6 110 65.4 130.3" style="fill: none;stroke: #fff;stroke-miterlimit: 10"/>
            <polyline points="65 88.6 65.4 130.3 13.1 110 13.1 89.2 49.4 103.9" style="fill: none;stroke: #fff;stroke-miterlimit: 10"/>
            <polygon points="57.4 68.5 73.7 68.5 73.7 74.4 64.8 77.8 65 78 64.8 78.1 57.1 75.1 57.4 74.4 57.4 68.5" style="fill: none;stroke: #fff;stroke-miterlimit: 10"/>
            <polygon points="78.1 63.3 53 63.3 53 59.1 64.5 59.1 66.5 59.1 78.1 59.1 78.1 63.3" style="fill: none;stroke: #fff;stroke-miterlimit: 10"/>
            <path d="M74.3,38.9l-4.5.6-4.4-7.1-4.3,7.1-4.4-.6,7.8,20.2H53V51.7a21.4,21.4,0,0,1-6.2-6.5,21.9,21.9,0,1,1,31.3,6.5v7.4H66.5Z" style="fill: none;stroke: #fff;stroke-miterlimit: 10"/>
            <polygon points="61.1 39.5 65.4 32.4 69.8 39.5 74.3 38.9 66.5 59.1 64.5 59.1 56.7 38.9 61.1 39.5" style="fill: none;stroke: #fff;stroke-miterlimit: 10"/>
            <polygon points="53 63.3 78.1 63.3 78.1 68.5 73.7 68.5 73.7 68.5 57.4 68.5 57.4 68.5 53 68.5 53 63.3" style="fill: none;stroke: #fff;stroke-miterlimit: 10"/>
            <polyline points="58.5 88.6 49.4 103.9 13.1 89.2" style="fill: none;stroke: #fff;stroke-miterlimit: 10"/>
            <path d="M57.4,68.5v5.9l-.3.7-44-16.8-.2-.6L46.8,45.2h0A21.4,21.4,0,0,0,53,51.7V68.5Z" style="fill: none;stroke: #fff;stroke-miterlimit: 10"/>
            <polyline points="13.1 88.8 13.1 89.2 0.7 84.2 13.1 58.3 57.1 75.1 64.8 78.1" style="fill: none;stroke: #fff;stroke-miterlimit: 10"/>
          </g>
          <g>
            <polyline points="13.1 89.2 13.1 110 65.4 130.3 116.6 110 116.6 89" style="fill: none;stroke: #fff;stroke-miterlimit: 10"/>
            <polygon points="13.1 58.3 57.1 75.1 64.8 78.1 58.5 88.6 49.4 103.9 13.1 89.2 0.7 84.2 13.1 58.3" style="fill: none;stroke: #fff;stroke-miterlimit: 10"/>
            <polygon points="116.6 58.3 73.7 74.4 64.8 77.8 65 78 70.9 88.6 79.6 103.9 116.6 89 128.6 84.2 116.6 58.3" style="fill: none;stroke: #fff;stroke-miterlimit: 10"/>
            <polyline points="12.8 57.7 12.9 57.7 46.8 45.2" style="fill: none;stroke: #fff;stroke-miterlimit: 10"/>
            <line x1="83.9" y1="45.7" x2="116.6" y2="57.8" style="fill: none;stroke: #fff;stroke-miterlimit: 10"/>
            <path d="M83.9,45.7a22.1,22.1,0,0,1-5.8,6V68.5H53V51.7a21.4,21.4,0,0,1-6.2-6.5,22.1,22.1,0,1,1,37.1.5Z" style="fill: none;stroke: #fff;stroke-miterlimit: 10"/>
            <polyline points="66.5 59.1 78.1 59.1 81.3 59.1" style="fill: none;stroke: #fff;stroke-miterlimit: 10"/>
            <polyline points="49.8 59.1 53 59.1 64.5 59.1" style="fill: none;stroke: #fff;stroke-miterlimit: 10"/>
            <polyline points="49.8 63.3 53 63.3 78.1 63.3 81.3 63.3" style="fill: none;stroke: #fff;stroke-miterlimit: 10"/>
            <polyline points="57.4 74.4 57.4 68.5 57.4 68.5 73.7 68.5 73.7 68.5 73.7 74.4 73.7 74.4" style="fill: none;stroke: #fff;stroke-miterlimit: 10"/>
            <line x1="64.4" x2="64.4" y2="7.1" style="fill: none;stroke: #fff;stroke-miterlimit: 10"/>
            <line x1="74.7" y1="1.1" x2="72.9" y2="7.9" style="fill: none;stroke: #fff;stroke-miterlimit: 10"/>
            <line x1="84.5" y1="4.8" x2="80.9" y2="10.9" style="fill: none;stroke: #fff;stroke-miterlimit: 10"/>
            <line x1="93" y1="10.9" x2="88" y2="15.9" style="fill: none;stroke: #fff;stroke-miterlimit: 10"/>
            <line x1="36.4" y1="12.5" x2="41.4" y2="17.6" style="fill: none;stroke: #fff;stroke-miterlimit: 10"/>
            <line x1="44.5" y1="5.9" x2="48.1" y2="12.1" style="fill: none;stroke: #fff;stroke-miterlimit: 10"/>
            <line x1="54" y1="1.7" x2="55.9" y2="8.6" style="fill: none;stroke: #fff;stroke-miterlimit: 10"/>
            <polygon points="64.5 59.1 56.7 38.9 61.1 39.5 65.4 32.4 69.8 39.5 74.3 38.9 66.5 59.1 64.5 59.1" style="fill: none;stroke: #fff;stroke-miterlimit: 10"/>
            <polyline points="64.8 78.8 65 88.6 65.4 130.3" style="fill: none;stroke: #fff;stroke-miterlimit: 10"/>
          </g>
        </g>
        <g>
          <path d="M14.7,155.2c0,2.8-2.2,4.4-6.3,4.4H.5v-16H7.9c3.9,0,5.9,1.6,5.9,4.1a3.7,3.7,0,0,1-2,3.5A4,4,0,0,1,14.7,155.2ZM3.4,145.9v4.4H7.6c2.1,0,3.2-.7,3.2-2.2s-1.1-2.2-3.2-2.2Zm8.3,9c0-1.6-1.2-2.3-3.5-2.3H3.4v4.6H8.2C10.5,157.2,11.7,156.5,11.7,154.9Z" style="fill: #fff"/>
          <path d="M28.3,159.6,25,154.9H20.8v4.7h-3v-16h6.6c4.2,0,6.8,2.1,6.8,5.7a5,5,0,0,1-3.4,5l3.7,5.3Zm-4-13.5H20.8v6.4h3.5c2.6,0,3.9-1.2,3.9-3.2S26.9,146.1,24.3,146.1Z" style="fill: #fff"/>
          <path d="M44.9,155.9h-8l-1.6,3.7H32.2l7.2-16h3l7.2,16H46.5Zm-1-2.4-3-7-3,7Z" style="fill: #fff"/>
          <path d="M65.8,143.6v16H63.4l-8.9-10.9v10.9H51.6v-16H54l8.9,10.8V143.6Z" style="fill: #fff"/>
          <path d="M70.1,143.6h7c5.2,0,8.7,3.2,8.7,8s-3.5,8-8.7,8h-7ZM76.9,157c3.6,0,5.9-2.1,5.9-5.4s-2.3-5.5-5.9-5.5H73.1V157Z" style="fill: #fff"/>
          <path d="M88.9,143.6h3v16h-3Z" style="fill: #fff"/>
          <path d="M110.4,143.6v16H108l-8.8-10.9v10.9h-3v-16h2.5l8.8,10.8V143.6Z" style="fill: #fff"/>
          <path d="M125.6,151.4h2.8v6.4a10.2,10.2,0,0,1-6.2,2c-5,0-8.6-3.5-8.6-8.2s3.6-8.2,8.6-8.2a7.9,7.9,0,0,1,6.4,2.6l-1.8,1.8a5.8,5.8,0,0,0-4.4-1.8,5.6,5.6,0,1,0-.1,11.2,6.2,6.2,0,0,0,3.3-.8Z" style="fill: #fff"/>
        </g>
      </g>
    </g>
  </g>
</svg>
