<?xml version="1.0" encoding="UTF-8" standalone="no"?>
<svg xmlns="http://www.w3.org/2000/svg" viewBox="0 0 625.6 92.4">
 <title>Recurso 6</title>
 <g id="b28608e0-de63-4e00-aaad-06963d689d0e" data-name="Capa 2">
  <g id="b043648c-dc9f-4993-8d5b-55d11757da93" data-name="Capa 1">
   <g stroke="#f2f2f2" stroke-miterlimit="10" fill="none">
    <path d="m81.9 72.4a1.6 1.6 0 0 1 0.3 2.4 45.7 45.7 0 1 1 -0.1 -57.3 1.7 1.7 0 0 1 -0.2 2.4l-16.9 13.4a1.8 1.8 0 0 1 -2.3 -0.2 22.3 22.3 0 0 0 -16.3 -7.8 20.9 20.9 0 1 0 0 41.8c6.3 0 12.4-3.4 16.4-7.9a1.7 1.7 0 0 1 2.3 -0.2z"/>
    <path d="m171 46.2c0 25.2-20.7 45.7-46.3 45.7s-46.3-20.5-46.3-45.7 20.7-45.7 46.3-45.7 46.3 20.5 46.3 45.7zm-25.1 0a21.2 21.2 0 1 0 -21.2 20.9 21 21 0 0 0 21.2 -20.9z"/>
    <path d="m227.8 1.8h21.2a1.8 1.8 0 0 1 1.7 1.7v84.1a1.8 1.8 0 0 1 -1.7 1.7h-21.9a1.6 1.6 0 0 1 -1.5 -0.9l-27.4-48.4v47.6a1.8 1.8 0 0 1 -1.7 1.7h-21.1a1.8 1.8 0 0 1 -1.8 -1.7v-84.1a1.8 1.8 0 0 1 1.8 -1.7h21.9a1.6 1.6 0 0 1 1.4 0.8l27.4 44.2v-43.3a1.8 1.8 0 0 1 1.7 -1.7z"/>
    <path d="m319.6 20.9a1.7 1.7 0 0 1 -1.7 1.8h-19.2v64.9a1.7 1.7 0 0 1 -1.7 1.7h-21.1a1.7 1.7 0 0 1 -1.7 -1.7v-65h-19.2a1.6 1.6 0 0 1 -1.7 -1.7v-17.4a1.7 1.7 0 0 1 1.7 -1.7h62.9a1.7 1.7 0 0 1 1.7 1.7z"/>
    <path d="m360.9 2.9l30.9 83.6a1.1 1.1 0 0 1 0.1 0.6v0.5a1.7 1.7 0 0 1 -1.7 1.7h-21.4a1.5 1.5 0 0 1 -1.6 -1.1l-4.7-12.6h-27.9l-4.7 12.6a1.7 1.7 0 0 1 -1.6 1.1h-21.5a1.7 1.7 0 0 1 -1.7 -1.7v-0.5a1.1 1.1 0 0 1 0.1 -0.6l30.9-83.6a1.9 1.9 0 0 1 1.6 -1.1h21.6a1.9 1.9 0 0 1 1.6 1.1zm-6.4 51.2-6-16.1-6 16.1z"/>
    <path d="m466.1 72.4a1.7 1.7 0 0 1 0.3 2.4 45.7 45.7 0 1 1 -0.1 -57.3 1.7 1.7 0 0 1 -0.3 2.4l-16.8 13.4a1.8 1.8 0 0 1 -2.3 -0.2 22.3 22.3 0 0 0 -16.3 -7.8 20.9 20.9 0 1 0 0 41.8c6.3 0 12.4-3.4 16.3-7.9a1.8 1.8 0 0 1 2.4 -0.2z"/>
    <path d="m535.7 20.9a1.7 1.7 0 0 1 -1.7 1.8h-19.2v64.9a1.7 1.7 0 0 1 -1.7 1.7h-21.1a1.7 1.7 0 0 1 -1.7 -1.7v-65h-19.2a1.6 1.6 0 0 1 -1.7 -1.7v-17.4a1.7 1.7 0 0 1 1.7 -1.7h62.9a1.7 1.7 0 0 1 1.7 1.7z"/>
    <path d="m625.1 46.2c0 25.2-20.7 45.7-46.3 45.7s-46.4-20.5-46.4-45.7 20.8-45.7 46.4-45.7 46.3 20.5 46.3 45.7zm-25.1 0a21.2 21.2 0 1 0 -21.2 20.9 21 21 0 0 0 21.2 -20.9z"/>
   </g>
  </g>
 </g>
</svg>
