<svg xmlns="http://www.w3.org/2000/svg" viewBox="0 0 625.6 92.4">
  <title>Recurso 6</title>
  <g id="b28608e0-de63-4e00-aaad-06963d689d0e" data-name="Capa 2">
    <g id="b043648c-dc9f-4993-8d5b-55d11757da93" data-name="Capa 1">
      <g>
        <path d="M81.9,72.4a1.6,1.6,0,0,1,.3,2.4,45.7,45.7,0,1,1-.1-57.3,1.7,1.7,0,0,1-.2,2.4L65,33.3a1.8,1.8,0,0,1-2.3-.2,22.3,22.3,0,0,0-16.3-7.8,20.9,20.9,0,1,0,0,41.8c6.3,0,12.4-3.4,16.4-7.9a1.7,1.7,0,0,1,2.3-.2Z" style="fill: none;stroke: #f2f2f2;stroke-miterlimit: 10"/>
        <path d="M171,46.2c0,25.2-20.7,45.7-46.3,45.7S78.4,71.4,78.4,46.2,99.1.5,124.7.5,171,21,171,46.2Zm-25.1,0a21.2,21.2,0,1,0-21.2,20.9A21,21,0,0,0,145.9,46.2Z" style="fill: none;stroke: #f2f2f2;stroke-miterlimit: 10"/>
        <path d="M227.8,1.8H249a1.8,1.8,0,0,1,1.7,1.7V87.6a1.8,1.8,0,0,1-1.7,1.7H227.1a1.6,1.6,0,0,1-1.5-.9L198.2,40V87.6a1.8,1.8,0,0,1-1.7,1.7H175.4a1.8,1.8,0,0,1-1.8-1.7V3.5a1.8,1.8,0,0,1,1.8-1.7h21.9a1.6,1.6,0,0,1,1.4.8l27.4,44.2V3.5A1.8,1.8,0,0,1,227.8,1.8Z" style="fill: none;stroke: #f2f2f2;stroke-miterlimit: 10"/>
        <path d="M319.6,20.9a1.7,1.7,0,0,1-1.7,1.8H298.7V87.6a1.7,1.7,0,0,1-1.7,1.7H275.9a1.7,1.7,0,0,1-1.7-1.7v-65H255a1.6,1.6,0,0,1-1.7-1.7V3.5A1.7,1.7,0,0,1,255,1.8h62.9a1.7,1.7,0,0,1,1.7,1.7Z" style="fill: none;stroke: #f2f2f2;stroke-miterlimit: 10"/>
        <path d="M360.9,2.9l30.9,83.6a1.1,1.1,0,0,1,.1.6v.5a1.7,1.7,0,0,1-1.7,1.7H368.8a1.5,1.5,0,0,1-1.6-1.1l-4.7-12.6H334.6l-4.7,12.6a1.7,1.7,0,0,1-1.6,1.1H306.8a1.7,1.7,0,0,1-1.7-1.7v-.5a1.1,1.1,0,0,1,.1-.6L336.1,2.9a1.9,1.9,0,0,1,1.6-1.1h21.6A1.9,1.9,0,0,1,360.9,2.9Zm-6.4,51.2-6-16.1-6,16.1Z" style="fill: none;stroke: #f2f2f2;stroke-miterlimit: 10"/>
        <path d="M466.1,72.4a1.7,1.7,0,0,1,.3,2.4,45.7,45.7,0,1,1-.1-57.3,1.7,1.7,0,0,1-.3,2.4L449.2,33.3a1.8,1.8,0,0,1-2.3-.2,22.3,22.3,0,0,0-16.3-7.8,20.9,20.9,0,1,0,0,41.8c6.3,0,12.4-3.4,16.3-7.9a1.8,1.8,0,0,1,2.4-.2Z" style="fill: none;stroke: #f2f2f2;stroke-miterlimit: 10"/>
        <path d="M535.7,20.9a1.7,1.7,0,0,1-1.7,1.8H514.8V87.6a1.7,1.7,0,0,1-1.7,1.7H492a1.7,1.7,0,0,1-1.7-1.7v-65H471.1a1.6,1.6,0,0,1-1.7-1.7V3.5a1.7,1.7,0,0,1,1.7-1.7H534a1.7,1.7,0,0,1,1.7,1.7Z" style="fill: none;stroke: #f2f2f2;stroke-miterlimit: 10"/>
        <path d="M625.1,46.2c0,25.2-20.7,45.7-46.3,45.7s-46.4-20.5-46.4-45.7S553.2.5,578.8.5,625.1,21,625.1,46.2Zm-25.1,0a21.2,21.2,0,1,0-21.2,20.9A21,21,0,0,0,600,46.2Z" style="fill: none;stroke: #f2f2f2;stroke-miterlimit: 10"/>
      </g>
    </g>
  </g>
</svg>
