<?xml version="1.0" encoding="UTF-8" standalone="no"?>
<svg xmlns="http://www.w3.org/2000/svg" viewBox="0 0 205.3 159.5">
 <title>diseño</title>
 <g id="b89e44af-4f59-4151-bbba-49c6e2cb04ad" data-name="Capa 2">
  <g id="f2841e90-3a64-4e68-bfd3-4644f0a7e4ac" data-name="Capa 1">
   <g stroke="#fff" stroke-miterlimit="10" fill="none">
    <path d="m162 129.1h-126.4a1.1 1.1 0 0 1 -1.1 -1.1v-36.2a1.1 1.1 0 0 1 1.1 -1.1h59.2a1.1 1.1 0 0 1 0.7 0.3l5.3 5.3a1.1 1.1 0 0 1 0 1.5 0.9 0.9 0 0 1 -1.5 0l-5-4.9h-57.6v34h125.3a1.1 1.1 0 0 1 0 2.2z"/>
    <path d="m165.9 129.1h-36.2a1.1 1.1 0 0 1 -1.1 -1.1v-126.4a1.1 1.1 0 0 1 1.1 -1.1h36.2a1.1 1.1 0 0 1 1.1 1.1v126.4a1.1 1.1 0 0 1 -1.1 1.1zm-35.1-2.2h34v-124.2h-34z"/>
    <path d="m165.9 22.1h-36.2a1.1 1.1 0 0 1 -1.1 -1.1 1 1 0 0 1 1.1 -1h36.2a1 1 0 0 1 1.1 1 1.1 1.1 0 0 1 -1.1 1.1z"/>
    <path d="m165.9 43.3h-36.2a1 1 0 0 1 -1.1 -1 1.1 1.1 0 0 1 1.1 -1.1h36.2a1.1 1.1 0 0 1 1.1 1.1 1 1 0 0 1 -1.1 1z"/>
    <path d="m165.9 64.6h-36.2a1.1 1.1 0 1 1 0 -2.2h36.2a1.1 1.1 0 0 1 0 2.2z"/>
    <path d="m165.9 85.8h-36.2a1.1 1.1 0 0 1 0 -2.2h36.2a1.1 1.1 0 0 1 0 2.2z"/>
    <path d="m165.9 107h-36.2a1.1 1.1 0 0 1 0 -2.2h36.2a1.1 1.1 0 0 1 0 2.2z"/>
    <path d="m147.8 121.8a4.2 4.2 0 0 1 -4.2 -4.2 4.2 4.2 0 0 1 8.4 0 4.2 4.2 0 0 1 -4.2 4.2zm0-6.2a2 2 0 1 0 2 2 2 2 0 0 0 -2 -2z"/>
    <path d="m129.7 127.8a1.1 1.1 0 0 1 -0.8 -0.3l-88.4-88.4a1.2 1.2 0 0 1 0 -1.6l25.6-25.6a1.2 1.2 0 0 1 1.6 0l62.7 62.8a1 1 0 0 1 0.4 0.7v51.3a1.2 1.2 0 0 1 -0.7 1zm-86.9-89.5l85.8 85.8v-48.2l-61.7-61.7z"/>
    <path d="m55 53.1a1.1 1.1 0 0 1 -0.7 -0.3 0.9 0.9 0 0 1 0 -1.5l25.6-25.7a1.1 1.1 0 0 1 1.5 0 1 1 0 0 1 0 1.6l-25.6 25.6a1.1 1.1 0 0 1 -0.8 0.3z"/>
    <path d="m70 68.1a1.1 1.1 0 0 1 -0.7 -0.3 0.9 0.9 0 0 1 0 -1.5l25.6-25.6a1.1 1.1 0 0 1 1.5 1.5l-25.6 25.6a1.1 1.1 0 0 1 -0.8 0.3z"/>
    <path d="m85 83.2a1.3 1.3 0 0 1 -0.7 -0.4 0.9 0.9 0 0 1 0 -1.5l25.6-25.6a1.1 1.1 0 0 1 1.5 1.5l-25.6 25.6a1.2 1.2 0 0 1 -0.8 0.4z"/>
    <path d="m100 98.1a1.1 1.1 0 0 1 -0.7 -1.8l25.6-25.6a1.1 1.1 0 0 1 1.5 1.5l-25.6 25.6a1.1 1.1 0 0 1 -0.8 0.3z"/>
    <path d="m115 113.1a1.1 1.1 0 0 1 -0.7 -0.3 0.9 0.9 0 0 1 0 -1.5l14.6-14.6a1.1 1.1 0 0 1 1.5 1.5l-14.6 14.6a1.1 1.1 0 0 1 -0.8 0.3z"/>
    <path d="m55 129.1a1.1 1.1 0 0 1 -1.1 -1.1v-36.2a1.1 1.1 0 0 1 2.2 0v36.2a1.1 1.1 0 0 1 -1.1 1.1z"/>
    <path d="m76.2 129.1a1 1 0 0 1 -1 -1.1v-36.2a1 1 0 0 1 1 -1.1 1.1 1.1 0 0 1 1.1 1.1v36.2a1.1 1.1 0 0 1 -1.1 1.1z"/>
    <path d="m97.5 129.1a1.1 1.1 0 0 1 -1.1 -1.1v-33.5a1.1 1.1 0 0 1 2.2 0v33.5a1.1 1.1 0 0 1 -1.1 1.1z"/>
    <path d="m118.7 129.1a1.1 1.1 0 0 1 -1.1 -1.1v-12.3a1.1 1.1 0 1 1 2.2 0v12.3a1.1 1.1 0 0 1 -1.1 1.1z"/>
   </g>
   <g fill="#fff">
    <path d="m0 143.3h7c5.2 0 8.7 3.2 8.7 8s-3.5 8-8.7 8h-7zm6.8 13.5c3.6 0 5.9-2.2 5.9-5.5s-2.3-5.4-5.9-5.4h-3.8v10.9z"/>
    <path d="m18.9 143.3h2.9v16h-2.9z"/>
    <path d="m24.8 157.6l1-2.3a8.5 8.5 0 0 0 5.3 1.8c2.5 0 3.5-0.9 3.5-2.1 0-3.4-9.5-1.2-9.5-7.1 0-2.6 2.1-4.8 6.5-4.8a10.2 10.2 0 0 1 5.3 1.4l-0.9 2.3a9.8 9.8 0 0 0 -4.5 -1.2c-2.4 0-3.4 0.9-3.4 2.1 0 3.4 9.4 1.2 9.4 7.1 0 2.6-2 4.7-6.4 4.7-2.5 0-5-0.7-6.3-1.9z"/>
    <path d="m52.5 156.8v2.5h-12v-16h11.7v2.5h-8.7v4.2h7.7v2.4h-7.7v4.4z"/>
    <path d="m70 143.3v16h-2.5l-8.8-10.8v10.8h-2.9v-16h2.4l8.8 10.9v-10.9zm-9.7-1.4h-1.5c0-1.9 1-3.1 2.4-3.1s2.3 1.6 3.1 1.6 1.1-0.5 1.2-1.3h1.5c-0.1 1.7-1 2.9-2.5 2.9s-2.3-1.5-3.1-1.5-1 0.5-1.1 1.4z"/>
    <path d="m73.1 151.3c0-4.7 3.7-8.2 8.6-8.2s8.6 3.5 8.6 8.2-3.6 8.2-8.6 8.2-8.6-3.4-8.6-8.2zm14.3 0a5.7 5.7 0 0 0 -11.3 0 5.7 5.7 0 0 0 11.3 0z"/>
    <path d="m110.7 151.1h2.8v6.4a9.8 9.8 0 0 1 -6.2 2c-5 0-8.6-3.4-8.6-8.2s3.6-8.2 8.6-8.2a8.2 8.2 0 0 1 6.4 2.6l-1.9 1.8a5.9 5.9 0 0 0 -4.4 -1.8 5.6 5.6 0 1 0 0 11.2 6.2 6.2 0 0 0 3.3 -0.8z"/>
    <path d="m127.9 159.3l-3.3-4.7h-4.2v4.6h-3v-16h6.6c4.2 0 6.8 2.2 6.8 5.7a5.2 5.2 0 0 1 -3.4 5.1l3.7 5.2zm-4-13.4h-3.5v6.3h3.5c2.6 0 3.9-1.2 3.9-3.2s-1.3-3.1-3.9-3.1z"/>
    <path d="m144.5 155.6h-8l-1.6 3.7h-3.1l7.2-16h3l7.2 16h-3.1zm-1-2.3-3-7-3 7zm-2.5-11.3h-2.4l3.1-3.1h3.3z"/>
    <path d="m154.2 145.8v4.9h7.7v2.5h-7.7v6.1h-3v-16h11.7v2.5z"/>
    <path d="m165.7 143.3h3v16h-3z"/>
    <path d="m171.9 151.3a8.6 8.6 0 0 1 14.9 -5.5l-2 1.8a5.4 5.4 0 0 0 -4.2 -1.9 5.6 5.6 0 1 0 0 11.2 5.6 5.6 0 0 0 4.2 -1.8l2 1.8a8.4 8.4 0 0 1 -6.4 2.6c-4.9 0-8.5-3.4-8.5-8.2z"/>
    <path d="m188.1 151.3c0-4.7 3.7-8.2 8.6-8.2s8.6 3.5 8.6 8.2-3.6 8.2-8.6 8.2-8.6-3.4-8.6-8.2zm14.3 0a5.7 5.7 0 0 0 -11.3 0 5.7 5.7 0 0 0 11.3 0z"/>
   </g>
  </g>
 </g>
</svg>
