<svg xmlns="http://www.w3.org/2000/svg" viewBox="0 0 133.5 129.6">
  <title>Recurso 1</title>
  <g id="ad23da0b-f9ac-4926-b61b-a8580ad5874a" data-name="Capa 2">
    <g id="a8a3fe22-d804-444b-b2e2-d8def8c8f61b" data-name="Capa 1">
      <g>
        <path d="M128,129.1H1.6A1.1,1.1,0,0,1,.5,128V91.8a1.1,1.1,0,0,1,1.1-1.1H60.8a.9.9,0,0,1,.7.3l5.3,5.3a1.1,1.1,0,0,1-1.5,1.5l-5-4.9H2.7v34H128a1.1,1.1,0,0,1,0,2.2Z" style="fill: none;stroke: #fff;stroke-miterlimit: 10"/>
        <path d="M131.9,129.1H95.7a1.1,1.1,0,0,1-1.1-1.1V1.6A1.1,1.1,0,0,1,95.7.5h36.2A1.1,1.1,0,0,1,133,1.6V128A1.1,1.1,0,0,1,131.9,129.1Zm-35.1-2.2h34.1V2.7H96.8Z" style="fill: none;stroke: #fff;stroke-miterlimit: 10"/>
        <path d="M131.9,22.1H95.7A1.1,1.1,0,0,1,94.6,21a1,1,0,0,1,1.1-1h36.2a1,1,0,0,1,1.1,1A1.1,1.1,0,0,1,131.9,22.1Z" style="fill: none;stroke: #fff;stroke-miterlimit: 10"/>
        <path d="M131.9,43.3H95.7a1,1,0,0,1-1.1-1,1.1,1.1,0,0,1,1.1-1.1h36.2a1.1,1.1,0,0,1,1.1,1.1A1,1,0,0,1,131.9,43.3Z" style="fill: none;stroke: #fff;stroke-miterlimit: 10"/>
        <path d="M131.9,64.6H95.7a1.1,1.1,0,0,1,0-2.2h36.2a1.1,1.1,0,0,1,0,2.2Z" style="fill: none;stroke: #fff;stroke-miterlimit: 10"/>
        <path d="M131.9,85.8H95.7a1.1,1.1,0,0,1,0-2.2h36.2a1.1,1.1,0,0,1,0,2.2Z" style="fill: none;stroke: #fff;stroke-miterlimit: 10"/>
        <path d="M131.9,107H95.7a1.1,1.1,0,0,1,0-2.2h36.2a1.1,1.1,0,0,1,0,2.2Z" style="fill: none;stroke: #fff;stroke-miterlimit: 10"/>
        <path d="M113.8,121.8a4.2,4.2,0,0,1-4.2-4.2,4.2,4.2,0,0,1,8.4,0A4.2,4.2,0,0,1,113.8,121.8Zm0-6.2a2,2,0,1,0,2,2A2,2,0,0,0,113.8,115.6Z" style="fill: none;stroke: #fff;stroke-miterlimit: 10"/>
        <path d="M95.7,127.8a1.1,1.1,0,0,1-.8-.3L6.5,39.1a1.2,1.2,0,0,1,0-1.6L32.1,11.9a1.2,1.2,0,0,1,1.6,0L96.5,74.7a.9.9,0,0,1,.3.7v51.3a1.2,1.2,0,0,1-.7,1ZM8.8,38.3l85.8,85.8V75.9L32.9,14.2Z" style="fill: none;stroke: #fff;stroke-miterlimit: 10"/>
        <path d="M21,53.1a1.1,1.1,0,0,1-.7-1.8L45.9,25.6a1.1,1.1,0,0,1,1.5,0,1,1,0,0,1,0,1.6L21.8,52.8A1.1,1.1,0,0,1,21,53.1Z" style="fill: none;stroke: #fff;stroke-miterlimit: 10"/>
        <path d="M36,68.1a1.1,1.1,0,0,1-.7-1.8L60.9,40.7a1,1,0,0,1,1.6,0,1.1,1.1,0,0,1,0,1.5L36.8,67.8A1.1,1.1,0,0,1,36,68.1Z" style="fill: none;stroke: #fff;stroke-miterlimit: 10"/>
        <path d="M51.1,83.2a1.2,1.2,0,0,1-.8-.4,1.1,1.1,0,0,1,0-1.5L75.9,55.7a1,1,0,0,1,1.6,0,1.1,1.1,0,0,1,0,1.5L51.8,82.8A1.3,1.3,0,0,1,51.1,83.2Z" style="fill: none;stroke: #fff;stroke-miterlimit: 10"/>
        <path d="M66.1,98.1a1.1,1.1,0,0,1-.8-.3,1.1,1.1,0,0,1,0-1.5L90.9,70.7a1,1,0,0,1,1.6,0,1.1,1.1,0,0,1,0,1.5L66.8,97.8A1.1,1.1,0,0,1,66.1,98.1Z" style="fill: none;stroke: #fff;stroke-miterlimit: 10"/>
        <path d="M81.1,113.1a1.1,1.1,0,0,1-.8-.3,1.1,1.1,0,0,1,0-1.5L94.9,96.7a1,1,0,0,1,1.6,0,1.1,1.1,0,0,1,0,1.5L81.8,112.8A1.1,1.1,0,0,1,81.1,113.1Z" style="fill: none;stroke: #fff;stroke-miterlimit: 10"/>
        <path d="M21,129.1a1,1,0,0,1-1-1.1V91.8a1,1,0,0,1,1-1.1,1,1,0,0,1,1.1,1.1V128A1,1,0,0,1,21,129.1Z" style="fill: none;stroke: #fff;stroke-miterlimit: 10"/>
        <path d="M42.3,129.1a1.1,1.1,0,0,1-1.1-1.1V91.8a1.1,1.1,0,0,1,2.2,0V128A1.1,1.1,0,0,1,42.3,129.1Z" style="fill: none;stroke: #fff;stroke-miterlimit: 10"/>
        <path d="M63.5,129.1a1.1,1.1,0,0,1-1.1-1.1V94.5a1.1,1.1,0,0,1,2.2,0V128A1.1,1.1,0,0,1,63.5,129.1Z" style="fill: none;stroke: #fff;stroke-miterlimit: 10"/>
        <path d="M84.7,129.1a1.1,1.1,0,0,1-1.1-1.1V115.7a1.1,1.1,0,1,1,2.2,0V128A1.1,1.1,0,0,1,84.7,129.1Z" style="fill: none;stroke: #fff;stroke-miterlimit: 10"/>
      </g>
    </g>
  </g>
</svg>
