<?xml version="1.0" encoding="UTF-8" standalone="no"?>
<svg xmlns="http://www.w3.org/2000/svg" viewBox="0 0 187.9 55.1">
 <title>Recurso 4</title>
 <g id="fe4384ec-9372-48b4-a3af-b1967e824be5" data-name="Capa 2">
  <g id="a8b590a2-d91b-41a8-934b-2ca2803eca81" data-name="Capa 1">
   <g fill="#fff">
    <path d="m65.6 46.1c0 0.1 0 0.1-0.1 0.2s-0.1 0.1-0.1 0.2a31.5 31.5 0 0 1 -3 4.7 34.5 34.5 0 0 1 -3.8 3.9l-1.7-1.4a19.3 19.3 0 0 0 3.3 -3.1 16.9 16.9 0 0 0 2.6 -3.7l-2.8 0.3a14.5 14.5 0 0 1 -3.3 3.6l-1.4-1.3a13.9 13.9 0 0 0 2.1 -2.1 13.4 13.4 0 0 0 2.2 -3.8l2 0.7a0.2 0.2 0 0 1 0.2 0.2c0 0.1-0.1 0.1-0.2 0.2a1 1 0 0 0 -0.4 0.5l2.3-0.2h0.2l0.2-0.2 0.5 0.3h0.1l-0.6-0.8 0.7-0.4 1 1.4-0.4 0.3 0.2 0.2c0.2 0.2 0.2 0.3 0.2 0.3zm0.9-1.5-0.6 0.5-1-1.4 0.6-0.5z"/>
    <path d="m77.9 47.8c0 0.1 0 0.2-0.2 0.3s-0.2 0.2-0.2 0.3a11.4 11.4 0 0 1 -3 4 15.1 15.1 0 0 1 -4.6 2.4l-1.2-2.1a9.4 9.4 0 0 0 3.4 -1.4 7.2 7.2 0 0 0 2.6 -2.6l-6.7 0.5v-2.2l7.6-0.3h0.4l0.3-0.2 0.3 0.2 1.3 1zm-1.9-2.2l-6.9 0.2v-1.9h6.8z"/>
    <path d="m89.7 46.3c0 0.1-0.1 0.1-0.1 0.2l-0.2 0.3a13.4 13.4 0 0 1 -2.8 4.7 11.6 11.6 0 0 1 -4.4 3.2l-1.4-1.9a10.8 10.8 0 0 0 6.2 -6l-6.8 0.3v-2.1l7.3-0.3h0.5l0.3 0.2 1.2 1.4z"/>
    <path d="m101.5 46.9l-0.3 0.2h-0.3a14.2 14.2 0 0 1 -2.2 1.9v5.9h-1.8v-4.6a15 15 0 0 1 -3.2 1.5l-1.1-1.5a32.6 32.6 0 0 0 3.8 -1.8 14.3 14.3 0 0 0 3.6 -3l1.2 1.1q0.3 0.2 0.3 0.3z"/>
    <path d="m107.7 49.5l-1.6 0.7a11.6 11.6 0 0 0 -1.4 -2.7l1.6-0.9c0.3 0.4 0.5 0.9 0.8 1.4a7.7 7.7 0 0 1 0.6 1.5zm6.3-2.2s0 0.1-0.2 0.2l-0.2 0.3a15.1 15.1 0 0 1 -1.4 3.7 11.9 11.9 0 0 1 -3.4 3.3l-1.6-1.4a7.9 7.9 0 0 0 3.6 -3.4 8.1 8.1 0 0 0 1 -3.5l2 0.6a0.2 0.2 0 0 1 0.2 0.2zm-3.6 1.4-1.6 0.7a10.5 10.5 0 0 0 -1.2 -2.9l1.5-0.9a9.7 9.7 0 0 1 1.3 3.1z"/>
    <path d="m126.7 46.1c0 0.1 0 0.1-0.1 0.2s-0.1 0.1-0.1 0.2a31.5 31.5 0 0 1 -3 4.7 34.5 34.5 0 0 1 -3.8 3.9l-1.7-1.4a19.3 19.3 0 0 0 3.3 -3.1 16.9 16.9 0 0 0 2.6 -3.7l-2.8 0.3a14.5 14.5 0 0 1 -3.3 3.6l-1.4-1.3a13.9 13.9 0 0 0 2.1 -2.1 13.4 13.4 0 0 0 2.2 -3.8l2 0.7a0.2 0.2 0 0 1 0.2 0.2c0 0.1-0.1 0.1-0.2 0.2a1 1 0 0 0 -0.4 0.5l2.3-0.2h0.2l0.2-0.2 0.5 0.3 1 0.8c0.2 0 0.2 0.1 0.2 0.2z"/>
    <path d="m139 49h-4v0.8a4.2 4.2 0 0 1 -1.3 3.3 13.1 13.1 0 0 1 -3 1.8l-1.6-1.9a6.3 6.3 0 0 0 2.6 -1.2 3.7 3.7 0 0 0 1 -2.8l-4.1 0.2v-2l10.4-0.3zm-2.1-3h-6.9v-1.8h6.8zm2-0.7-0.6 0.5-1.2-1.3 0.6-0.5zm0.8-0.8-0.6 0.6a9.2 9.2 0 0 0 -1.1 -1.4l0.5-0.5c0.3 0.2 0.6 0.7 1.2 1.3z"/>
    <path d="m151.6 48h-1.9c-0.3 3.7-2.1 6-5.3 7l-1-1.9c2.4-0.5 3.7-2.2 4.1-5h-3.2c0.1 0.8 0.1 1.7 0.2 2.7l-2 0.2-0.2-2.8h-1.8v-2.1h1.8a12.8 12.8 0 0 0 -0.1 -1.8h2c0.2 0 0.3 0.1 0.3 0.2s0 0.1-0.1 0.2a0.4 0.4 0 0 0 -0.1 0.3v1h3.3c0-0.7-0.1-1.3-0.1-1.9l2.1 0.2h0.2c0-0.1-0.1-0.2-0.1-0.3l0.6-0.3a8.9 8.9 0 0 1 0.7 1.6l-0.7 0.3a6.9 6.9 0 0 0 -0.4 -1l-0.2 0.3a1.1 1.1 0 0 0 0.1 0.5v0.5h1.8zm0.3-3.3-0.7 0.4a15.8 15.8 0 0 0 -0.7 -1.6l0.8-0.3z"/>
    <path d="m163.2 45.5l-0.3 0.2-0.4 0.2a20.8 20.8 0 0 1 -2.5 2.1v6.9h-2.2v-5.5a18.6 18.6 0 0 1 -3.7 1.9l-1.3-1.9a24.8 24.8 0 0 0 4.4 -2 16.3 16.3 0 0 0 4.3 -3.6l1.5 1.4c0.1 0.1 0.2 0.2 0.2 0.3z"/>
    <path d="m175.7 48.3h-3.9a8.1 8.1 0 0 1 -1.1 3.7 7.9 7.9 0 0 1 -2.7 2.8l-1.8-1.5a5.9 5.9 0 0 0 3.3 -4.9l-4.2 0.2v-2l4.5-0.2c-0.1-0.8-0.1-1.7-0.2-2.6l2.3 0.2c0.1 0 0.2 0 0.2 0.1a0.3 0.3 0 0 1 -0.1 0.2 0.4 0.4 0 0 0 -0.1 0.3v1.7l3.8-0.2z"/>
    <path d="m187.6 50.1h-9.7v-1.9h9.7z"/>
    <path d="m55.2 1h4.2a4 4 0 0 1 3.1 1 4.1 4.1 0 0 1 1 3.1v0.7a4.8 4.8 0 0 1 -0.4 2.2 3.3 3.3 0 0 1 -1.4 1.2q2.1 0.6 2.1 3.6v1.5a4.2 4.2 0 0 1 -1.1 3.1 4.2 4.2 0 0 1 -3.1 1.1h-4.4zm3.9 7.2a1.5 1.5 0 0 0 1.2 -0.5c0.3-0.2 0.4-0.7 0.4-1.4v-1a2.1 2.1 0 0 0 -0.3 -1.3 1.3 1.3 0 0 0 -1.1 -0.5h-1.3v4.7zm0.5 7.9a1.8 1.8 0 0 0 1.1 -0.4 2.4 2.4 0 0 0 0.3 -1.4v-1.5a2.7 2.7 0 0 0 -0.4 -1.7 1.8 1.8 0 0 0 -1.4 -0.4h-1.2v5.4z"/>
    <path d="m67.5 11.1-3.3-10.1h2.9l1.9 6.5h0.1l1.8-6.5h2.7l-3.3 10.1v7.5h-2.8z"/>
    <path d="m75.9 1h3.7l2.9 17.6h-2.8l-0.5-3.5h-3.1l-0.5 3.4h-2.6zm3 11.8l-1.3-8.7-1.2 8.7z"/>
    <path d="m83.8 1h2.8v7.4l3.5-7.4h2.7l-3.3 6.5 3.4 11.1h-2.9l-2.3-7.8-1.1 2.2v5.6h-2.8z"/>
    <path d="m95.1 17.7a4.8 4.8 0 0 1 -1 -3.3v-13.4h2.7v13.6c0 0.6 0.1 1.1 0.4 1.3a1.2 1.2 0 0 0 1 0.4 1.4 1.4 0 0 0 1.1 -0.4 2.1 2.1 0 0 0 0.3 -1.3v-13.6h2.7v13.4a4.9 4.9 0 0 1 -1.1 3.3 3.7 3.7 0 0 1 -3 1.1 3.8 3.8 0 0 1 -3.1 -1.1z"/>
    <path d="m104.3 1h4.1a4.1 4.1 0 0 1 3.1 1 4.6 4.6 0 0 1 0.9 3.1v1c0 1.9-0.6 3-1.8 3.5a2.3 2.3 0 0 1 1.5 1.2 7.6 7.6 0 0 1 0.4 2.5v4.3a3.2 3.2 0 0 0 0.3 0.9h-2.8a3.1 3.1 0 0 1 -0.2 -0.8 4.9 4.9 0 0 1 -0.1 -1.4v-3.1a2.7 2.7 0 0 0 -0.4 -1.7c-0.2-0.3-0.7-0.4-1.3-0.4h-1v7.5h-2.7zm3.7 7.5a1.7 1.7 0 0 0 1.3 -0.4 2.3 2.3 0 0 0 0.4 -1.4v-1.4c0-0.6-0.1-1.1-0.4-1.3a1.1 1.1 0 0 0 -1 -0.5h-1.3v5z"/>
    <path d="m116.5 1h3.8l2.8 17.6h-2.7l-0.6-3.5h-3.1l-0.5 3.4h-2.6zm3 11.8-1.2-8.7h-0.1l-1.2 8.7z"/>
    <path d="m124.4 1h3.5l2.7 10.5v-10.5h2.5v17.6h-2.8l-3.3-12.8h-0.1v12.8h-2.5z"/>
    <path d="m55.2 22.3h7.6v2.5h-4.8v4.6h3.8v2.5h-3.8v5.4h4.8v2.5h-7.6z"/>
    <path d="m64.4 22.3h3.4l2.7 10.5h0.1v-10.5h2.4v17.5h-2.8l-3.3-12.8h-0.1v12.8h-2.4z"/>
    <path d="m75.1 22.3h4.1a4.1 4.1 0 0 1 3.1 1 4.1 4.1 0 0 1 1 3v1.1c0 1.8-0.6 3-1.8 3.5a2.4 2.4 0 0 1 1.4 1.2 6.2 6.2 0 0 1 0.4 2.5v4.3l0.3 0.9h-2.8a1.9 1.9 0 0 1 -0.2 -0.8 4.2 4.2 0 0 1 -0.1 -1.3v-3.2a2.5 2.5 0 0 0 -0.4 -1.7 1.6 1.6 0 0 0 -1.3 -0.5h-1v7.5h-2.7zm3.7 7.5a1.7 1.7 0 0 0 1.3 -0.4 2.1 2.1 0 0 0 0.4 -1.5v-1.3a2.6 2.6 0 0 0 -0.3 -1.4 1.4 1.4 0 0 0 -1.1 -0.4h-1.3v5z"/>
    <path d="m85.2 22.3h2.8v17.5h-2.8z"/>
    <path d="m95.8 39.8a4.8 4.8 0 0 1 -1.8 0.3 4 4 0 0 1 -3.1 -1.2 4.4 4.4 0 0 1 -1.1 -3.2v-9.3a4.4 4.4 0 0 1 1.1 -3.2 4 4 0 0 1 3.1 -1.2 3.9 3.9 0 0 1 3.1 1.2 4.4 4.4 0 0 1 1.1 3.2v9.3a5.5 5.5 0 0 1 -0.8 2.9l0.4 0.3h1.1v2.5h-0.7a2.2 2.2 0 0 1 -2.4 -1.6zm-0.4-3.9v-9.6c0-1.2-0.4-1.8-1.4-1.8s-1.4 0.6-1.4 1.8v9.6c0 1.1 0.5 1.7 1.4 1.7s1.4-0.6 1.4-1.7z"/>
    <path d="m101 39a4.8 4.8 0 0 1 -1 -3.3v-13.4h2.7v13.6a1.7 1.7 0 0 0 0.4 1.3 1.2 1.2 0 0 0 1 0.4 1.4 1.4 0 0 0 1.1 -0.4 2.3 2.3 0 0 0 0.3 -1.3v-13.6h2.7v13.4a4.9 4.9 0 0 1 -1.1 3.3 4.1 4.1 0 0 1 -3 1.1 4.2 4.2 0 0 1 -3.1 -1.1z"/>
    <path d="m110.2 22.3h7.5v2.5h-4.8v4.6h3.8v2.5h-3.8v5.4h4.8v2.5h-7.5z"/>
    <path d="m123.3 22.3h7.3v2.5h-4.6v4.9h3.6v2.5h-3.6v7.6h-2.7z"/>
    <path d="m132.9 39a4.9 4.9 0 0 1 -1.1 -3.3v-13.4h2.8v13.6a2.3 2.3 0 0 0 0.3 1.3 1.4 1.4 0 0 0 1.1 0.4 1.2 1.2 0 0 0 1 -0.4 1.7 1.7 0 0 0 0.4 -1.3v-13.6h2.7v13.4a4.9 4.9 0 0 1 -1.1 3.3 4.2 4.2 0 0 1 -3.1 1.1 4.1 4.1 0 0 1 -3 -1.1z"/>
    <path d="m142 22.3h7.5v2.5h-4.7v4.6h3.8v2.5h-3.8v5.4h4.7v2.5h-7.5z"/>
    <path d="m151.1 22.3h3.5l2.7 10.5v-10.5h2.5v17.5h-2.8l-3.4-12.8v12.8h-2.5z"/>
    <path d="m164 24.8h-2.9v-2.5h8.6v2.5h-2.9v15h-2.8z"/>
    <path d="m171 22.3h7.5v2.5h-4.7v4.6h3.7v2.5h-3.7v5.4h4.7v2.5h-7.5z"/>
    <path d="m180.7 39a4.8 4.8 0 0 1 -1 -3.3v-1h2.6v1.2c0 1.1 0.5 1.7 1.4 1.7a1.8 1.8 0 0 0 1.1 -0.4 2.6 2.6 0 0 0 0.4 -1.4 3.1 3.1 0 0 0 -0.6 -1.9 6.3 6.3 0 0 0 -1.8 -2 13.8 13.8 0 0 1 -2.4 -2.8 6 6 0 0 1 -0.7 -2.7 4.4 4.4 0 0 1 1.1 -3.2 3.8 3.8 0 0 1 3 -1.2 3.5 3.5 0 0 1 3 1.2 4.4 4.4 0 0 1 1.1 3.2v0.8h-2.6v-0.9a2.6 2.6 0 0 0 -0.4 -1.4 1.5 1.5 0 0 0 -1 -0.4c-1 0-1.4 0.6-1.4 1.7a4.1 4.1 0 0 0 0.5 1.8 10.8 10.8 0 0 0 1.9 2 13.7 13.7 0 0 1 2.4 2.7 6.8 6.8 0 0 1 0.6 2.9 4.1 4.1 0 0 1 -1.1 3.3 3.9 3.9 0 0 1 -3.1 1.2 4.1 4.1 0 0 1 -3 -1.1z"/>
    <path d="m43.9 13.2c-1.1-3-1.9-1.4-1.9-1.4s-0.9 0.1-0.9 0.1a17.7 17.7 0 0 0 -6 -6.1c-1.3-0.8-0.7 2.3-0.7 2.3-0.3 2.3-2 0.4-2 0.4-4.2-5.3-6.8-6.4-6.8-6.4-2.3-1.2-2.1 0.3-2.1 0.3s0 0.9 0 0.9-4.9-1-4.9-1a23 23 0 0 0 -7 -2.3c-2-0.1-1.5 0.8-1.5 0.8s-0.3 0.9-0.3 0.9c-8.1 2.6-8.7 3.7-8.7 3.7-2 1.5-0.7 2-0.7 2a19.9 19.9 0 0 1 3.4 2.5c1.4 1.4-0.4 0.7-0.4 0.7s-0.6 1.1-0.6 1.1l2.1 2.2c2.5 3.4-0.6 10-0.6 10-2.2 7.2-1.3 10.1-1.3 10.1 0 5.3 10.5 11.5 10.5 11.5 2.6 1.9 1.3 4.2 1.3 4.2-1.1 2.1-2.5 5.1-2.5 5.1h18c-0.1-1.1-3.6-4.4-3.6-4.4-3.3-3 4.3-6.8 4.3-6.8 13.3-5.8 15.8-14.7 15.8-14.7a18 18 0 0 0 -2.9 -15.7zm-36.8 14.2a2 2 0 0 1 0 -4 2 2 0 1 1 0 4zm12.2 3.4a2 2 0 0 1 -2 -2 1.9 1.9 0 0 1 2 -1.9 1.8 1.8 0 0 1 1.9 1.9 1.9 1.9 0 0 1 -1.9 2z"/>
   </g>
  </g>
 </g>
</svg>
