<svg xmlns="http://www.w3.org/2000/svg" viewBox="0 0 187.9 55.1">
  <title>Recurso 4</title>
  <g id="fe4384ec-9372-48b4-a3af-b1967e824be5" data-name="Capa 2">
    <g id="a8b590a2-d91b-41a8-934b-2ca2803eca81" data-name="Capa 1">
      <g>
        <g>
          <path d="M65.6,46.1c0,.1,0,.1-.1.2s-.1.1-.1.2a31.5,31.5,0,0,1-3,4.7,34.5,34.5,0,0,1-3.8,3.9l-1.7-1.4a19.3,19.3,0,0,0,3.3-3.1,16.9,16.9,0,0,0,2.6-3.7l-2.8.3a14.5,14.5,0,0,1-3.3,3.6l-1.4-1.3a13.9,13.9,0,0,0,2.1-2.1,13.4,13.4,0,0,0,2.2-3.8l2,.7a.2.2,0,0,1,.2.2c0,.1-.1.1-.2.2a1,1,0,0,0-.4.5l2.3-.2h.2l.2-.2.5.3h.1l-.6-.8.7-.4,1,1.4-.4.3.2.2C65.6,46,65.6,46.1,65.6,46.1Zm.9-1.5-.6.5-1-1.4.6-.5Z" style="fill: #fff"/>
          <path d="M77.9,47.8c0,.1,0,.2-.2.3s-.2.2-.2.3a11.4,11.4,0,0,1-3,4,15.1,15.1,0,0,1-4.6,2.4l-1.2-2.1a9.4,9.4,0,0,0,3.4-1.4,7.2,7.2,0,0,0,2.6-2.6l-6.7.5V47l7.6-.3h.4l.3-.2.3.2,1.3,1ZM76,45.6l-6.9.2V43.9h6.8Z" style="fill: #fff"/>
          <path d="M89.7,46.3c0,.1-.1.1-.1.2l-.2.3a13.4,13.4,0,0,1-2.8,4.7,11.6,11.6,0,0,1-4.4,3.2l-1.4-1.9a10.8,10.8,0,0,0,6.2-6l-6.8.3V45l7.3-.3H88l.3.2,1.2,1.4Z" style="fill: #fff"/>
          <path d="M101.5,46.9l-.3.2h-.3A14.2,14.2,0,0,1,98.7,49v5.9H96.9V50.3a15,15,0,0,1-3.2,1.5l-1.1-1.5a32.6,32.6,0,0,0,3.8-1.8,14.3,14.3,0,0,0,3.6-3l1.2,1.1Q101.5,46.8,101.5,46.9Z" style="fill: #fff"/>
          <path d="M107.7,49.5l-1.6.7a11.6,11.6,0,0,0-1.4-2.7l1.6-.9c.3.4.5.9.8,1.4A7.7,7.7,0,0,1,107.7,49.5Zm6.3-2.2s0,.1-.2.2l-.2.3a15.1,15.1,0,0,1-1.4,3.7,11.9,11.9,0,0,1-3.4,3.3l-1.6-1.4a7.9,7.9,0,0,0,3.6-3.4,8.1,8.1,0,0,0,1-3.5l2,.6A.2.2,0,0,1,114,47.3Zm-3.6,1.4-1.6.7a10.5,10.5,0,0,0-1.2-2.9l1.5-.9A9.7,9.7,0,0,1,110.4,48.7Z" style="fill: #fff"/>
          <path d="M126.7,46.1c0,.1,0,.1-.1.2s-.1.1-.1.2a31.5,31.5,0,0,1-3,4.7,34.5,34.5,0,0,1-3.8,3.9L118,53.7a19.3,19.3,0,0,0,3.3-3.1,16.9,16.9,0,0,0,2.6-3.7l-2.8.3a14.5,14.5,0,0,1-3.3,3.6l-1.4-1.3a13.9,13.9,0,0,0,2.1-2.1,13.4,13.4,0,0,0,2.2-3.8l2,.7a.2.2,0,0,1,.2.2c0,.1-.1.1-.2.2a1,1,0,0,0-.4.5l2.3-.2h.2l.2-.2.5.3,1,.8C126.7,45.9,126.7,46,126.7,46.1Z" style="fill: #fff"/>
          <path d="M139,49h-4v.8a4.2,4.2,0,0,1-1.3,3.3,13.1,13.1,0,0,1-3,1.8l-1.6-1.9a6.3,6.3,0,0,0,2.6-1.2,3.7,3.7,0,0,0,1-2.8l-4.1.2V47.2l10.4-.3Zm-2.1-3H130V44.2h6.8Zm2-.7-.6.5-1.2-1.3.6-.5Zm.8-.8-.6.6a9.2,9.2,0,0,0-1.1-1.4l.5-.5C138.8,43.4,139.1,43.9,139.7,44.5Z" style="fill: #fff"/>
          <path d="M151.6,48h-1.9c-.3,3.7-2.1,6-5.3,7l-1-1.9c2.4-.5,3.7-2.2,4.1-5h-3.2c.1.8.1,1.7.2,2.7l-2,.2-.2-2.8h-1.8V46.1h1.8a12.8,12.8,0,0,0-.1-1.8h2c.2,0,.3.1.3.2s0,.1-.1.2a.4.4,0,0,0-.1.3v1h3.3c0-.7-.1-1.3-.1-1.9l2.1.2h.2c0-.1-.1-.2-.1-.3l.6-.3a8.9,8.9,0,0,1,.7,1.6l-.7.3a6.9,6.9,0,0,0-.4-1l-.2.3a1.1,1.1,0,0,0,.1.5v.5h1.8Zm.3-3.3-.7.4a15.8,15.8,0,0,0-.7-1.6l.8-.3Z" style="fill: #fff"/>
          <path d="M163.2,45.5l-.3.2-.4.2A20.8,20.8,0,0,1,160,48v6.9h-2.2V49.4a18.6,18.6,0,0,1-3.7,1.9l-1.3-1.9a24.8,24.8,0,0,0,4.4-2,16.3,16.3,0,0,0,4.3-3.6l1.5,1.4C163.1,45.3,163.2,45.4,163.2,45.5Z" style="fill: #fff"/>
          <path d="M175.7,48.3h-3.9a8.1,8.1,0,0,1-1.1,3.7,7.9,7.9,0,0,1-2.7,2.8l-1.8-1.5a5.9,5.9,0,0,0,3.3-4.9l-4.2.2V46.6l4.5-.2c-.1-.8-.1-1.7-.2-2.6l2.3.2c.1,0,.2,0,.2.1a.3.3,0,0,1-.1.2.4.4,0,0,0-.1.3v1.7l3.8-.2Z" style="fill: #fff"/>
          <path d="M187.6,50.1h-9.7V48.2h9.7Z" style="fill: #fff"/>
        </g>
        <g>
          <path d="M55.2,1h4.2a4,4,0,0,1,3.1,1,4.1,4.1,0,0,1,1,3.1v.7A4.8,4.8,0,0,1,63.1,8a3.3,3.3,0,0,1-1.4,1.2h0q2.1.6,2.1,3.6v1.5a4.2,4.2,0,0,1-1.1,3.1,4.2,4.2,0,0,1-3.1,1.1H55.2Zm3.9,7.2a1.5,1.5,0,0,0,1.2-.5c.3-.2.4-.7.4-1.4v-1A2.1,2.1,0,0,0,60.4,4a1.3,1.3,0,0,0-1.1-.5H58V8.2Zm.5,7.9a1.8,1.8,0,0,0,1.1-.4,2.4,2.4,0,0,0,.3-1.4V12.8a2.7,2.7,0,0,0-.4-1.7,1.8,1.8,0,0,0-1.4-.4H58v5.4Z" style="fill: #fff"/>
          <path d="M67.5,11.1,64.2,1h2.9L69,7.5h.1L70.9,1h2.7L70.3,11.1v7.5H67.5Z" style="fill: #fff"/>
          <path d="M75.9,1h3.7l2.9,17.6H79.7l-.5-3.5H76.1l-.5,3.4H73Zm3,11.8L77.6,4.1h0l-1.2,8.7Z" style="fill: #fff"/>
          <path d="M83.8,1h2.8V8.4L90.1,1h2.7L89.5,7.5l3.4,11.1H90l-2.3-7.8L86.6,13v5.6H83.8Z" style="fill: #fff"/>
          <path d="M95.1,17.7a4.8,4.8,0,0,1-1-3.3V1h2.7V14.6c0,.6.1,1.1.4,1.3a1.2,1.2,0,0,0,1,.4,1.4,1.4,0,0,0,1.1-.4,2.1,2.1,0,0,0,.3-1.3V1h2.7V14.4a4.9,4.9,0,0,1-1.1,3.3,3.7,3.7,0,0,1-3,1.1A3.8,3.8,0,0,1,95.1,17.7Z" style="fill: #fff"/>
          <path d="M104.3,1h4.1a4.1,4.1,0,0,1,3.1,1,4.6,4.6,0,0,1,.9,3.1v1c0,1.9-.6,3-1.8,3.5h0a2.3,2.3,0,0,1,1.5,1.2,7.6,7.6,0,0,1,.4,2.5v4.3a3.2,3.2,0,0,0,.3.9H110a3.1,3.1,0,0,1-.2-.8,4.9,4.9,0,0,1-.1-1.4V13.2a2.7,2.7,0,0,0-.4-1.7c-.2-.3-.7-.4-1.3-.4h-1v7.5h-2.7ZM108,8.5a1.7,1.7,0,0,0,1.3-.4,2.3,2.3,0,0,0,.4-1.4V5.3c0-.6-.1-1.1-.4-1.3a1.1,1.1,0,0,0-1-.5H107v5Z" style="fill: #fff"/>
          <path d="M116.5,1h3.8l2.8,17.6h-2.7l-.6-3.5h-3.1l-.5,3.4h-2.6Zm3,11.8-1.2-8.7h-.1L117,12.8Z" style="fill: #fff"/>
          <path d="M124.4,1h3.5l2.7,10.5h0V1h2.5V18.6h-2.8L127,5.8h-.1V18.6h-2.5Z" style="fill: #fff"/>
        </g>
        <g>
          <path d="M55.2,22.3h7.6v2.5H58v4.6h3.8v2.5H58v5.4h4.8v2.5H55.2Z" style="fill: #fff"/>
          <path d="M64.4,22.3h3.4l2.7,10.5h.1V22.3H73V39.8H70.2L66.9,27h-.1V39.8H64.4Z" style="fill: #fff"/>
          <path d="M75.1,22.3h4.1a4.1,4.1,0,0,1,3.1,1,4.1,4.1,0,0,1,1,3v1.1c0,1.8-.6,3-1.8,3.5h0a2.4,2.4,0,0,1,1.4,1.2,6.2,6.2,0,0,1,.4,2.5v4.3l.3.9H80.8a1.9,1.9,0,0,1-.2-.8,4.2,4.2,0,0,1-.1-1.3V34.5a2.5,2.5,0,0,0-.4-1.7,1.6,1.6,0,0,0-1.3-.5h-1v7.5H75.1Zm3.7,7.5a1.7,1.7,0,0,0,1.3-.4,2.1,2.1,0,0,0,.4-1.5V26.6a2.6,2.6,0,0,0-.3-1.4,1.4,1.4,0,0,0-1.1-.4H77.8v5Z" style="fill: #fff"/>
          <path d="M85.2,22.3H88V39.8H85.2Z" style="fill: #fff"/>
          <path d="M95.8,39.8a4.8,4.8,0,0,1-1.8.3,4,4,0,0,1-3.1-1.2,4.4,4.4,0,0,1-1.1-3.2V26.4a4.4,4.4,0,0,1,1.1-3.2A4,4,0,0,1,94,22a3.9,3.9,0,0,1,3.1,1.2,4.4,4.4,0,0,1,1.1,3.2v9.3a5.5,5.5,0,0,1-.8,2.9l.4.3h1.1v2.5h-.7A2.2,2.2,0,0,1,95.8,39.8Zm-.4-3.9V26.3c0-1.2-.4-1.8-1.4-1.8s-1.4.6-1.4,1.8v9.6c0,1.1.5,1.7,1.4,1.7S95.4,37,95.4,35.9Z" style="fill: #fff"/>
          <path d="M101,39a4.8,4.8,0,0,1-1-3.3V22.3h2.7V35.9a1.7,1.7,0,0,0,.4,1.3,1.2,1.2,0,0,0,1,.4,1.4,1.4,0,0,0,1.1-.4,2.3,2.3,0,0,0,.3-1.3V22.3h2.7V35.7a4.9,4.9,0,0,1-1.1,3.3,4.1,4.1,0,0,1-3,1.1A4.2,4.2,0,0,1,101,39Z" style="fill: #fff"/>
          <path d="M110.2,22.3h7.5v2.5h-4.8v4.6h3.8v2.5h-3.8v5.4h4.8v2.5h-7.5Z" style="fill: #fff"/>
          <path d="M123.3,22.3h7.3v2.5H126v4.9h3.6v2.5H126v7.6h-2.7Z" style="fill: #fff"/>
          <path d="M132.9,39a4.9,4.9,0,0,1-1.1-3.3V22.3h2.8V35.9a2.3,2.3,0,0,0,.3,1.3,1.4,1.4,0,0,0,1.1.4,1.2,1.2,0,0,0,1-.4,1.7,1.7,0,0,0,.4-1.3V22.3h2.7V35.7A4.9,4.9,0,0,1,139,39a4.2,4.2,0,0,1-3.1,1.1A4.1,4.1,0,0,1,132.9,39Z" style="fill: #fff"/>
          <path d="M142,22.3h7.5v2.5h-4.7v4.6h3.8v2.5h-3.8v5.4h4.7v2.5H142Z" style="fill: #fff"/>
          <path d="M151.1,22.3h3.5l2.7,10.5h0V22.3h2.5V39.8H157L153.6,27h0V39.8h-2.5Z" style="fill: #fff"/>
          <path d="M164,24.8h-2.9V22.3h8.6v2.5h-2.9v15H164Z" style="fill: #fff"/>
          <path d="M171,22.3h7.5v2.5h-4.7v4.6h3.7v2.5h-3.7v5.4h4.7v2.5H171Z" style="fill: #fff"/>
          <path d="M180.7,39a4.8,4.8,0,0,1-1-3.3v-1h2.6v1.2c0,1.1.5,1.7,1.4,1.7a1.8,1.8,0,0,0,1.1-.4,2.6,2.6,0,0,0,.4-1.4,3.1,3.1,0,0,0-.6-1.9,6.3,6.3,0,0,0-1.8-2,13.8,13.8,0,0,1-2.4-2.8,6,6,0,0,1-.7-2.7,4.4,4.4,0,0,1,1.1-3.2,3.8,3.8,0,0,1,3-1.2,3.5,3.5,0,0,1,3,1.2,4.4,4.4,0,0,1,1.1,3.2v.8h-2.6v-.9a2.6,2.6,0,0,0-.4-1.4,1.5,1.5,0,0,0-1-.4c-1,0-1.4.6-1.4,1.7A4.1,4.1,0,0,0,183,28a10.8,10.8,0,0,0,1.9,2,13.7,13.7,0,0,1,2.4,2.7,6.8,6.8,0,0,1,.6,2.9,4.1,4.1,0,0,1-1.1,3.3,3.9,3.9,0,0,1-3.1,1.2A4.1,4.1,0,0,1,180.7,39Z" style="fill: #fff"/>
        </g>
        <path d="M43.9,13.2c-1.1-3-1.9-1.4-1.9-1.4s-.9.1-.9.1a17.7,17.7,0,0,0-6-6.1c-1.3-.8-.7,2.3-.7,2.3-.3,2.3-2,.4-2,.4-4.2-5.3-6.8-6.4-6.8-6.4-2.3-1.2-2.1.3-2.1.3s0,.9,0,.9-4.9-1-4.9-1a23,23,0,0,0-7-2.3c-2-.1-1.5.8-1.5.8s-.3.9-.3.9C1.7,4.3,1.1,5.4,1.1,5.4c-2,1.5-.7,2-.7,2A19.9,19.9,0,0,1,3.8,9.9c1.4,1.4-.4.7-.4.7s-.6,1.1-.6,1.1l2.1,2.2c2.5,3.4-.6,10-.6,10C2.1,31.1,3,34,3,34c0,5.3,10.5,11.5,10.5,11.5,2.6,1.9,1.3,4.2,1.3,4.2-1.1,2.1-2.5,5.1-2.5,5.1h18c-.1-1.1-3.6-4.4-3.6-4.4-3.3-3,4.3-6.8,4.3-6.8,13.3-5.8,15.8-14.7,15.8-14.7A18,18,0,0,0,43.9,13.2ZM7.1,27.4a2,2,0,0,1,0-4,2,2,0,1,1,0,4Zm12.2,3.4a2,2,0,0,1-2-2,1.9,1.9,0,0,1,2-1.9,1.8,1.8,0,0,1,1.9,1.9A1.9,1.9,0,0,1,19.3,30.8Z" style="fill: #fff"/>
      </g>
    </g>
  </g>
</svg>
