<svg xmlns="http://www.w3.org/2000/svg" viewBox="0 0 265.3 125.7">
  <title>Recurso 24</title>
  <g id="e446f864-a423-49ca-9e31-0611d5480141" data-name="Capa 2">
    <g id="a24e440e-738e-4e66-b2ff-84178eab000b" data-name="Capa 1">
      <g>
        <rect width="265.3" height="125.69" rx="12" style="fill: #171919"/>
        <g>
          <path d="M24.8,106.2l-2.1,4.7h-.3l-2.1-4.7h.4l1.9,4.2,1.9-4.2Z" style="fill: #f3f1e5"/>
          <path d="M25.6,106.2h.3v4.7h-.3Z" style="fill: #f3f1e5"/>
          <path d="M27.6,106.2h1.8a2.3,2.3,0,0,1,2.5,2.3,2.3,2.3,0,0,1-2.5,2.4H27.6Zm1.8,4.4a2.1,2.1,0,0,0,2.2-2.1,2,2,0,0,0-2.2-2H27.9v4.1Z" style="fill: #f3f1e5"/>
          <path d="M36.4,110.6v.3H33.1v-4.7h3.2v.3H33.5v1.8H36v.3H33.5v2Z" style="fill: #f3f1e5"/>
          <path d="M37.2,108.5a2.3,2.3,0,0,1,2.4-2.4,2.4,2.4,0,1,1,0,4.8A2.3,2.3,0,0,1,37.2,108.5Zm4.5,0a2.1,2.1,0,1,0-2.1,2.1A2.1,2.1,0,0,0,41.7,108.5Z" style="fill: #f3f1e5"/>
          <path d="M42.3,110.2l.2-.2a1.4,1.4,0,0,0,1.1.6c.6,0,.9-.4.9-1.1v-3H42.8v-.3h2.1v3.3a1.2,1.2,0,0,1-1.3,1.4A1.5,1.5,0,0,1,42.3,110.2Z" style="fill: #f3f1e5"/>
          <path d="M46.4,108.9v-2.7h.4v2.7c0,1.1.5,1.7,1.5,1.7a1.5,1.5,0,0,0,1.6-1.7v-2.7h.3v2.7a1.9,1.9,0,1,1-3.8,0Z" style="fill: #f3f1e5"/>
          <path d="M55,110.6v.3H51.8v-4.7h3.1v.3H52.1v1.8h2.6v.3H52.1v2Z" style="fill: #f3f1e5"/>
          <path d="M59.6,108.5H60v1.8a2.7,2.7,0,0,1-1.7.6,2.4,2.4,0,1,1,0-4.8,2.1,2.1,0,0,1,1.7.7l-.2.2a2.1,2.1,0,1,0-1.5,3.6,1.8,1.8,0,0,0,1.3-.4Z" style="fill: #f3f1e5"/>
          <path d="M61,108.5a2.4,2.4,0,0,1,2.5-2.4,2.4,2.4,0,0,1,0,4.8A2.4,2.4,0,0,1,61,108.5Zm4.6,0a2.1,2.1,0,1,0-2.1,2.1A2.1,2.1,0,0,0,65.6,108.5Z" style="fill: #f3f1e5"/>
          <path d="M66.6,110.3l.2-.3a2.4,2.4,0,0,0,1.6.6c.9,0,1.3-.4,1.3-.9s-2.9-.6-2.9-2.3.5-1.3,1.6-1.3a3.3,3.3,0,0,1,1.5.4l-.2.3a2.8,2.8,0,0,0-1.3-.4c-.9,0-1.3.5-1.3,1s3,.5,3,2.3-.6,1.2-1.7,1.2A3.2,3.2,0,0,1,66.6,110.3Z" style="fill: #f3f1e5"/>
        </g>
        <g>
          <path d="M121.6,109.5h-2.7l-.6,1.4h-.4l2.2-4.7h.3l2.2,4.7h-.4Zm-.1-.2-1.3-2.8-1.2,2.8Z" style="fill: #f3f1e5"/>
          <path d="M127.3,106.2v4.7H127l-3.2-4.1v4.1h-.4v-4.7h.3l3.2,4.1v-4.1Z" style="fill: #f3f1e5"/>
          <path d="M128.9,106.2h.3v4.7h-.3Z" style="fill: #f3f1e5"/>
          <path d="M135.3,110.9v-4.1l-1.9,3.4h-.2l-2-3.3v4h-.3v-4.7h.3l2.1,3.6,2.1-3.6h.3v4.7Z" style="fill: #f3f1e5"/>
          <path d="M140.6,110.6v.3h-3.3v-4.7h3.2v.3h-2.8v1.8h2.5v.3h-2.5v2Z" style="fill: #f3f1e5"/>
          <path d="M144.8,105.2h.3l-2.2,6.3h-.3Z" style="fill: #f3f1e5"/>
          <path d="M151.9,110.9v-4.1l-2,3.4h-.1l-2-3.3v4h-.4v-4.7h.3l2.1,3.6,2.1-3.6h.3v4.7Z" style="fill: #f3f1e5"/>
          <path d="M156.8,109.5h-2.7l-.6,1.4h-.4l2.2-4.7h.3l2.2,4.7h-.4Zm-.1-.2-1.3-2.8-1.2,2.8Z" style="fill: #f3f1e5"/>
          <path d="M162.5,106.2v4.7h-.3l-3.2-4.1v4.1h-.4v-4.7h.3l3.2,4.1v-4.1Z" style="fill: #f3f1e5"/>
          <path d="M167.5,108.5h.3v1.8a2.4,2.4,0,0,1-1.7.6,2.4,2.4,0,1,1,0-4.8,2.1,2.1,0,0,1,1.7.7l-.2.2a2.1,2.1,0,1,0-1.5,3.6,2.3,2.3,0,0,0,1.4-.4Z" style="fill: #f3f1e5"/>
          <path d="M172.2,109.5h-2.7l-.6,1.4h-.4l2.2-4.7h.3l2.2,4.7h-.4Zm-.1-.2-1.2-2.8-1.3,2.8Z" style="fill: #f3f1e5"/>
        </g>
        <g>
          <path d="M214.5,107.7c0,1-.7,1.6-1.9,1.6h-1.3v1.6h-.4v-4.7h1.7C213.8,106.2,214.5,106.8,214.5,107.7Zm-.4,0q0-1.2-1.5-1.2h-1.3V109h1.3C213.6,109,214.1,108.6,214.1,107.7Z" style="fill: #f3f1e5"/>
          <path d="M218.9,110.6v.3h-3.2v-4.7h3.1v.3H216v1.8h2.5v.3H216v2Z" style="fill: #f3f1e5"/>
          <path d="M220.2,106.2h.3v4.4h2.7v.3h-3Z" style="fill: #f3f1e5"/>
          <path d="M224.8,105h.5l-1,.8h-.4Zm-.7,1.2h.3v4.7h-.3Z" style="fill: #f3f1e5"/>
          <path d="M225.6,108.5a2.4,2.4,0,0,1,2.5-2.4,2.3,2.3,0,0,1,1.7.7l-.3.2a2,2,0,0,0-1.4-.6,2.1,2.1,0,0,0,0,4.2,2,2,0,0,0,1.4-.6l.3.2a2.3,2.3,0,0,1-1.7.7A2.4,2.4,0,0,1,225.6,108.5Z" style="fill: #f3f1e5"/>
          <path d="M230.9,108.9v-2.7h.3v2.7c0,1.1.6,1.7,1.5,1.7a1.5,1.5,0,0,0,1.6-1.7v-2.7h.3v2.7a1.8,1.8,0,0,1-1.9,2C231.6,110.9,230.9,110.2,230.9,108.9Z" style="fill: #f3f1e5"/>
          <path d="M236.2,106.2h.4v4.4h2.7v.3h-3.1Z" style="fill: #f3f1e5"/>
          <path d="M243.1,109.5h-2.7l-.6,1.4h-.4l2.2-4.7h.3l2.2,4.7h-.4Zm-.1-.2-1.3-2.8-1.2,2.8Z" style="fill: #f3f1e5"/>
          <path d="M244.4,110.3l.2-.3a2.4,2.4,0,0,0,1.6.6c.9,0,1.3-.4,1.3-.9s-2.9-.6-2.9-2.3.5-1.3,1.6-1.3a3.3,3.3,0,0,1,1.5.4l-.2.3a2.8,2.8,0,0,0-1.3-.4c-.9,0-1.3.5-1.3,1s3,.5,3,2.3-.6,1.2-1.7,1.2A3.2,3.2,0,0,1,244.4,110.3Z" style="fill: #f3f1e5"/>
        </g>
        <path d="M249,90.1v-6a1.5,1.5,0,0,0,1.5-1.5V81.1a1.5,1.5,0,0,0-1.5-1.5,3,3,0,0,0-2.2-2.9,2.8,2.8,0,0,0-1-.9,2.9,2.9,0,0,0-2.8-2.2h-.4a23.8,23.8,0,0,0-7.1-8.9V54.9a2.3,2.3,0,0,0-2.3-2.3h-2.7a5.3,5.3,0,0,0-4.9-7.5h-2.7a3.2,3.2,0,0,0-2.9,1.7,3.8,3.8,0,0,0-2.5,3.6,3.3,3.3,0,0,0,.4,1.7l.2.5h-2.9a2.2,2.2,0,0,0-2.2,2.3V67.1a12.4,12.4,0,0,0-1.5,6v.5a4.6,4.6,0,0,0,1.3,3.2,2.1,2.1,0,0,0-1.3,2v4.5a2,2,0,0,0,.6,1.5,2,2,0,0,0-.6,1.5v3a2.2,2.2,0,0,0,.1.8H207v1.5h46.4V90.1Zm-1.5,0H246v-6h1.5Zm-10.5-6h1.5v6H237Zm-17.3-1.5h1.5a2.2,2.2,0,0,1,2.3,2.2v5.3h-6V84.8A2.2,2.2,0,0,1,219.7,82.6Zm16.7-5.2a2,2,0,0,0-.9-.7V73.6a32.8,32.8,0,0,1,2,3.1A4.1,4.1,0,0,0,236.4,77.4Zm-2.4-.8h-1.5v-6L234,72Zm-3,13.5h-6V84.8a2.2,2.2,0,0,1,2.2-2.2h1.5a2.2,2.2,0,0,1,2.3,2.2Zm1.5-12h2.2a.8.8,0,0,1,.8.7v.8a1.5,1.5,0,0,0-1.5,1.5v1.5a1.5,1.5,0,0,0,1.5,1.5h-3Zm7.5,6h1.5v6H240Zm3,0h1.5v6H243Zm6-1.5H235.5V81.1H249Zm-4.5-6.3v.4l.3.2a2.4,2.4,0,0,1,.9.8l.2.4h.3a1.4,1.4,0,0,1,1.3,1.5H237a1.4,1.4,0,0,1,1.3-1.5h.3l.2-.4a2.1,2.1,0,0,1,1.9-1.1h.7l.2-.5a1.5,1.5,0,0,1,1.4-1,1.6,1.6,0,0,1,1.5,1.2ZM234,54.9v8.8a22.9,22.9,0,0,0-6.2-2.7l-.4-1.3a3.8,3.8,0,0,0,2.1-3.3V54.1h3.6A.8.8,0,0,1,234,54.9Zm-6-2.3v1.5h-3V52.6Zm-4.5,1.5h-3V52.6h3Zm-3,1.5h3l.7-.2.8.2h3v.8a2.2,2.2,0,0,1-2.3,2.2h-3a2.2,2.2,0,0,1-2.2-2.2Zm2.1,4.5H226l.3,1.1a5.8,5.8,0,0,1-4.1,0Zm-2-12h.4l.2-.3a1.8,1.8,0,0,1,1.7-1.1h2.8a3.8,3.8,0,0,1,3.8,3.9,5.9,5.9,0,0,1-.2,1.3,1.6,1.6,0,0,0-.8-.6l-1.4-2-1.2.8.7,1.1h-1.2l-1.3-1.9-1.2.8.7,1.1h-3.1a1.6,1.6,0,0,0-1.1.5v-.2a1.9,1.9,0,0,1-.3-1,2.4,2.4,0,0,1,1.6-2.3Zm-5.4,6h3.7v2.3a3.6,3.6,0,0,0,2.1,3.3l-.5,1.3a12.6,12.6,0,0,0-6.1,4V54.9A.7.7,0,0,1,215.2,54.1Zm-2.2,19a11,11,0,0,1,8.2-10.7,6.3,6.3,0,0,0,3,.7,6.7,6.7,0,0,0,3.1-.7,21.4,21.4,0,0,1,13.9,11.7,3.9,3.9,0,0,0-.8,1,4.3,4.3,0,0,0-1.7.6,24.4,24.4,0,0,0-6.2-7V67.6H231V81.8a4.5,4.5,0,0,0-2.3-.7h-1.5a3.8,3.8,0,0,0-3,1.5,3.7,3.7,0,0,0-3-1.5h-1.5a4.1,4.1,0,0,0-2.2.7V78.1h3.1a2.3,2.3,0,0,0,2.1,1.5h3a2.3,2.3,0,0,0,2.3-2.3V70.6h1.5V69.1H225v-3h3V64.6h-3a1.5,1.5,0,0,0-1.5,1.5v3H219v1.5h1.5v1.5h-3V70.6H216v1.5h-1.5v1.5H219v3h-3a3,3,0,0,1-3-3Zm9-2.5h4.5v6.7a.9.9,0,0,1-.8.8h-3.2a2.9,2.9,0,0,0,2.5-2.9,3,3,0,0,0-3-3Zm0,3a1.5,1.5,0,0,1,1.5,1.7,1.6,1.6,0,0,1-1.6,1.3h-1.4v-3Zm-6,10.5h-2.3a.8.8,0,0,1-.7-.8V78.8a.7.7,0,0,1,.7-.7H216Zm-3,5.2v-3a.7.7,0,0,1,.7-.7H216v4.5h-2.3A.8.8,0,0,1,213,89.3Zm19.5.8V85.6h3v3.7a.9.9,0,0,1-.8.8Z" style="fill: #fff"/>
        <g id="b65566e3-6818-4a42-a694-2f072b69cd80" data-name="Gradient outline">
          <polygon points="142.3 75.1 142.6 76.6 146.3 75.9 150 76.6 150.3 75.1 146.3 74.3 142.3 75.1" style="fill: #fff"/>
          <polygon points="142.3 78.2 142.6 79.7 146.3 78.9 150 79.7 150.3 78.2 146.3 77.4 142.3 78.2" style="fill: #fff"/>
          <path d="M168.2,45.2l-11.6,4.6h-3.9l-.3-3.9a.8.8,0,0,0-.8-.7H140.9a.8.8,0,0,0-.8.7l-.2,3.9h-4l-11.7-4.6a.7.7,0,0,0-1,.4,1,1,0,0,0,.2.9l7.3,6.3-.6.3v7.7l-6.1,3V86.6h6.1v3.8a.7.7,0,0,0,.3.6,1,1,0,0,0,.7.2l4.6-1.6,3-.7a.8.8,0,0,0,.6-.8V85.7l3.2,2.1.8,3.4h5.8l.9-3.4,3.1-2.1v2.4a.9.9,0,0,0,.6.8l3.1.7,4.5,1.6a1.1,1.1,0,0,0,.8-.2.7.7,0,0,0,.3-.6V86.6h6.1V63.8l-6.1-3V53.1l-.6-.3,7.2-6.3a.8.8,0,0,0,.1-1.1.8.8,0,0,0-.9-.2Zm-20.4,3a1.5,1.5,0,0,1-1.5,1.5,1.6,1.6,0,0,1-1.6-1.5,1.5,1.5,0,0,1,1.6-1.5A1.5,1.5,0,0,1,147.8,48.2Zm-4.2-1.5a2.4,2.4,0,0,0-.4,1.5,3.1,3.1,0,0,0,3.1,3.1,3,3,0,0,0,3-3.1,2.4,2.4,0,0,0-.4-1.5h2l.4,5.3-2.1.8h-5.9l-2-.8.3-5.3Zm5,7.6.3,2.6-2.6,1.2-2.6-1.2.2-2.6Zm-5.1,4.2,2.4,1.1a.9.9,0,0,0,.7,0l2.4-1.1.3,3-3,1.2-3.1-1.2Zm-1.1-4.4-.6,6.3L127.9,48.3ZM131.6,54h.3l3.2,2.7h-3.5Zm-6.1,31.1V64.8l4.6-2.3v4.1H127v4.6h3.1v1.6H127v4.6h3.1v1.5H127v4.6h3.1v1.6ZM135,70.4l4.3.8,4.4-.8,1.5-3h2.1l1.5,3,4.3.8,4.4-.8,1.5-3h1.8v4l-4,.7h0l-2.9.6-7.7-1.5-7.6,1.5-3-.6h0l-4-.7v-4h1.9Zm.2-3h8.3l-.8,1.6-3.3.7L136,69Zm13.8,0h8.3l-.8,1.6-3.3.7-3.3-.7Zm13.4.8h1.5v1.5h-1.5Zm0,6.1h1.5v1.5h-1.5Zm-32.3-4.6h-1.5V68.2h1.5Zm0,6.1h-1.5V74.3h1.5Zm0,6.2h-1.5V80.4h1.5Zm1.5-9.1,3.1.6V88.3l-3.1,1.1Zm6.2,14.6-1.6.4v-14l1.6.3Zm6.8,2.2-.6-2.4.7-4.7,1.6-.6,1.6.6.7,4.7-.6,2.4Zm5.3-3.7-.7-4.6-3-1-3,1-.6,4.6-3.3-2.1V74.2l6.9-1.4,6.9,1.4v9.7Zm4.8-11.8,1.5-.3v14l-1.5-.4Zm6.1,15.2-3.1-1.1V73.5l3.1-.6Zm1.6-9h1.5V82h-1.5ZM167,64.8V85.1h-4.6V83.5h3V78.9h-3V77.4h3V72.8h-3V71.2h3V66.6h-3V62.5Zm-6.2,1.1H131.6V58.2h5.2l5.1,4.4h.2l3.8,1.6h.6l3.8-1.6h.3l5-4.4h5.2Zm0-11.9v2.6h-3.4l3.2-2.7Zm-10.1,6.4-.5-6.3,14.4-5.8Z" style="fill: #fff"/>
          <path d="M135.5,59.7a2.3,2.3,0,1,0,2.3,2.3A2.3,2.3,0,0,0,135.5,59.7Zm0,3.1a.8.8,0,1,1,.8-.8A.9.9,0,0,1,135.5,62.8Z" style="fill: #fff"/>
          <path d="M157,59.7a2.3,2.3,0,1,0,2.3,2.3A2.3,2.3,0,0,0,157,59.7Zm0,3.1a.8.8,0,1,1,.8-.8A.9.9,0,0,1,157,62.8Z" style="fill: #fff"/>
        </g>
        <g>
          <path d="M47.8,51.6c-.4.2-.9.5-1,.8s1.5,1.4,1.4,2.7a2.5,2.5,0,0,0,.5-1.5A2.9,2.9,0,0,0,47.8,51.6Z" style="fill: #fff"/>
          <path d="M30,57.5a3.1,3.1,0,0,0-3,3,3,3,0,0,0,3,2.9,2.9,2.9,0,0,0,2.9-2.9A3,3,0,0,0,30,57.5Z" style="fill: #fff"/>
          <circle cx="58.1" cy="60.6" r="2" style="fill: #fff"/>
          <path d="M30,55.8a4.7,4.7,0,1,0,4.7,4.7A4.7,4.7,0,0,0,30,55.8Zm0,8.3a3.6,3.6,0,1,1,3.6-3.6A3.6,3.6,0,0,1,30,64.1Z" style="fill: #fff"/>
          <circle cx="41.6" cy="60.6" r="1.1" style="fill: #fff"/>
          <path d="M46.1,53a4.7,4.7,0,0,0-1.9,2.4,2.7,2.7,0,0,0,1.9.8,2.6,2.6,0,0,0,1.9-.8A5.1,5.1,0,0,0,46.1,53Z" style="fill: #fff"/>
          <path d="M69.7,54c-1.8-1.2-.5-1.8-2.4-3.2S58.1,47,56.8,48.1A6,6,0,0,1,54,49.4H38.2a5.9,5.9,0,0,1-2.7-1.3c-1.3-1.1-8.8,1.3-10.6,2.7s-.6,2-2.3,3.2-6.5,16.8-6.5,16.8-6,17.4,4.8,19.5A23.3,23.3,0,0,0,25.8,86c2.3-2.7,6.7-6.6,9.1-6.6s10.8,0,11.2,0h0c.4,0,8.9-.1,11.2,0s6.9,3.9,9.1,6.6a23.3,23.3,0,0,0,4.9,4.3c10.9-2.1,4.8-19.5,4.8-19.5S71.5,55.1,69.7,54Zm-7.4-.3A2.7,2.7,0,0,1,65,56.4a2.8,2.8,0,0,1-2.7,2.8,2.9,2.9,0,0,1-2.8-2.8A2.8,2.8,0,0,1,62.3,53.7Zm-4.2,4.2a2.7,2.7,0,1,1-2.7,2.7A2.7,2.7,0,0,1,58.1,57.9Zm-7.4,1a1.7,1.7,0,0,1,0,3.4,1.7,1.7,0,0,1,0-3.4ZM24.6,60.5A5.4,5.4,0,1,1,30,65.8,5.4,5.4,0,0,1,24.6,60.5ZM42.5,72.1a.4.4,0,0,1-.4.3H39.6v2.5a.3.3,0,0,1-.3.3H36.7c-.2,0-.4-.1-.4-.3V72.4H33.8a.5.5,0,0,1-.3-.3V69.5a.4.4,0,0,1,.3-.4h2.5V66.6c0-.2.2-.3.4-.3h2.6a.3.3,0,0,1,.3.3v2.5h2.5a.4.4,0,0,1,.4.4Zm-.9-9.8a1.7,1.7,0,0,1,0-3.4,1.7,1.7,0,1,1,0,3.4Zm4.5-5.4a3.2,3.2,0,0,1-3.2-3.3,3.2,3.2,0,0,1,3.2-3.2,3.2,3.2,0,0,1,3.3,3.2A3.3,3.3,0,0,1,46.1,56.9Zm8.2,18.7a5.4,5.4,0,1,1,5.4-5.3A5.3,5.3,0,0,1,54.3,75.6Zm8-7.9a2.7,2.7,0,1,1,0-5.4,2.7,2.7,0,0,1,0,5.4Zm4.4-4.4a2.7,2.7,0,0,1,0-5.4,2.7,2.7,0,1,1,0,5.4Z" style="fill: #fff"/>
          <path d="M47.2,51.3a2,2,0,0,0-1.1-.3,2.3,2.3,0,0,0-1.1.3,1.6,1.6,0,0,1,1.1.4A1.6,1.6,0,0,1,47.2,51.3Z" style="fill: #fff"/>
          <circle cx="62.3" cy="65" r="2" style="fill: #fff"/>
          <path d="M44.5,51.7a2.3,2.3,0,0,0-1,1.9,2.7,2.7,0,0,0,.5,1.5c-.1-1.3,1.4-2.7,1.4-2.7A1.6,1.6,0,0,0,44.5,51.7Z" style="fill: #fff"/>
          <circle cx="66.7" cy="60.6" r="2" style="fill: #fff"/>
          <circle cx="50.7" cy="60.6" r="1.1" style="fill: #fff"/>
          <circle cx="62.3" cy="56.4" r="2" style="fill: #fff"/>
          <path d="M54.3,65.6A4.7,4.7,0,1,0,59,70.3,4.7,4.7,0,0,0,54.3,65.6Zm0,8.3a3.6,3.6,0,0,1-3.6-3.6,3.7,3.7,0,0,1,3.6-3.7A3.8,3.8,0,0,1,58,70.3,3.7,3.7,0,0,1,54.3,73.9Z" style="fill: #fff"/>
          <path d="M54.3,67.3a3,3,0,1,0,3,3A2.9,2.9,0,0,0,54.3,67.3Z" style="fill: #fff"/>
          <path d="M39,69.4V67.1H37v2.3a.4.4,0,0,1-.3.4H34.2v1.9h2.5a.4.4,0,0,1,.3.4v2.5h2V72.1c0-.2.1-.4.3-.4h2.5V69.8H39.3C39.1,69.8,39,69.6,39,69.4Z" style="fill: #fff"/>
        </g>
        <g>
          <path d="M63.5,20.1c0,2.5-1.7,4-4.7,4H55.4V28h-.8V16.2h4.2C61.8,16.2,63.5,17.7,63.5,20.1Zm-.8,0c0-2-1.4-3.2-3.9-3.2H55.4v6.4h3.4C61.3,23.3,62.7,22.2,62.7,20.1Z" style="fill: #f3f1e5"/>
          <path d="M73.1,24.6H66.3L64.8,28h-.9l5.4-11.8h.9L75.6,28h-.9Zm-.3-.7-3.1-6.8-3.1,6.8Z" style="fill: #f3f1e5"/>
          <path d="M76.5,26.4l.4-.6a5.8,5.8,0,0,0,3.9,1.5c2.4,0,3.4-1,3.4-2.3,0-3.6-7.4-1.4-7.4-5.8,0-1.7,1.3-3.1,4.2-3.1a6.9,6.9,0,0,1,3.6,1l-.4.7a6,6,0,0,0-3.2-1c-2.3,0-3.3,1.1-3.3,2.4,0,3.5,7.4,1.4,7.4,5.7,0,1.7-1.4,3.1-4.3,3.1A6,6,0,0,1,76.5,26.4Z" style="fill: #f3f1e5"/>
          <path d="M95.3,24.6H88.4L86.9,28H86l5.4-11.8h.9L97.7,28h-.9Zm-.4-.7-3.1-6.8-3,6.8Z" style="fill: #f3f1e5"/>
          <path d="M101.5,16.9H97.3v-.7h9.3v.7h-4.2V28h-.9Z" style="fill: #f3f1e5"/>
          <path d="M108.7,16.2h.9V28h-.9Z" style="fill: #f3f1e5"/>
          <path d="M121.8,27.2V28h-8.1V16.2h7.9v.7h-7.1v4.7h6.3v.7h-6.3v4.9Z" style="fill: #f3f1e5"/>
          <path d="M136.1,28V17.9l-5,8.5h-.4l-4.9-8.5V28h-.9V16.2h.8l5.2,9.1,5.3-9.1h.7V28Z" style="fill: #f3f1e5"/>
          <path d="M150,20.1c0,2.5-1.8,4-4.7,4h-3.4V28H141V16.2h4.3C148.2,16.2,150,17.7,150,20.1Zm-.9,0c0-2-1.3-3.2-3.8-3.2h-3.4v6.4h3.4C147.8,23.3,149.1,22.2,149.1,20.1Z" style="fill: #f3f1e5"/>
          <path d="M151.9,22.1a6.2,6.2,0,1,1,6.2,5.9A5.9,5.9,0,0,1,151.9,22.1Zm11.4,0a5.3,5.3,0,1,0-5.2,5.1A5,5,0,0,0,163.3,22.1Z" style="fill: #f3f1e5"/>
          <path d="M166,26.4l.4-.6a5.7,5.7,0,0,0,3.8,1.5c2.4,0,3.4-1,3.4-2.3,0-3.6-7.3-1.4-7.3-5.8,0-1.7,1.3-3.1,4.2-3.1a6.5,6.5,0,0,1,3.5,1l-.3.7a6.6,6.6,0,0,0-3.2-1c-2.3,0-3.4,1.1-3.4,2.4,0,3.5,7.4,1.4,7.4,5.7,0,1.7-1.3,3.1-4.2,3.1A5.7,5.7,0,0,1,166,26.4Z" style="fill: #f3f1e5"/>
        </g>
      </g>
    </g>
  </g>
</svg>
