<?xml version="1.0" encoding="UTF-8" standalone="no"?>
<svg xmlns="http://www.w3.org/2000/svg" viewBox="0 0 265.3 125.7">
 <title>Recurso 24</title>
 <g id="e446f864-a423-49ca-9e31-0611d5480141" data-name="Capa 2">
  <g id="a24e440e-738e-4e66-b2ff-84178eab000b" data-name="Capa 1">
   <rect width="265.3" fill="#171919" rx="12" height="125.69"/>
   <g fill="#f3f1e5">
    <path d="m24.8 106.2l-2.1 4.7h-0.3l-2.1-4.7h0.4l1.9 4.2 1.9-4.2z"/>
    <path d="m25.6 106.2h0.3v4.7h-0.3z"/>
    <path d="m27.6 106.2h1.8a2.3 2.3 0 0 1 2.5 2.3 2.3 2.3 0 0 1 -2.5 2.4h-1.8zm1.8 4.4a2.1 2.1 0 0 0 2.2 -2.1 2 2 0 0 0 -2.2 -2h-1.5v4.1z"/>
    <path d="m36.4 110.6v0.3h-3.3v-4.7h3.2v0.3h-2.8v1.8h2.5v0.3h-2.5v2z"/>
    <path d="m37.2 108.5a2.3 2.3 0 0 1 2.4 -2.4 2.4 2.4 0 1 1 0 4.8 2.3 2.3 0 0 1 -2.4 -2.4zm4.5 0a2.1 2.1 0 1 0 -2.1 2.1 2.1 2.1 0 0 0 2.1 -2.1z"/>
    <path d="m42.3 110.2l0.2-0.2a1.4 1.4 0 0 0 1.1 0.6c0.6 0 0.9-0.4 0.9-1.1v-3h-1.7v-0.3h2.1v3.3a1.2 1.2 0 0 1 -1.3 1.4 1.5 1.5 0 0 1 -1.3 -0.7z"/>
    <path d="m46.4 108.9v-2.7h0.4v2.7c0 1.1 0.5 1.7 1.5 1.7a1.5 1.5 0 0 0 1.6 -1.7v-2.7h0.3v2.7a1.9 1.9 0 1 1 -3.8 0z"/>
    <path d="m55 110.6v0.3h-3.2v-4.7h3.1v0.3h-2.8v1.8h2.6v0.3h-2.6v2z"/>
    <path d="m59.6 108.5h0.4v1.8a2.7 2.7 0 0 1 -1.7 0.6 2.4 2.4 0 1 1 0 -4.8 2.1 2.1 0 0 1 1.7 0.7l-0.2 0.2a2.1 2.1 0 1 0 -1.5 3.6 1.8 1.8 0 0 0 1.3 -0.4z"/>
    <path d="m61 108.5a2.4 2.4 0 0 1 2.5 -2.4 2.4 2.4 0 0 1 0 4.8 2.4 2.4 0 0 1 -2.5 -2.4zm4.6 0a2.1 2.1 0 1 0 -2.1 2.1 2.1 2.1 0 0 0 2.1 -2.1z"/>
    <path d="m66.6 110.3l0.2-0.3a2.4 2.4 0 0 0 1.6 0.6c0.9 0 1.3-0.4 1.3-0.9s-2.9-0.6-2.9-2.3 0.5-1.3 1.6-1.3a3.3 3.3 0 0 1 1.5 0.4l-0.2 0.3a2.8 2.8 0 0 0 -1.3 -0.4c-0.9 0-1.3 0.5-1.3 1s3 0.5 3 2.3-0.6 1.2-1.7 1.2a3.2 3.2 0 0 1 -1.8 -0.6z"/>
   </g>
   <g fill="#f3f1e5">
    <path d="m121.6 109.5h-2.7l-0.6 1.4h-0.4l2.2-4.7h0.3l2.2 4.7h-0.4zm-0.1-0.2-1.3-2.8-1.2 2.8z"/>
    <path d="m127.3 106.2v4.7h-0.3l-3.2-4.1v4.1h-0.4v-4.7h0.3l3.2 4.1v-4.1z"/>
    <path d="m128.9 106.2h0.3v4.7h-0.3z"/>
    <path d="m135.3 110.9v-4.1l-1.9 3.4h-0.2l-2-3.3v4h-0.3v-4.7h0.3l2.1 3.6 2.1-3.6h0.3v4.7z"/>
    <path d="m140.6 110.6v0.3h-3.3v-4.7h3.2v0.3h-2.8v1.8h2.5v0.3h-2.5v2z"/>
    <path d="m144.8 105.2h0.3l-2.2 6.3h-0.3z"/>
    <path d="m151.9 110.9v-4.1l-2 3.4h-0.1l-2-3.3v4h-0.4v-4.7h0.3l2.1 3.6 2.1-3.6h0.3v4.7z"/>
    <path d="m156.8 109.5h-2.7l-0.6 1.4h-0.4l2.2-4.7h0.3l2.2 4.7h-0.4zm-0.1-0.2-1.3-2.8-1.2 2.8z"/>
    <path d="m162.5 106.2v4.7h-0.3l-3.2-4.1v4.1h-0.4v-4.7h0.3l3.2 4.1v-4.1z"/>
    <path d="m167.5 108.5h0.3v1.8a2.4 2.4 0 0 1 -1.7 0.6 2.4 2.4 0 1 1 0 -4.8 2.1 2.1 0 0 1 1.7 0.7l-0.2 0.2a2.1 2.1 0 1 0 -1.5 3.6 2.3 2.3 0 0 0 1.4 -0.4z"/>
    <path d="m172.2 109.5h-2.7l-0.6 1.4h-0.4l2.2-4.7h0.3l2.2 4.7h-0.4zm-0.1-0.2-1.2-2.8-1.3 2.8z"/>
   </g>
   <g fill="#f3f1e5">
    <path d="m214.5 107.7c0 1-0.7 1.6-1.9 1.6h-1.3v1.6h-0.4v-4.7h1.7c1.2 0 1.9 0.6 1.9 1.5zm-0.4 0q0-1.2-1.5-1.2h-1.3v2.5h1.3c1 0 1.5-0.4 1.5-1.3z"/>
    <path d="m218.9 110.6v0.3h-3.2v-4.7h3.1v0.3h-2.8v1.8h2.5v0.3h-2.5v2z"/>
    <path d="m220.2 106.2h0.3v4.4h2.7v0.3h-3z"/>
    <path d="m224.8 105h0.5l-1 0.8h-0.4zm-0.7 1.2h0.3v4.7h-0.3z"/>
    <path d="m225.6 108.5a2.4 2.4 0 0 1 2.5 -2.4 2.3 2.3 0 0 1 1.7 0.7l-0.3 0.2a2 2 0 0 0 -1.4 -0.6 2.1 2.1 0 0 0 0 4.2 2 2 0 0 0 1.4 -0.6l0.3 0.2a2.3 2.3 0 0 1 -1.7 0.7 2.4 2.4 0 0 1 -2.5 -2.4z"/>
    <path d="m230.9 108.9v-2.7h0.3v2.7c0 1.1 0.6 1.7 1.5 1.7a1.5 1.5 0 0 0 1.6 -1.7v-2.7h0.3v2.7a1.8 1.8 0 0 1 -1.9 2c-1.1 0-1.8-0.7-1.8-2z"/>
    <path d="m236.2 106.2h0.4v4.4h2.7v0.3h-3.1z"/>
    <path d="m243.1 109.5h-2.7l-0.6 1.4h-0.4l2.2-4.7h0.3l2.2 4.7h-0.4zm-0.1-0.2-1.3-2.8-1.2 2.8z"/>
    <path d="m244.4 110.3l0.2-0.3a2.4 2.4 0 0 0 1.6 0.6c0.9 0 1.3-0.4 1.3-0.9s-2.9-0.6-2.9-2.3 0.5-1.3 1.6-1.3a3.3 3.3 0 0 1 1.5 0.4l-0.2 0.3a2.8 2.8 0 0 0 -1.3 -0.4c-0.9 0-1.3 0.5-1.3 1s3 0.5 3 2.3-0.6 1.2-1.7 1.2a3.2 3.2 0 0 1 -1.8 -0.6z"/>
   </g>
   <path d="m249 90.1v-6a1.5 1.5 0 0 0 1.5 -1.5v-1.5a1.5 1.5 0 0 0 -1.5 -1.5 3 3 0 0 0 -2.2 -2.9 2.8 2.8 0 0 0 -1 -0.9 2.9 2.9 0 0 0 -2.8 -2.2h-0.4a23.8 23.8 0 0 0 -7.1 -8.9v-9.8a2.3 2.3 0 0 0 -2.3 -2.3h-2.7a5.3 5.3 0 0 0 -4.9 -7.5h-2.7a3.2 3.2 0 0 0 -2.9 1.7 3.8 3.8 0 0 0 -2.5 3.6 3.3 3.3 0 0 0 0.4 1.7l0.2 0.5h-2.9a2.2 2.2 0 0 0 -2.2 2.3v12.2a12.4 12.4 0 0 0 -1.5 6v0.5a4.6 4.6 0 0 0 1.3 3.2 2.1 2.1 0 0 0 -1.3 2v4.5a2 2 0 0 0 0.6 1.5 2 2 0 0 0 -0.6 1.5v3a2.2 2.2 0 0 0 0.1 0.8h-4.6v1.5h46.4v-1.5zm-1.5 0h-1.5v-6h1.5zm-10.5-6h1.5v6h-1.5zm-17.3-1.5h1.5a2.2 2.2 0 0 1 2.3 2.2v5.3h-6v-5.3a2.2 2.2 0 0 1 2.2 -2.2zm16.7-5.2a2 2 0 0 0 -0.9 -0.7v-3.1a32.8 32.8 0 0 1 2 3.1 4.1 4.1 0 0 0 -1.1 0.7zm-2.4-0.8h-1.5v-6l1.5 1.4zm-3 13.5h-6v-5.3a2.2 2.2 0 0 1 2.2 -2.2h1.5a2.2 2.2 0 0 1 2.3 2.2zm1.5-12h2.2a0.8 0.8 0 0 1 0.8 0.7v0.8a1.5 1.5 0 0 0 -1.5 1.5v1.5a1.5 1.5 0 0 0 1.5 1.5h-3zm7.5 6h1.5v6h-1.5zm3 0h1.5v6h-1.5zm6-1.5h-13.5v-1.5h13.5zm-4.5-6.3v0.4l0.3 0.2a2.4 2.4 0 0 1 0.9 0.8l0.2 0.4h0.3a1.4 1.4 0 0 1 1.3 1.5h-10.5a1.4 1.4 0 0 1 1.3 -1.5h0.3l0.2-0.4a2.1 2.1 0 0 1 1.9 -1.1h0.7l0.2-0.5a1.5 1.5 0 0 1 1.4 -1 1.6 1.6 0 0 1 1.5 1.2zm-10.5-21.4v8.8a22.9 22.9 0 0 0 -6.2 -2.7l-0.4-1.3a3.8 3.8 0 0 0 2.1 -3.3v-2.3h3.6a0.8 0.8 0 0 1 0.9 0.8zm-6-2.3v1.5h-3v-1.5zm-4.5 1.5h-3v-1.5h3zm-3 1.5h3l0.7-0.2 0.8 0.2h3v0.8a2.2 2.2 0 0 1 -2.3 2.2h-3a2.2 2.2 0 0 1 -2.2 -2.2zm2.1 4.5h3.4l0.3 1.1a5.8 5.8 0 0 1 -4.1 0zm-2-12h0.4l0.2-0.3a1.8 1.8 0 0 1 1.7 -1.1h2.8a3.8 3.8 0 0 1 3.8 3.9 5.9 5.9 0 0 1 -0.2 1.3 1.6 1.6 0 0 0 -0.8 -0.6l-1.4-2-1.2 0.8 0.7 1.1h-1.2l-1.3-1.9-1.2 0.8 0.7 1.1h-3.1a1.6 1.6 0 0 0 -1.1 0.5v-0.2a1.9 1.9 0 0 1 -0.3 -1 2.4 2.4 0 0 1 1.6 -2.3zm-5.4 6h3.7v2.3a3.6 3.6 0 0 0 2.1 3.3l-0.5 1.3a12.6 12.6 0 0 0 -6.1 4v-10.1a0.7 0.7 0 0 1 0.8 -0.8zm-2.2 19a11 11 0 0 1 8.2 -10.7 6.3 6.3 0 0 0 3 0.7 6.7 6.7 0 0 0 3.1 -0.7 21.4 21.4 0 0 1 13.9 11.7 3.9 3.9 0 0 0 -0.8 1 4.3 4.3 0 0 0 -1.7 0.6 24.4 24.4 0 0 0 -6.2 -7v-1.1h-1.5v14.2a4.5 4.5 0 0 0 -2.3 -0.7h-1.5a3.8 3.8 0 0 0 -3 1.5 3.7 3.7 0 0 0 -3 -1.5h-1.5a4.1 4.1 0 0 0 -2.2 0.7v-3.7h3.1a2.3 2.3 0 0 0 2.1 1.5h3a2.3 2.3 0 0 0 2.3 -2.3v-6.7h1.5v-1.5h-4.5v-3h3v-1.5h-3a1.5 1.5 0 0 0 -1.5 1.5v3h-4.5v1.5h1.5v1.5h-3v-1.5h-1.5v1.5h-1.5v1.5h4.5v3h-3a3 3 0 0 1 -3 -3zm9-2.5h4.5v6.7a0.9 0.9 0 0 1 -0.8 0.8h-3.2a2.9 2.9 0 0 0 2.5 -2.9 3 3 0 0 0 -3 -3zm0 3a1.5 1.5 0 0 1 1.5 1.7 1.6 1.6 0 0 1 -1.6 1.3h-1.4v-3zm-6 10.5h-2.3a0.8 0.8 0 0 1 -0.7 -0.8v-4.5a0.7 0.7 0 0 1 0.7 -0.7h2.3zm-3 5.2v-3a0.7 0.7 0 0 1 0.7 -0.7h2.3v4.5h-2.3a0.8 0.8 0 0 1 -0.7 -0.8zm19.5 0.8v-4.5h3v3.7a0.9 0.9 0 0 1 -0.8 0.8z" fill="#fff"/>
   <g id="b65566e3-6818-4a42-a694-2f072b69cd80" fill="#fff" data-name="Gradient outline">
    <polygon points="142.3 75.1 142.6 76.6 146.3 75.9 150 76.6 150.3 75.1 146.3 74.3"/>
    <polygon points="142.3 78.2 142.6 79.7 146.3 78.9 150 79.7 150.3 78.2 146.3 77.4"/>
    <path d="m168.2 45.2l-11.6 4.6h-3.9l-0.3-3.9a0.8 0.8 0 0 0 -0.8 -0.7h-10.7a0.8 0.8 0 0 0 -0.8 0.7l-0.2 3.9h-4l-11.7-4.6a0.7 0.7 0 0 0 -1 0.4 1 1 0 0 0 0.2 0.9l7.3 6.3-0.6 0.3v7.7l-6.1 3v22.8h6.1v3.8a0.7 0.7 0 0 0 0.3 0.6 1 1 0 0 0 0.7 0.2l4.6-1.6 3-0.7a0.8 0.8 0 0 0 0.6 -0.8v-2.4l3.2 2.1 0.8 3.4h5.8l0.9-3.4 3.1-2.1v2.4a0.9 0.9 0 0 0 0.6 0.8l3.1 0.7 4.5 1.6a1.1 1.1 0 0 0 0.8 -0.2 0.7 0.7 0 0 0 0.3 -0.6v-3.8h6.1v-22.8l-6.1-3v-7.7l-0.6-0.3 7.2-6.3a0.8 0.8 0 0 0 0.1 -1.1 0.8 0.8 0 0 0 -0.9 -0.2zm-20.4 3a1.5 1.5 0 0 1 -1.5 1.5 1.6 1.6 0 0 1 -1.6 -1.5 1.5 1.5 0 0 1 1.6 -1.5 1.5 1.5 0 0 1 1.5 1.5zm-4.2-1.5a2.4 2.4 0 0 0 -0.4 1.5 3.1 3.1 0 0 0 3.1 3.1 3 3 0 0 0 3 -3.1 2.4 2.4 0 0 0 -0.4 -1.5h2l0.4 5.3-2.1 0.8h-5.9l-2-0.8 0.3-5.3zm5 7.6 0.3 2.6-2.6 1.2-2.6-1.2 0.2-2.6zm-5.1 4.2 2.4 1.1a0.9 0.9 0 0 0 0.7 0l2.4-1.1 0.3 3-3 1.2-3.1-1.2zm-1.1-4.4-0.6 6.3l-13.9-12.1zm-10.8-0.1h0.3l3.2 2.7h-3.5zm-6.1 31.1v-20.3l4.6-2.3v4.1h-3.1v4.6h3.1v1.6h-3.1v4.6h3.1v1.5h-3.1v4.6h3.1v1.6zm9.5-14.7l4.3 0.8 4.4-0.8 1.5-3h2.1l1.5 3 4.3 0.8 4.4-0.8 1.5-3h1.8v4l-4 0.7-2.9 0.6-7.7-1.5-7.6 1.5-3-0.6-4-0.7v-4h1.9zm0.2-3h8.3l-0.8 1.6-3.3 0.7-3.4-0.7zm13.8 0h8.3l-0.8 1.6-3.3 0.7-3.3-0.7zm13.4 0.8h1.5v1.5h-1.5zm0 6.1h1.5v1.5h-1.5zm-32.3-4.6h-1.5v-1.5h1.5zm0 6.1h-1.5v-1.5h1.5zm0 6.2h-1.5v-1.6h1.5zm1.5-9.1 3.1 0.6v14.8l-3.1 1.1zm6.2 14.6-1.6 0.4v-14l1.6 0.3zm6.8 2.2-0.6-2.4 0.7-4.7 1.6-0.6 1.6 0.6 0.7 4.7-0.6 2.4zm5.3-3.7-0.7-4.6-3-1-3 1-0.6 4.6-3.3-2.1v-9.7l6.9-1.4 6.9 1.4v9.7zm4.8-11.8 1.5-0.3v14l-1.5-0.4zm6.1 15.2-3.1-1.1v-14.8l3.1-0.6zm1.6-9h1.5v1.6h-1.5zm4.6-15.6v20.3h-4.6v-1.6h3v-4.6h-3v-1.5h3v-4.6h-3v-1.6h3v-4.6h-3v-4.1zm-6.2 1.1h-29.2v-7.7h5.2l5.1 4.4h0.2l3.8 1.6h0.6l3.8-1.6h0.3l5-4.4h5.2zm0-11.9v2.6h-3.4l3.2-2.7zm-10.1 6.4-0.5-6.3 14.4-5.8z"/>
    <path d="m135.5 59.7a2.3 2.3 0 1 0 2.3 2.3 2.3 2.3 0 0 0 -2.3 -2.3zm0 3.1a0.8 0.8 0 1 1 0.8 -0.8 0.9 0.9 0 0 1 -0.8 0.8z"/>
    <path d="m157 59.7a2.3 2.3 0 1 0 2.3 2.3 2.3 2.3 0 0 0 -2.3 -2.3zm0 3.1a0.8 0.8 0 1 1 0.8 -0.8 0.9 0.9 0 0 1 -0.8 0.8z"/>
   </g>
   <g fill="#fff">
    <path d="m47.8 51.6c-0.4 0.2-0.9 0.5-1 0.8s1.5 1.4 1.4 2.7a2.5 2.5 0 0 0 0.5 -1.5 2.9 2.9 0 0 0 -0.9 -2z"/>
    <path d="m30 57.5a3.1 3.1 0 0 0 -3 3 3 3 0 0 0 3 2.9 2.9 2.9 0 0 0 2.9 -2.9 3 3 0 0 0 -2.9 -3z"/>
    <circle cy="60.6" cx="58.1" r="2"/>
    <path d="m30 55.8a4.7 4.7 0 1 0 4.7 4.7 4.7 4.7 0 0 0 -4.7 -4.7zm0 8.3a3.6 3.6 0 1 1 3.6 -3.6 3.6 3.6 0 0 1 -3.6 3.6z"/>
    <circle cy="60.6" cx="41.6" r="1.1"/>
    <path d="m46.1 53a4.7 4.7 0 0 0 -1.9 2.4 2.7 2.7 0 0 0 1.9 0.8 2.6 2.6 0 0 0 1.9 -0.8 5.1 5.1 0 0 0 -1.9 -2.4z"/>
    <path d="m69.7 54c-1.8-1.2-0.5-1.8-2.4-3.2s-9.2-3.8-10.5-2.7a6 6 0 0 1 -2.8 1.3h-15.8a5.9 5.9 0 0 1 -2.7 -1.3c-1.3-1.1-8.8 1.3-10.6 2.7s-0.6 2-2.3 3.2-6.5 16.8-6.5 16.8-6 17.4 4.8 19.5a23.3 23.3 0 0 0 4.9 -4.3c2.3-2.7 6.7-6.6 9.1-6.6s10.8 0 11.2 0c0.4 0 8.9-0.1 11.2 0s6.9 3.9 9.1 6.6a23.3 23.3 0 0 0 4.9 4.3c10.9-2.1 4.8-19.5 4.8-19.5s-4.6-15.7-6.4-16.8zm-7.4-0.3a2.7 2.7 0 0 1 2.7 2.7 2.8 2.8 0 0 1 -2.7 2.8 2.9 2.9 0 0 1 -2.8 -2.8 2.8 2.8 0 0 1 2.8 -2.7zm-4.2 4.2a2.7 2.7 0 1 1 -2.7 2.7 2.7 2.7 0 0 1 2.7 -2.7zm-7.4 1a1.7 1.7 0 0 1 0 3.4 1.7 1.7 0 0 1 0 -3.4zm-26.1 1.6a5.4 5.4 0 1 1 5.4 5.3 5.4 5.4 0 0 1 -5.4 -5.3zm17.9 11.6a0.4 0.4 0 0 1 -0.4 0.3h-2.5v2.5a0.3 0.3 0 0 1 -0.3 0.3h-2.6c-0.2 0-0.4-0.1-0.4-0.3v-2.5h-2.5a0.5 0.5 0 0 1 -0.3 -0.3v-2.6a0.4 0.4 0 0 1 0.3 -0.4h2.5v-2.5c0-0.2 0.2-0.3 0.4-0.3h2.6a0.3 0.3 0 0 1 0.3 0.3v2.5h2.5a0.4 0.4 0 0 1 0.4 0.4zm-0.9-9.8a1.7 1.7 0 0 1 0 -3.4 1.7 1.7 0 1 1 0 3.4zm4.5-5.4a3.2 3.2 0 0 1 -3.2 -3.3 3.2 3.2 0 0 1 3.2 -3.2 3.2 3.2 0 0 1 3.3 3.2 3.3 3.3 0 0 1 -3.3 3.3zm8.2 18.7a5.4 5.4 0 1 1 5.4 -5.3 5.3 5.3 0 0 1 -5.4 5.3zm8-7.9a2.7 2.7 0 1 1 0 -5.4 2.7 2.7 0 0 1 0 5.4zm4.4-4.4a2.7 2.7 0 0 1 0 -5.4 2.7 2.7 0 1 1 0 5.4z"/>
    <path d="m47.2 51.3a2 2 0 0 0 -1.1 -0.3 2.3 2.3 0 0 0 -1.1 0.3 1.6 1.6 0 0 1 1.1 0.4 1.6 1.6 0 0 1 1.1 -0.4z"/>
    <circle cy="65" cx="62.3" r="2"/>
    <path d="m44.5 51.7a2.3 2.3 0 0 0 -1 1.9 2.7 2.7 0 0 0 0.5 1.5c-0.1-1.3 1.4-2.7 1.4-2.7a1.6 1.6 0 0 0 -0.9 -0.7z"/>
    <circle cy="60.6" cx="66.7" r="2"/>
    <circle cy="60.6" cx="50.7" r="1.1"/>
    <circle cy="56.4" cx="62.3" r="2"/>
    <path d="m54.3 65.6a4.7 4.7 0 1 0 4.7 4.7 4.7 4.7 0 0 0 -4.7 -4.7zm0 8.3a3.6 3.6 0 0 1 -3.6 -3.6 3.7 3.7 0 0 1 3.6 -3.7 3.8 3.8 0 0 1 3.7 3.7 3.7 3.7 0 0 1 -3.7 3.6z"/>
    <path d="m54.3 67.3a3 3 0 1 0 3 3 2.9 2.9 0 0 0 -3 -3z"/>
    <path d="m39 69.4v-2.3h-2v2.3a0.4 0.4 0 0 1 -0.3 0.4h-2.5v1.9h2.5a0.4 0.4 0 0 1 0.3 0.4v2.5h2v-2.5c0-0.2 0.1-0.4 0.3-0.4h2.5v-1.9h-2.5c-0.2 0-0.3-0.2-0.3-0.4z"/>
   </g>
   <g fill="#f3f1e5">
    <path d="m63.5 20.1c0 2.5-1.7 4-4.7 4h-3.4v3.9h-0.8v-11.8h4.2c3 0 4.7 1.5 4.7 3.9zm-0.8 0c0-2-1.4-3.2-3.9-3.2h-3.4v6.4h3.4c2.5 0 3.9-1.1 3.9-3.2z"/>
    <path d="m73.1 24.6h-6.8l-1.5 3.4h-0.9l5.4-11.8h0.9l5.4 11.8h-0.9zm-0.3-0.7-3.1-6.8-3.1 6.8z"/>
    <path d="m76.5 26.4l0.4-0.6a5.8 5.8 0 0 0 3.9 1.5c2.4 0 3.4-1 3.4-2.3 0-3.6-7.4-1.4-7.4-5.8 0-1.7 1.3-3.1 4.2-3.1a6.9 6.9 0 0 1 3.6 1l-0.4 0.7a6 6 0 0 0 -3.2 -1c-2.3 0-3.3 1.1-3.3 2.4 0 3.5 7.4 1.4 7.4 5.7 0 1.7-1.4 3.1-4.3 3.1a6 6 0 0 1 -4.3 -1.6z"/>
    <path d="m95.3 24.6h-6.9l-1.5 3.4h-0.9l5.4-11.8h0.9l5.4 11.8h-0.9zm-0.4-0.7-3.1-6.8-3 6.8z"/>
    <path d="m101.5 16.9h-4.2v-0.7h9.3v0.7h-4.2v11.1h-0.9z"/>
    <path d="m108.7 16.2h0.9v11.8h-0.9z"/>
    <path d="m121.8 27.2v0.8h-8.1v-11.8h7.9v0.7h-7.1v4.7h6.3v0.7h-6.3v4.9z"/>
    <path d="m136.1 28v-10.1l-5 8.5h-0.4l-4.9-8.5v10.1h-0.9v-11.8h0.8l5.2 9.1 5.3-9.1h0.7v11.8z"/>
    <path d="m150 20.1c0 2.5-1.8 4-4.7 4h-3.4v3.9h-0.9v-11.8h4.3c2.9 0 4.7 1.5 4.7 3.9zm-0.9 0c0-2-1.3-3.2-3.8-3.2h-3.4v6.4h3.4c2.5 0 3.8-1.1 3.8-3.2z"/>
    <path d="m151.9 22.1a6.2 6.2 0 1 1 6.2 5.9 5.9 5.9 0 0 1 -6.2 -5.9zm11.4 0a5.3 5.3 0 1 0 -5.2 5.1 5 5 0 0 0 5.2 -5.1z"/>
    <path d="m166 26.4l0.4-0.6a5.7 5.7 0 0 0 3.8 1.5c2.4 0 3.4-1 3.4-2.3 0-3.6-7.3-1.4-7.3-5.8 0-1.7 1.3-3.1 4.2-3.1a6.5 6.5 0 0 1 3.5 1l-0.3 0.7a6.6 6.6 0 0 0 -3.2 -1c-2.3 0-3.4 1.1-3.4 2.4 0 3.5 7.4 1.4 7.4 5.7 0 1.7-1.3 3.1-4.2 3.1a5.7 5.7 0 0 1 -4.3 -1.6z"/>
   </g>
  </g>
 </g>
</svg>
