<svg xmlns="http://www.w3.org/2000/svg" viewBox="0 0 698.1 91.3">
  <title>Recurso 8</title>
  <g id="a0ee177a-8dbe-4d7e-914c-ff44706c57fd" data-name="Capa 2">
    <g id="f35a4dee-aeec-48f9-81b1-23797b488e19" data-name="Capa 1">
      <g>
        <path d="M.5,3.5A1.7,1.7,0,0,1,2.2,1.8h41c14.2,0,25.7,9.9,25.7,30.9s-11.5,31-25.7,31H24.8V86.5a1.7,1.7,0,0,1-1.7,1.7H2.2A1.7,1.7,0,0,1,.5,86.5ZM44.4,32.7c0-6.7-4-10.7-8.9-10.7H25.6a.8.8,0,0,0-.8.8V42.7a.8.8,0,0,0,.8.8h9.9C40.4,43.5,44.4,39.4,44.4,32.7Z" style="fill: none;stroke: #f2f2f2;stroke-miterlimit: 10"/>
        <path d="M162.9,45.6c0,25-20.5,45.2-45.7,45.2S71.4,70.6,71.4,45.6,91.9.5,117.2.5,162.9,20.7,162.9,45.6Zm-24.8,0a21,21,0,1,0-20.9,20.7A20.8,20.8,0,0,0,138.1,45.6Z" style="fill: none;stroke: #f2f2f2;stroke-miterlimit: 10"/>
        <path d="M234.3,87.8a1.7,1.7,0,0,1-1.7,1.7H210.2a1.7,1.7,0,0,1-1.7-1.7c-.5-14.1-7.6-21.4-18.7-22.1V87.8a1.7,1.7,0,0,1-1.7,1.7H167.2a1.8,1.8,0,0,1-1.7-1.7V3.5a1.7,1.7,0,0,1,1.7-1.7h41c14.2,0,25.7,9.9,25.7,30.9,0,12.4-4,20.9-10.2,25.8C230,65.7,234,75.5,234.3,87.8ZM189.8,42.7a.8.8,0,0,0,.8.8h9.9c4.9,0,8.9-3.8,8.9-10s-4-10-8.9-10h-9.9a.8.8,0,0,0-.8.8Z" style="fill: none;stroke: #f2f2f2;stroke-miterlimit: 10"/>
        <path d="M302.5,20.7a1.8,1.8,0,0,1-1.7,1.7h-19V86.5a1.6,1.6,0,0,1-1.7,1.7H259.2a1.6,1.6,0,0,1-1.6-1.7V22.4h-19a1.8,1.8,0,0,1-1.7-1.7V3.5a1.6,1.6,0,0,1,1.7-1.7h62.2a1.7,1.7,0,0,1,1.7,1.7Z" style="fill: none;stroke: #f2f2f2;stroke-miterlimit: 10"/>
        <path d="M343.2,2.9l30.6,82.5a1.3,1.3,0,0,1,.1.6v.5a1.7,1.7,0,0,1-1.7,1.7H351a1.7,1.7,0,0,1-1.6-1.1l-4.6-12.4H317.2l-4.6,12.4a1.7,1.7,0,0,1-1.6,1.1H289.8a1.6,1.6,0,0,1-1.7-1.7V86a1.3,1.3,0,0,1,.1-.6L318.8,2.9a1.5,1.5,0,0,1,1.5-1.1h21.3A1.6,1.6,0,0,1,343.2,2.9ZM337,53.5l-6-16-5.9,16Z" style="fill: none;stroke: #f2f2f2;stroke-miterlimit: 10"/>
        <path d="M432,3.5V20.7a1.7,1.7,0,0,1-1.7,1.7H400.7V34.7h25.7a1.8,1.8,0,0,1,1.7,1.7V53.6a1.6,1.6,0,0,1-1.7,1.7H400.7V86.5a1.6,1.6,0,0,1-1.6,1.7H378.2a1.6,1.6,0,0,1-1.7-1.7V3.5a1.6,1.6,0,0,1,1.7-1.7h52.1A1.7,1.7,0,0,1,432,3.5Z" style="fill: none;stroke: #f2f2f2;stroke-miterlimit: 10"/>
        <path d="M522.6,45.6c0,25-20.5,45.2-45.8,45.2S431,70.6,431,45.6,451.5.5,476.8.5,522.6,20.7,522.6,45.6Zm-24.8,0a21,21,0,1,0-21,20.7A20.8,20.8,0,0,0,497.8,45.6Z" style="fill: none;stroke: #f2f2f2;stroke-miterlimit: 10"/>
        <path d="M575.1,88.2H526.8a1.6,1.6,0,0,1-1.6-1.7V3.5a1.6,1.6,0,0,1,1.6-1.7h20.9a1.7,1.7,0,0,1,1.7,1.7V68.1h25.7a1.7,1.7,0,0,1,1.7,1.7V86.5A1.7,1.7,0,0,1,575.1,88.2Z" style="fill: none;stroke: #f2f2f2;stroke-miterlimit: 10"/>
        <path d="M580.9,88.2a1.6,1.6,0,0,1-1.6-1.7V3.5a1.6,1.6,0,0,1,1.6-1.7h20.9a1.6,1.6,0,0,1,1.7,1.7v83a1.6,1.6,0,0,1-1.7,1.7Z" style="fill: none;stroke: #f2f2f2;stroke-miterlimit: 10"/>
        <path d="M697.6,45.6c0,25-20.5,45.2-45.8,45.2s-45.7-20.2-45.7-45.2S626.6.5,651.8.5,697.6,20.7,697.6,45.6Zm-24.8,0a21,21,0,1,0-21,20.7A20.8,20.8,0,0,0,672.8,45.6Z" style="fill: none;stroke: #f2f2f2;stroke-miterlimit: 10"/>
      </g>
    </g>
  </g>
</svg>
