<?xml version="1.0" encoding="UTF-8" standalone="no"?>
<svg xmlns="http://www.w3.org/2000/svg" viewBox="0 0 698.1 91.3">
 <title>Recurso 8</title>
 <g id="a0ee177a-8dbe-4d7e-914c-ff44706c57fd" data-name="Capa 2">
  <g id="f35a4dee-aeec-48f9-81b1-23797b488e19" data-name="Capa 1">
   <g stroke="#f2f2f2" stroke-miterlimit="10" fill="none">
    <path d="m0.5 3.5a1.7 1.7 0 0 1 1.7 -1.7h41c14.2 0 25.7 9.9 25.7 30.9s-11.5 31-25.7 31h-18.4v22.8a1.7 1.7 0 0 1 -1.7 1.7h-20.9a1.7 1.7 0 0 1 -1.7 -1.7zm43.9 29.2c0-6.7-4-10.7-8.9-10.7h-9.9a0.8 0.8 0 0 0 -0.8 0.8v19.9a0.8 0.8 0 0 0 0.8 0.8h9.9c4.9 0 8.9-4.1 8.9-10.8z"/>
    <path d="m162.9 45.6c0 25-20.5 45.2-45.7 45.2s-45.8-20.2-45.8-45.2 20.5-45.1 45.8-45.1 45.7 20.2 45.7 45.1zm-24.8 0a21 21 0 1 0 -20.9 20.7 20.8 20.8 0 0 0 20.9 -20.7z"/>
    <path d="m234.3 87.8a1.7 1.7 0 0 1 -1.7 1.7h-22.4a1.7 1.7 0 0 1 -1.7 -1.7c-0.5-14.1-7.6-21.4-18.7-22.1v22.1a1.7 1.7 0 0 1 -1.7 1.7h-20.9a1.8 1.8 0 0 1 -1.7 -1.7v-84.3a1.7 1.7 0 0 1 1.7 -1.7h41c14.2 0 25.7 9.9 25.7 30.9 0 12.4-4 20.9-10.2 25.8 6.3 7.2 10.3 17 10.6 29.3zm-44.5-45.1a0.8 0.8 0 0 0 0.8 0.8h9.9c4.9 0 8.9-3.8 8.9-10s-4-10-8.9-10h-9.9a0.8 0.8 0 0 0 -0.8 0.8z"/>
    <path d="m302.5 20.7a1.8 1.8 0 0 1 -1.7 1.7h-19v64.1a1.6 1.6 0 0 1 -1.7 1.7h-20.9a1.6 1.6 0 0 1 -1.6 -1.7v-64.1h-19a1.8 1.8 0 0 1 -1.7 -1.7v-17.2a1.6 1.6 0 0 1 1.7 -1.7h62.2a1.7 1.7 0 0 1 1.7 1.7z"/>
    <path d="m343.2 2.9l30.6 82.5a1.3 1.3 0 0 1 0.1 0.6v0.5a1.7 1.7 0 0 1 -1.7 1.7h-21.2a1.7 1.7 0 0 1 -1.6 -1.1l-4.6-12.4h-27.6l-4.6 12.4a1.7 1.7 0 0 1 -1.6 1.1h-21.2a1.6 1.6 0 0 1 -1.7 -1.7v-0.5a1.3 1.3 0 0 1 0.1 -0.6l30.6-82.5a1.5 1.5 0 0 1 1.5 -1.1h21.3a1.6 1.6 0 0 1 1.6 1.1zm-6.2 50.6l-6-16-5.9 16z"/>
    <path d="m432 3.5v17.2a1.7 1.7 0 0 1 -1.7 1.7h-29.6v12.3h25.7a1.8 1.8 0 0 1 1.7 1.7v17.2a1.6 1.6 0 0 1 -1.7 1.7h-25.7v31.2a1.6 1.6 0 0 1 -1.6 1.7h-20.9a1.6 1.6 0 0 1 -1.7 -1.7v-83a1.6 1.6 0 0 1 1.7 -1.7h52.1a1.7 1.7 0 0 1 1.7 1.7z"/>
    <path d="m522.6 45.6c0 25-20.5 45.2-45.8 45.2s-45.8-20.2-45.8-45.2 20.5-45.1 45.8-45.1 45.8 20.2 45.8 45.1zm-24.8 0a21 21 0 1 0 -21 20.7 20.8 20.8 0 0 0 21 -20.7z"/>
    <path d="m575.1 88.2h-48.3a1.6 1.6 0 0 1 -1.6 -1.7v-83a1.6 1.6 0 0 1 1.6 -1.7h20.9a1.7 1.7 0 0 1 1.7 1.7v64.6h25.7a1.7 1.7 0 0 1 1.7 1.7v16.7a1.7 1.7 0 0 1 -1.7 1.7z"/>
    <path d="m580.9 88.2a1.6 1.6 0 0 1 -1.6 -1.7v-83a1.6 1.6 0 0 1 1.6 -1.7h20.9a1.6 1.6 0 0 1 1.7 1.7v83a1.6 1.6 0 0 1 -1.7 1.7z"/>
    <path d="m697.6 45.6c0 25-20.5 45.2-45.8 45.2s-45.7-20.2-45.7-45.2 20.5-45.1 45.7-45.1 45.8 20.2 45.8 45.1zm-24.8 0a21 21 0 1 0 -21 20.7 20.8 20.8 0 0 0 21 -20.7z"/>
   </g>
  </g>
 </g>
</svg>
