<svg xmlns="http://www.w3.org/2000/svg" viewBox="0 0 973.4 413.6">
  <title>recibido</title>
  <g id="aec9ac54-12fc-4789-b8cf-66e011e87b89" data-name="Capa 2">
    <g id="e8b25ed1-bbd9-4adc-9788-588a05985aca" data-name="Capa 1">
      <g>
        <path d="M295.9,3h22.5V61.3h24.2V3H365V146.1H342.6V81.7H318.4v64.4H295.9Z" style="fill: none;stroke: #fff;stroke-miterlimit: 10;stroke-width: 2px"/>
        <path d="M389,138.8c-5.9-6.3-8.8-15.1-8.8-26.6V37c0-11.5,2.9-20.3,8.8-26.6S403.3,1,414.3,1s19.5,3.1,25.4,9.4,8.7,15.1,8.7,26.6v75.2c0,11.5-2.9,20.3-8.7,26.6s-14.4,9.4-25.4,9.4S394.8,145,389,138.8Zm37-25.2V35.5q0-14.1-11.7-14.1c-7.8,0-11.6,4.7-11.6,14.1v78.1c0,9.4,3.8,14.1,11.6,14.1S426,123,426,113.6Z" style="fill: none;stroke: #fff;stroke-miterlimit: 10;stroke-width: 2px"/>
        <path d="M463.6,3h22.5V125.7h37v20.4H463.6Z" style="fill: none;stroke: #fff;stroke-miterlimit: 10;stroke-width: 2px"/>
        <path d="M552.1,3h30.4l23.3,143.1H583.4l-4.1-28.4v.4H553.7l-4.1,28H528.8Zm24.5,95.7L566.6,28h-.4l-9.8,70.7Z" style="fill: none;stroke: #fff;stroke-miterlimit: 10;stroke-width: 2px"/>
        <path d="M618.5,62.7V3H641V62.7l-2.9,45.6H621.4Zm.4,61.8h21.7v21.6H618.9Z" style="fill: none;stroke: #fff;stroke-miterlimit: 10;stroke-width: 2px"/>
        <path d="M72.3,243.9c-3-3.2-4.5-7.9-4.5-14V190.5c0-6.1,1.5-10.8,4.5-14s7.3-4.9,13.1-4.9,10,1.6,13,4.9,4.5,7.9,4.5,14v6.4H91.8v-7.2c0-4.9-2-7.4-6.1-7.4s-6.1,2.5-6.1,7.4v41.1c0,4.9,2,7.3,6.1,7.3s6.1-2.4,6.1-7.3V216.1H85.9V205.4h17v24.5c0,6.1-1.5,10.8-4.5,14s-7.3,4.9-13,4.9S75.3,247.2,72.3,243.9Z" style="fill: #fff"/>
        <path d="M110.6,172.7H128c6.1,0,10.6,1.4,13.3,4.2s4.2,7.2,4.2,13v4.7c0,7.7-2.5,12.7-7.7,14.8v.2a9.1,9.1,0,0,1,6.1,5.2,28.3,28.3,0,0,1,1.7,10.6v13.2c0,2.2.1,3.9.2,5.2a12.5,12.5,0,0,0,1.1,3.9h-12a24.6,24.6,0,0,1-.9-3.4c-.1-1.1-.2-3-.2-5.8V224.8c0-3.4-.5-5.8-1.6-7.2s-3-2-5.8-2h-4v32.1H110.6Zm16,32.1A7.3,7.3,0,0,0,132,203c1.1-1.2,1.7-3.2,1.7-6.1v-5.8c0-2.7-.5-4.7-1.4-5.9a5.6,5.6,0,0,0-4.6-1.8h-5.3v21.4Z" style="fill: #fff"/>
        <path d="M162.9,172.7h16l12.2,75H179.3l-2.1-14.9v.3H163.8l-2.2,14.6H150.7Zm12.9,50.2-5.3-37.1h-.2l-5.2,37.1Z" style="fill: #fff"/>
        <path d="M200.3,244c-3-3.2-4.5-7.8-4.5-13.6V190.1c0-5.9,1.5-10.5,4.5-13.7s7.2-4.8,12.9-4.8,9.9,1.6,12.9,4.8,4.5,7.8,4.5,13.7V198H219.4v-8.7c0-4.6-2-7-5.9-7s-5.9,2.4-5.9,7v41.9c0,4.6,2,6.9,5.9,6.9s5.9-2.3,5.9-6.9V219.8h11.2v10.6c0,5.8-1.5,10.4-4.5,13.6s-7.3,4.8-12.9,4.8S203.2,247.2,200.3,244Z" style="fill: #fff"/>
        <path d="M237.6,172.7h11.8v75H237.6Z" style="fill: #fff"/>
        <path d="M267.3,172.7h16l12.3,75H283.8l-2.2-14.9v.3H268.2l-2.1,14.6h-11Zm12.9,50.2L275,185.8h-.3l-5.1,37.1Z" style="fill: #fff"/>
        <path d="M303.3,243.9c-3-3.2-4.4-7.9-4.4-14v-4.2H310v5.1c0,4.9,2.1,7.3,6.1,7.3a5.7,5.7,0,0,0,4.6-1.8,8.8,8.8,0,0,0,1.6-5.7,16,16,0,0,0-2.2-8.3c-1.4-2.4-4.1-5.3-7.9-8.7s-8.3-8.1-10.2-11.6a24.2,24.2,0,0,1-2.9-11.7q0-9,4.5-13.8c3-3.3,7.4-4.9,13.1-4.9s9.9,1.6,12.8,4.9,4.3,7.9,4.3,14v3.1H322.7v-3.9c0-2.5-.5-4.4-1.5-5.6a5.4,5.4,0,0,0-4.4-1.8c-3.9,0-5.9,2.4-5.9,7.2a13.7,13.7,0,0,0,2.2,7.6c1.5,2.4,4.1,5.2,8,8.6s8.3,8.2,10.2,11.7a26.6,26.6,0,0,1,2.8,12.3c0,6.2-1.6,10.9-4.6,14.2s-7.5,4.9-13.2,4.9S306.2,247.2,303.3,243.9Z" style="fill: #fff"/>
        <path d="M358,172.7h17.3c5.9,0,10.3,1.5,13.2,4.7s4.4,7.8,4.4,13.8v7.4c0,6.1-1.4,10.7-4.4,13.9s-7.3,4.7-13.2,4.7h-5.5v30.5H358Zm17.3,33.8a5.6,5.6,0,0,0,4.4-1.7c.9-1,1.4-2.8,1.4-5.4v-8.9c0-2.6-.5-4.4-1.4-5.5a5.5,5.5,0,0,0-4.4-1.6h-5.5v23.1Z" style="fill: #fff"/>
        <path d="M403.1,243.9c-3.1-3.3-4.6-8-4.6-14V190.5c0-6,1.5-10.7,4.6-14s7.5-4.9,13.3-4.9,10.2,1.6,13.3,4.9,4.6,8,4.6,14v39.4c0,6-1.5,10.7-4.6,14s-7.5,4.9-13.3,4.9S406.2,247.2,403.1,243.9Zm19.4-13.2v-41c0-4.9-2-7.4-6.1-7.4s-6.1,2.5-6.1,7.4v41c0,4.9,2,7.4,6.1,7.4S422.5,235.6,422.5,230.7Z" style="fill: #fff"/>
        <path d="M442.3,172.7h17.4c6.1,0,10.5,1.4,13.3,4.2s4.2,7.2,4.2,13v4.7c0,7.7-2.6,12.7-7.7,14.8v.2a9.1,9.1,0,0,1,6.1,5.2,28.3,28.3,0,0,1,1.7,10.6v13.2c0,2.2.1,3.9.2,5.2a12.5,12.5,0,0,0,1.1,3.9h-12a24.6,24.6,0,0,1-.9-3.4c-.1-1.1-.2-3-.2-5.8V224.8c0-3.4-.5-5.8-1.6-7.2s-3.1-2-5.8-2h-4v32.1H442.3Zm16,32.1a7.3,7.3,0,0,0,5.4-1.8c1.1-1.2,1.7-3.2,1.7-6.1v-5.8c0-2.7-.5-4.7-1.4-5.9a5.6,5.6,0,0,0-4.6-1.8h-5.3v21.4Z" style="fill: #fff"/>
        <path d="M502.6,172.7H520c5.9,0,10.3,1.5,13.2,4.7s4.4,7.8,4.4,13.8v7.4c0,6.1-1.5,10.7-4.4,13.9s-7.3,4.7-13.2,4.7h-5.6v30.5H502.6ZM520,206.5a5.7,5.7,0,0,0,4.4-1.7c.9-1,1.4-2.8,1.4-5.4v-8.9c0-2.6-.5-4.4-1.4-5.5a5.7,5.7,0,0,0-4.4-1.6h-5.6v23.1Z" style="fill: #fff"/>
        <path d="M547.8,243.9c-3.1-3.3-4.6-8-4.6-14V190.5c0-6,1.5-10.7,4.6-14s7.5-4.9,13.3-4.9,10.2,1.6,13.3,4.9,4.6,8,4.6,14v39.4c0,6-1.5,10.7-4.6,14s-7.5,4.9-13.3,4.9S550.9,247.2,547.8,243.9Zm19.4-13.2v-41c0-4.9-2-7.4-6.1-7.4s-6.1,2.5-6.1,7.4v41c0,4.9,2,7.4,6.1,7.4S567.2,235.6,567.2,230.7Z" style="fill: #fff"/>
        <path d="M586.9,172.7h14.8l11.5,44.9h.2V172.7h10.5v75H611.8l-14.1-54.8h-.3v54.8H586.9Z" style="fill: #fff"/>
        <path d="M632.7,172.7h32.2v10.7H644.5v19.8h16.2V214H644.5v23h20.4v10.7H632.7Z" style="fill: #fff"/>
        <path d="M671.6,172.7h17.5c6.1,0,10.5,1.4,13.3,4.2s4.2,7.2,4.2,13v4.7c0,7.7-2.6,12.7-7.7,14.8v.2a9,9,0,0,1,6,5.2,26.3,26.3,0,0,1,1.8,10.6v13.2c0,2.2.1,3.9.2,5.2a12.5,12.5,0,0,0,1.1,3.9H696a24.6,24.6,0,0,1-.9-3.4c-.1-1.1-.2-3-.2-5.8V224.8c0-3.4-.5-5.8-1.6-7.2s-3.1-2-5.8-2h-4.1v32.1H671.6Zm16.1,32.1c2.4,0,4.2-.6,5.3-1.8s1.8-3.2,1.8-6.1v-5.8c0-2.7-.5-4.7-1.4-5.9a5.6,5.6,0,0,0-4.6-1.8h-5.4v21.4Z" style="fill: #fff"/>
        <path d="M723.9,183.4H711.5V172.7H748v10.7H735.7v64.3H723.9Z" style="fill: #fff"/>
        <path d="M753.7,172.7h32.2v10.7H765.5v19.8h16.2V214H765.5v23h20.4v10.7H753.7Z" style="fill: #fff"/>
        <path d="M809.8,172.7h32.1v10.7H821.6v19.8h16.2V214H821.6v23h20.3v10.7H809.8Z" style="fill: #fff"/>
        <path d="M848.7,172.7h14.8L875,217.6h.2V172.7h10.5v75H873.6l-14.2-54.8h-.2v54.8H848.7Z" style="fill: #fff"/>
        <path d="M12.3,345.6c-3-3.2-4.5-7.8-4.5-13.6V291.7c0-5.9,1.5-10.4,4.5-13.7s7.2-4.8,12.9-4.8,10,1.6,12.9,4.8,4.5,7.8,4.5,13.7v7.9H31.4v-8.7c0-4.6-1.9-7-5.9-7s-5.9,2.4-5.9,7v41.9c0,4.6,2,6.9,5.9,6.9s5.9-2.3,5.9-6.9V321.4H42.6V332c0,5.8-1.5,10.4-4.5,13.6s-7.3,4.8-12.9,4.8S15.2,348.8,12.3,345.6Z" style="fill: #fff"/>
        <path d="M53.6,345.5c-3.1-3.3-4.6-7.9-4.6-13.9V292.1c0-6,1.5-10.7,4.6-14s7.5-4.9,13.3-4.9,10.2,1.7,13.3,4.9,4.6,8,4.6,14v39.5c0,6-1.5,10.6-4.6,13.9s-7.5,4.9-13.3,4.9S56.7,348.8,53.6,345.5ZM73,332.3v-41c0-4.9-2-7.4-6.1-7.4s-6.1,2.5-6.1,7.4v41c0,4.9,2,7.4,6.1,7.4S73,337.2,73,332.3Z" style="fill: #fff"/>
        <path d="M92.8,274.3h14.8L119,319.2h.2V274.3h10.6v75.1H117.6l-14.1-54.8h-.2v54.8H92.8Z" style="fill: #fff"/>
        <path d="M147.8,285H135.4V274.3h36.5V285H159.6v64.4H147.8Z" style="fill: #fff"/>
        <path d="M181.8,274.3h16L210,349.4H198.2L196,334.5v.2H182.6l-2.1,14.7h-11Zm12.8,50.2-5.2-37.1h-.2L184,324.5Z" style="fill: #fff"/>
        <path d="M219.1,345.6c-2.9-3.2-4.4-7.8-4.4-13.6V291.7c0-5.9,1.5-10.4,4.4-13.7s7.3-4.8,13-4.8,9.9,1.6,12.9,4.8,4.4,7.8,4.4,13.7v7.9H238.3v-8.7c0-4.6-2-7-5.9-7s-5.9,2.4-5.9,7v41.9c0,4.6,2,6.9,5.9,6.9s5.9-2.3,5.9-6.9V321.4h11.1V332c0,5.8-1.4,10.4-4.4,13.6s-7.3,4.8-12.9,4.8S222.1,348.8,219.1,345.6Z" style="fill: #fff"/>
        <path d="M265.7,285H253.4V274.3h36.5V285H277.5v64.4H265.7Z" style="fill: #fff"/>
        <path d="M298.9,345.5c-3.1-3.3-4.6-7.9-4.6-13.9V292.1c0-6,1.5-10.7,4.6-14s7.5-4.9,13.3-4.9,10.2,1.7,13.3,4.9,4.6,8,4.6,14v39.5c0,6-1.6,10.6-4.6,13.9s-7.5,4.9-13.3,4.9S302,348.8,298.9,345.5Zm19.4-13.2v-41c0-4.9-2-7.4-6.1-7.4s-6.1,2.5-6.1,7.4v41c0,4.9,2,7.4,6.1,7.4S318.3,337.2,318.3,332.3Z" style="fill: #fff"/>
        <path d="M355.2,274.3h17.5c6,0,10.5,1.4,13.3,4.2s4.1,7.2,4.1,13.1v4.6c0,7.8-2.5,12.7-7.7,14.8v.2a9.1,9.1,0,0,1,6.1,5.2c1.2,2.7,1.7,6.2,1.7,10.7v13.1a35.4,35.4,0,0,0,.3,5.2,13.8,13.8,0,0,0,1,4h-12a17.3,17.3,0,0,1-.8-3.5,40.6,40.6,0,0,1-.2-5.8V326.4c0-3.4-.6-5.8-1.7-7.2s-3-2-5.7-2H367v32.2H355.2Zm16.1,32.2a6.9,6.9,0,0,0,5.3-1.9c1.2-1.2,1.7-3.2,1.7-6.1v-5.8c0-2.7-.4-4.6-1.4-5.9a5.6,5.6,0,0,0-4.6-1.8H367v21.5Z" style="fill: #fff"/>
        <path d="M398.4,274.3h32.2V285H410.2v19.9h16.2v10.7H410.2v23h20.4v10.8H398.4Z" style="fill: #fff"/>
        <path d="M441,345.6c-2.9-3.2-4.4-7.8-4.4-13.6V291.7c0-5.9,1.5-10.4,4.4-13.7s7.3-4.8,13-4.8,9.9,1.6,12.9,4.8,4.4,7.8,4.4,13.7v7.9H460.2v-8.7c0-4.6-2-7-5.9-7s-5.9,2.4-5.9,7v41.9c0,4.6,1.9,6.9,5.9,6.9s5.9-2.3,5.9-6.9V321.4h11.1V332c0,5.8-1.5,10.4-4.4,13.6s-7.3,4.8-12.9,4.8S444,348.8,441,345.6Z" style="fill: #fff"/>
        <path d="M478.4,274.3h11.8v75.1H478.4Z" style="fill: #fff"/>
        <path d="M499,274.3h17.8c6.1,0,10.5,1.4,13.3,4.2s4.2,7.2,4.2,13.1v3a21.2,21.2,0,0,1-1.9,9.4,11.1,11.1,0,0,1-5.7,5.2v.3c5.8,2,8.8,7.2,8.8,15.6v6.5c0,5.7-1.6,10.2-4.6,13.2s-7.5,4.6-13.4,4.6H499Zm16.4,30.6a7.1,7.1,0,0,0,5.3-1.9c1.2-1.2,1.8-3.2,1.8-6.1v-4.2c0-2.7-.5-4.6-1.5-5.9a5.4,5.4,0,0,0-4.5-1.8h-5.7v19.9Zm2.1,33.7c2.1,0,3.7-.5,4.7-1.6s1.5-3,1.5-5.8v-6.5c0-3.4-.6-5.8-1.8-7.1s-3.1-2-5.9-2h-5.2v23Z" style="fill: #fff"/>
        <path d="M549.3,256.9h12.9l-11.5,12.3h-8.9Zm-7,17.4h11.8v75.1H542.3Z" style="fill: #fff"/>
        <path d="M589.3,285H577V274.3h36.4V285H601.1v64.4H589.3Z" style="fill: #fff"/>
        <path d="M623.2,345.6c-3-3.3-4.5-8-4.5-14V274.3h11.8v58.1c0,2.6.5,4.4,1.5,5.6a6,6,0,0,0,4.5,1.7,5.7,5.7,0,0,0,4.4-1.7c1.1-1.2,1.6-3,1.6-5.6V274.3h11.3v57.3c0,6-1.5,10.7-4.5,14s-7.3,4.8-13,4.8S626.2,348.8,623.2,345.6Z" style="fill: #fff"/>
        <path d="M679.4,274.3h16.8l7.5,53.7h.2l7.5-53.7h16.9v75.1H717.1V292.5h-.2l-8.6,56.9h-9.8l-8.6-56.9h-.2v56.9H679.4Z" style="fill: #fff"/>
        <path d="M737.1,274.3h32.1V285H748.9v19.9h16.2v10.7H748.9v23h20.3v10.8H737.1Z" style="fill: #fff"/>
        <path d="M776,274.3h14.8l11.5,44.9h.2V274.3H813v75.1H800.9l-14.2-54.8h-.2v54.8H776Z" style="fill: #fff"/>
        <path d="M824.1,345.6c-2.9-3.3-4.4-8-4.4-14v-4.3h11.2v5.1c0,4.9,2,7.3,6.1,7.3a5.9,5.9,0,0,0,4.6-1.8c1-1.1,1.5-3.1,1.5-5.7a16.3,16.3,0,0,0-2.1-8.3,39.6,39.6,0,0,0-8-8.6c-4.8-4.3-8.2-8.2-10.1-11.7a22.8,22.8,0,0,1-2.9-11.7q0-9,4.5-13.8c3-3.3,7.3-4.9,13-4.9s10,1.6,12.9,4.9,4.3,7.9,4.3,14v3.1H843.6v-3.9c0-2.5-.5-4.4-1.5-5.6a5.4,5.4,0,0,0-4.4-1.8c-4,0-5.9,2.4-5.9,7.2a13.7,13.7,0,0,0,2.2,7.6c1.4,2.4,4.1,5.3,7.9,8.6s8.4,8.2,10.2,11.7a25.4,25.4,0,0,1,2.8,12.3c0,6.2-1.5,10.9-4.5,14.2s-7.5,4.9-13.3,4.9S827.1,348.8,824.1,345.6Z" style="fill: #fff"/>
        <path d="M870.5,274.3h16l12.2,75.1H886.9l-2.2-14.9v.2H871.3l-2.1,14.7h-11Zm12.8,50.2-5.2-37.1h-.2l-5.2,37.1Z" style="fill: #fff"/>
        <path d="M901.7,349.4V338.6a14.6,14.6,0,0,0,3.8.5,7.1,7.1,0,0,0,5.3-1.8,7.8,7.8,0,0,0,1.7-5.4V274.3h11.8v57.3c0,6.1-1.4,10.7-4.2,13.7s-7.2,4.5-13,4.5A39.9,39.9,0,0,1,901.7,349.4Z" style="fill: #fff"/>
        <path d="M932.8,274.3H965V285H944.6v19.9h16.2v10.7H944.6v23H965v10.8H932.8Z" style="fill: #fff"/>
        <path d="M21.1,378.5H5.5v12.8h14v4.1H5.5v13.2H21.1v4.1H.5V374.3H21.1Z" style="fill: none;stroke: #fff;stroke-miterlimit: 10"/>
        <path d="M58.8,374.3v38.4h-5L33.7,382.2v30.5h-5V374.3h5l20.1,30.5V374.3Z" style="fill: none;stroke: #fff;stroke-miterlimit: 10"/>
        <path d="M96.3,412.7H82V374.4H95.8c8.1,0,12.2,4.4,12.2,9.7s-3.1,7.7-6.8,8.9a9.5,9.5,0,0,1,7.6,9.4C108.8,408.2,104.3,412.7,96.3,412.7Zm-.9-34.2H87.1v12.4h8.4c4.6,0,7.3-2.3,7.3-6.2S100.3,378.5,95.4,378.5Zm.3,16.6H87.1v13.5h8.8c5,0,7.9-2.5,7.9-6.7S100.6,395.1,95.7,395.1Z" style="fill: none;stroke: #fff;stroke-miterlimit: 10"/>
        <path d="M128.1,374.4c9,0,13.3,5,13.3,11.3s-2.7,9.5-9.1,11l9.6,16h-6L126.8,397h-6v15.7h-5V374.4Zm0,4.1h-7.3V393h7.3c5.7,0,8.2-3.1,8.2-7.3S133.8,378.5,128.1,378.5Z" style="fill: none;stroke: #fff;stroke-miterlimit: 10"/>
        <path d="M169.8,378.5H154.2v12.8h14v4.1h-14v13.2h15.6v4.1H149.2V374.3h20.6Z" style="fill: none;stroke: #fff;stroke-miterlimit: 10"/>
        <path d="M203.8,374.4h5.3l-14.5,38.3h-5.8l-14.4-38.3h5.3l12.1,33Z" style="fill: none;stroke: #fff;stroke-miterlimit: 10"/>
        <path d="M235.2,378.5H219.6v12.8h13.9v4.1H219.6v13.2h15.6v4.1H214.6V374.3h20.6Z" style="fill: none;stroke: #fff;stroke-miterlimit: 10"/>
        <path d="M257.5,374.7h5.3l14.1,31.4L291,374.7h5.3v38h-5V384.3l-12.6,28.4h-3.5l-12.7-28.4v28.4h-5Z" style="fill: none;stroke: #fff;stroke-miterlimit: 10"/>
        <path d="M325.4,378.5H309.8v12.8h14v4.1h-14v13.2h15.6v4.1H304.8V374.3h20.6Z" style="fill: none;stroke: #fff;stroke-miterlimit: 10"/>
        <path d="M365,373.9c8.3,0,14.9,4.2,17.7,11.6h-6c-2.1-4.6-6.1-7.2-11.7-7.2-8.1,0-14.1,5.8-14.1,15.2s6,15.2,14.1,15.2c5.6,0,9.6-2.6,11.7-7.1h6c-2.8,7.3-9.4,11.4-17.7,11.4-10.8,0-19.2-8-19.2-19.5S354.2,373.9,365,373.9Z" style="fill: none;stroke: #fff;stroke-miterlimit: 10"/>
        <path d="M407.5,413.1c-10.8,0-19.2-8.1-19.2-19.6s8.4-19.6,19.2-19.6,19.3,8.1,19.3,19.6S418.4,413.1,407.5,413.1Zm0-4.3c8.1,0,14.2-5.9,14.2-15.3s-6.1-15.2-14.2-15.2-14.1,5.8-14.1,15.2S399.4,408.8,407.5,408.8Z" style="fill: none;stroke: #fff;stroke-miterlimit: 10"/>
        <path d="M433.4,374.7h5.4l14,31.4,14.1-31.4h5.4v38h-5.1V384.3l-12.6,28.4h-3.5l-12.7-28.4v28.4h-5Z" style="fill: none;stroke: #fff;stroke-miterlimit: 10"/>
        <path d="M480.6,374.4h5v24.2c0,7.1,3.8,10.1,9.5,10.1s9.4-3,9.4-10.1V374.4h5v24.2c0,9.9-6.6,14.5-14.5,14.5s-14.4-4.6-14.4-14.5Z" style="fill: none;stroke: #fff;stroke-miterlimit: 10"/>
        <path d="M548,374.3v38.4h-5l-20.2-30.5v30.5h-5V374.3h5L543,404.8V374.3Z" style="fill: none;stroke: #fff;stroke-miterlimit: 10"/>
        <path d="M556.5,374.4h5v38.3h-5Z" style="fill: none;stroke: #fff;stroke-miterlimit: 10"/>
        <path d="M587.3,373.9c8.3,0,14.9,4.2,17.7,11.6h-5.9c-2.1-4.6-6.2-7.2-11.8-7.2-8,0-14,5.8-14,15.2s6,15.2,14,15.2c5.6,0,9.7-2.6,11.8-7.1H605c-2.8,7.3-9.4,11.4-17.7,11.4-10.7,0-19.2-8-19.2-19.5S576.6,373.9,587.3,373.9Z" style="fill: none;stroke: #fff;stroke-miterlimit: 10"/>
        <path d="M635.1,404.2H618.4l-3.1,8.5H610l13.9-38.1h5.8l13.8,38.1h-5.3Zm-8.3-23.4-7,19.3h13.9Z" style="fill: none;stroke: #fff;stroke-miterlimit: 10"/>
        <path d="M661.9,374.4c9,0,13.3,5,13.3,11.3s-2.7,9.5-9.1,11l9.6,16h-6L660.6,397h-6.1v15.7h-5V374.4Zm0,4.1h-7.4V393h7.4c5.7,0,8.1-3.1,8.1-7.3S667.6,378.5,661.9,378.5Z" style="fill: none;stroke: #fff;stroke-miterlimit: 10"/>
        <path d="M703.6,378.5H688v12.8h13.9v4.1H688v13.2h15.6v4.1H683V374.3h20.6Zm-5.5-16.8v4.4l-11.7,6.2v-3.7Z" style="fill: none;stroke: #fff;stroke-miterlimit: 10"/>
        <path d="M743.1,373.9c8.3,0,14.9,4.2,17.8,11.6h-6c-2.1-4.6-6.2-7.2-11.8-7.2-8,0-14,5.8-14,15.2s6,15.2,14,15.2c5.6,0,9.7-2.6,11.8-7.1h6c-2.9,7.3-9.5,11.4-17.8,11.4-10.7,0-19.1-8-19.1-19.5S732.4,373.9,743.1,373.9Z" style="fill: none;stroke: #fff;stroke-miterlimit: 10"/>
        <path d="M785.7,413.1c-10.8,0-19.3-8.1-19.3-19.6s8.5-19.6,19.3-19.6,19.2,8.1,19.2,19.6S796.5,413.1,785.7,413.1Zm0-4.3c8.1,0,14.1-5.9,14.1-15.3s-6-15.2-14.1-15.2-14.2,5.8-14.2,15.2S777.6,408.8,785.7,408.8Z" style="fill: none;stroke: #fff;stroke-miterlimit: 10"/>
        <path d="M841.7,374.3v38.4h-5l-20.2-30.5v30.5h-5V374.3h5l20.2,30.5V374.3Z" style="fill: none;stroke: #fff;stroke-miterlimit: 10"/>
        <path d="M847.8,374.4h26v4.1H863.3v34.2h-5V378.5H847.8Z" style="fill: none;stroke: #fff;stroke-miterlimit: 10"/>
        <path d="M879.9,374.4h5v38.3h-5Z" style="fill: none;stroke: #fff;stroke-miterlimit: 10"/>
        <path d="M928.5,385.5h-6c-2.1-4.5-6.3-7-11.7-7-8.1,0-14.1,5.8-14.1,15s6,15,14.1,15,12.7-4.8,13.5-12.4H909V392h20.6v3.9A18.5,18.5,0,0,1,910.8,413c-10.7,0-19.2-8-19.2-19.5s8.5-19.6,19.2-19.6C918.9,373.9,925.6,378.1,928.5,385.5Z" style="fill: none;stroke: #fff;stroke-miterlimit: 10"/>
        <path d="M953.6,413.1c-10.8,0-19.2-8.1-19.2-19.6s8.4-19.6,19.2-19.6,19.3,8.1,19.3,19.6S964.4,413.1,953.6,413.1Zm0-4.3c8.1,0,14.1-5.9,14.1-15.3s-6-15.2-14.1-15.2-14.1,5.8-14.1,15.2S945.5,408.8,953.6,408.8Z" style="fill: none;stroke: #fff;stroke-miterlimit: 10"/>
      </g>
    </g>
  </g>
</svg>
