<?xml version="1.0" encoding="UTF-8" standalone="no"?>
<svg xmlns="http://www.w3.org/2000/svg" viewBox="0 0 973.4 413.6">
 <title>recibido</title>
 <g id="aec9ac54-12fc-4789-b8cf-66e011e87b89" data-name="Capa 2">
  <g id="e8b25ed1-bbd9-4adc-9788-588a05985aca" data-name="Capa 1">
   <path d="m295.9 3h22.5v58.3h24.2v-58.3h22.4v143.1h-22.4v-64.4h-24.2v64.4h-22.5z" stroke="#fff" stroke-miterlimit="10" stroke-width="2px" fill="none"/>
   <path d="m389 138.8c-5.9-6.3-8.8-15.1-8.8-26.6v-75.2c0-11.5 2.9-20.3 8.8-26.6s14.3-9.4 25.3-9.4 19.5 3.1 25.4 9.4 8.7 15.1 8.7 26.6v75.2c0 11.5-2.9 20.3-8.7 26.6s-14.4 9.4-25.4 9.4-19.5-3.2-25.3-9.4zm37-25.2v-78.1q0-14.1-11.7-14.1c-7.8 0-11.6 4.7-11.6 14.1v78.1c0 9.4 3.8 14.1 11.6 14.1s11.7-4.7 11.7-14.1z" stroke="#fff" stroke-miterlimit="10" stroke-width="2px" fill="none"/>
   <path d="m463.6 3h22.5v122.7h37v20.4h-59.5z" stroke="#fff" stroke-miterlimit="10" stroke-width="2px" fill="none"/>
   <path d="m552.1 3h30.4l23.3 143.1h-22.4l-4.1-28.4v0.4h-25.6l-4.1 28h-20.8zm24.5 95.7l-10-70.7h-0.4l-9.8 70.7z" stroke="#fff" stroke-miterlimit="10" stroke-width="2px" fill="none"/>
   <path d="m618.5 62.7v-59.7h22.5v59.7l-2.9 45.6h-16.7zm0.4 61.8h21.7v21.6h-21.7z" stroke="#fff" stroke-miterlimit="10" stroke-width="2px" fill="none"/>
   <path d="m72.3 243.9c-3-3.2-4.5-7.9-4.5-14v-39.4c0-6.1 1.5-10.8 4.5-14s7.3-4.9 13.1-4.9 10 1.6 13 4.9 4.5 7.9 4.5 14v6.4h-11.1v-7.2c0-4.9-2-7.4-6.1-7.4s-6.1 2.5-6.1 7.4v41.1c0 4.9 2 7.3 6.1 7.3s6.1-2.4 6.1-7.3v-14.7h-5.9v-10.7h17v24.5c0 6.1-1.5 10.8-4.5 14s-7.3 4.9-13 4.9-10.1-1.6-13.1-4.9z" fill="#fff"/>
   <path d="m110.6 172.7h17.4c6.1 0 10.6 1.4 13.3 4.2s4.2 7.2 4.2 13v4.7c0 7.7-2.5 12.7-7.7 14.8v0.2a9.1 9.1 0 0 1 6.1 5.2 28.3 28.3 0 0 1 1.7 10.6v13.2c0 2.2 0.1 3.9 0.2 5.2a12.5 12.5 0 0 0 1.1 3.9h-12a24.6 24.6 0 0 1 -0.9 -3.4c-0.1-1.1-0.2-3-0.2-5.8v-13.7c0-3.4-0.5-5.8-1.6-7.2s-3-2-5.8-2h-4v32.1h-11.8zm16 32.1a7.3 7.3 0 0 0 5.4 -1.8c1.1-1.2 1.7-3.2 1.7-6.1v-5.8c0-2.7-0.5-4.7-1.4-5.9a5.6 5.6 0 0 0 -4.6 -1.8h-5.3v21.4z" fill="#fff"/>
   <path d="m162.9 172.7h16l12.2 75h-11.8l-2.1-14.9v0.3h-13.4l-2.2 14.6h-10.9zm12.9 50.2-5.3-37.1h-0.2l-5.2 37.1z" fill="#fff"/>
   <path d="m200.3 244c-3-3.2-4.5-7.8-4.5-13.6v-40.3c0-5.9 1.5-10.5 4.5-13.7s7.2-4.8 12.9-4.8 9.9 1.6 12.9 4.8 4.5 7.8 4.5 13.7v7.9h-11.2v-8.7c0-4.6-2-7-5.9-7s-5.9 2.4-5.9 7v41.9c0 4.6 2 6.9 5.9 6.9s5.9-2.3 5.9-6.9v-11.4h11.2v10.6c0 5.8-1.5 10.4-4.5 13.6s-7.3 4.8-12.9 4.8-10-1.6-12.9-4.8z" fill="#fff"/>
   <path d="m237.6 172.7h11.8v75h-11.8z" fill="#fff"/>
   <path d="m267.3 172.7h16l12.3 75h-11.8l-2.2-14.9v0.3h-13.4l-2.1 14.6h-11zm12.9 50.2l-5.2-37.1h-0.3l-5.1 37.1z" fill="#fff"/>
   <path d="m303.3 243.9c-3-3.2-4.4-7.9-4.4-14v-4.2h11.1v5.1c0 4.9 2.1 7.3 6.1 7.3a5.7 5.7 0 0 0 4.6 -1.8 8.8 8.8 0 0 0 1.6 -5.7 16 16 0 0 0 -2.2 -8.3c-1.4-2.4-4.1-5.3-7.9-8.7s-8.3-8.1-10.2-11.6a24.2 24.2 0 0 1 -2.9 -11.7q0-9 4.5-13.8c3-3.3 7.4-4.9 13.1-4.9s9.9 1.6 12.8 4.9 4.3 7.9 4.3 14v3.1h-11.1v-3.9c0-2.5-0.5-4.4-1.5-5.6a5.4 5.4 0 0 0 -4.4 -1.8c-3.9 0-5.9 2.4-5.9 7.2a13.7 13.7 0 0 0 2.2 7.6c1.5 2.4 4.1 5.2 8 8.6s8.3 8.2 10.2 11.7a26.6 26.6 0 0 1 2.8 12.3c0 6.2-1.6 10.9-4.6 14.2s-7.5 4.9-13.2 4.9-10.1-1.6-13-4.9z" fill="#fff"/>
   <path d="m358 172.7h17.3c5.9 0 10.3 1.5 13.2 4.7s4.4 7.8 4.4 13.8v7.4c0 6.1-1.4 10.7-4.4 13.9s-7.3 4.7-13.2 4.7h-5.5v30.5h-11.8zm17.3 33.8a5.6 5.6 0 0 0 4.4 -1.7c0.9-1 1.4-2.8 1.4-5.4v-8.9c0-2.6-0.5-4.4-1.4-5.5a5.5 5.5 0 0 0 -4.4 -1.6h-5.5v23.1z" fill="#fff"/>
   <path d="m403.1 243.9c-3.1-3.3-4.6-8-4.6-14v-39.4c0-6 1.5-10.7 4.6-14s7.5-4.9 13.3-4.9 10.2 1.6 13.3 4.9 4.6 8 4.6 14v39.4c0 6-1.5 10.7-4.6 14s-7.5 4.9-13.3 4.9-10.2-1.6-13.3-4.9zm19.4-13.2v-41c0-4.9-2-7.4-6.1-7.4s-6.1 2.5-6.1 7.4v41c0 4.9 2 7.4 6.1 7.4s6.1-2.5 6.1-7.4z" fill="#fff"/>
   <path d="m442.3 172.7h17.4c6.1 0 10.5 1.4 13.3 4.2s4.2 7.2 4.2 13v4.7c0 7.7-2.6 12.7-7.7 14.8v0.2a9.1 9.1 0 0 1 6.1 5.2 28.3 28.3 0 0 1 1.7 10.6v13.2c0 2.2 0.1 3.9 0.2 5.2a12.5 12.5 0 0 0 1.1 3.9h-12a24.6 24.6 0 0 1 -0.9 -3.4c-0.1-1.1-0.2-3-0.2-5.8v-13.7c0-3.4-0.5-5.8-1.6-7.2s-3.1-2-5.8-2h-4v32.1h-11.8zm16 32.1a7.3 7.3 0 0 0 5.4 -1.8c1.1-1.2 1.7-3.2 1.7-6.1v-5.8c0-2.7-0.5-4.7-1.4-5.9a5.6 5.6 0 0 0 -4.6 -1.8h-5.3v21.4z" fill="#fff"/>
   <path d="m502.6 172.7h17.4c5.9 0 10.3 1.5 13.2 4.7s4.4 7.8 4.4 13.8v7.4c0 6.1-1.5 10.7-4.4 13.9s-7.3 4.7-13.2 4.7h-5.6v30.5h-11.8zm17.4 33.8a5.7 5.7 0 0 0 4.4 -1.7c0.9-1 1.4-2.8 1.4-5.4v-8.9c0-2.6-0.5-4.4-1.4-5.5a5.7 5.7 0 0 0 -4.4 -1.6h-5.6v23.1z" fill="#fff"/>
   <path d="m547.8 243.9c-3.1-3.3-4.6-8-4.6-14v-39.4c0-6 1.5-10.7 4.6-14s7.5-4.9 13.3-4.9 10.2 1.6 13.3 4.9 4.6 8 4.6 14v39.4c0 6-1.5 10.7-4.6 14s-7.5 4.9-13.3 4.9-10.2-1.6-13.3-4.9zm19.4-13.2v-41c0-4.9-2-7.4-6.1-7.4s-6.1 2.5-6.1 7.4v41c0 4.9 2 7.4 6.1 7.4s6.1-2.5 6.1-7.4z" fill="#fff"/>
   <path d="m586.9 172.7h14.8l11.5 44.9h0.2v-44.9h10.5v75h-12.1l-14.1-54.8h-0.3v54.8h-10.5z" fill="#fff"/>
   <path d="m632.7 172.7h32.2v10.7h-20.4v19.8h16.2v10.8h-16.2v23h20.4v10.7h-32.2z" fill="#fff"/>
   <path d="m671.6 172.7h17.5c6.1 0 10.5 1.4 13.3 4.2s4.2 7.2 4.2 13v4.7c0 7.7-2.6 12.7-7.7 14.8v0.2a9 9 0 0 1 6 5.2 26.3 26.3 0 0 1 1.8 10.6v13.2c0 2.2 0.1 3.9 0.2 5.2a12.5 12.5 0 0 0 1.1 3.9h-12a24.6 24.6 0 0 1 -0.9 -3.4c-0.1-1.1-0.2-3-0.2-5.8v-13.7c0-3.4-0.5-5.8-1.6-7.2s-3.1-2-5.8-2h-4.1v32.1h-11.8zm16.1 32.1c2.4 0 4.2-0.6 5.3-1.8s1.8-3.2 1.8-6.1v-5.8c0-2.7-0.5-4.7-1.4-5.9a5.6 5.6 0 0 0 -4.6 -1.8h-5.4v21.4z" fill="#fff"/>
   <path d="m723.9 183.4h-12.4v-10.7h36.5v10.7h-12.3v64.3h-11.8z" fill="#fff"/>
   <path d="m753.7 172.7h32.2v10.7h-20.4v19.8h16.2v10.8h-16.2v23h20.4v10.7h-32.2z" fill="#fff"/>
   <path d="m809.8 172.7h32.1v10.7h-20.3v19.8h16.2v10.8h-16.2v23h20.3v10.7h-32.1z" fill="#fff"/>
   <path d="m848.7 172.7h14.8l11.5 44.9h0.2v-44.9h10.5v75h-12.1l-14.2-54.8h-0.2v54.8h-10.5z" fill="#fff"/>
   <path d="m12.3 345.6c-3-3.2-4.5-7.8-4.5-13.6v-40.3c0-5.9 1.5-10.4 4.5-13.7s7.2-4.8 12.9-4.8 10 1.6 12.9 4.8 4.5 7.8 4.5 13.7v7.9h-11.2v-8.7c0-4.6-1.9-7-5.9-7s-5.9 2.4-5.9 7v41.9c0 4.6 2 6.9 5.9 6.9s5.9-2.3 5.9-6.9v-11.4h11.2v10.6c0 5.8-1.5 10.4-4.5 13.6s-7.3 4.8-12.9 4.8-10-1.6-12.9-4.8z" fill="#fff"/>
   <path d="m53.6 345.5c-3.1-3.3-4.6-7.9-4.6-13.9v-39.5c0-6 1.5-10.7 4.6-14s7.5-4.9 13.3-4.9 10.2 1.7 13.3 4.9 4.6 8 4.6 14v39.5c0 6-1.5 10.6-4.6 13.9s-7.5 4.9-13.3 4.9-10.2-1.6-13.3-4.9zm19.4-13.2v-41c0-4.9-2-7.4-6.1-7.4s-6.1 2.5-6.1 7.4v41c0 4.9 2 7.4 6.1 7.4s6.1-2.5 6.1-7.4z" fill="#fff"/>
   <path d="m92.8 274.3h14.8l11.4 44.9h0.2v-44.9h10.6v75.1h-12.2l-14.1-54.8h-0.2v54.8h-10.5z" fill="#fff"/>
   <path d="m147.8 285h-12.4v-10.7h36.5v10.7h-12.3v64.4h-11.8z" fill="#fff"/>
   <path d="m181.8 274.3h16l12.2 75.1h-11.8l-2.2-14.9v0.2h-13.4l-2.1 14.7h-11zm12.8 50.2-5.2-37.1h-0.2l-5.2 37.1z" fill="#fff"/>
   <path d="m219.1 345.6c-2.9-3.2-4.4-7.8-4.4-13.6v-40.3c0-5.9 1.5-10.4 4.4-13.7s7.3-4.8 13-4.8 9.9 1.6 12.9 4.8 4.4 7.8 4.4 13.7v7.9h-11.1v-8.7c0-4.6-2-7-5.9-7s-5.9 2.4-5.9 7v41.9c0 4.6 2 6.9 5.9 6.9s5.9-2.3 5.9-6.9v-11.4h11.1v10.6c0 5.8-1.4 10.4-4.4 13.6s-7.3 4.8-12.9 4.8-10-1.6-13-4.8z" fill="#fff"/>
   <path d="m265.7 285h-12.3v-10.7h36.5v10.7h-12.4v64.4h-11.8z" fill="#fff"/>
   <path d="m298.9 345.5c-3.1-3.3-4.6-7.9-4.6-13.9v-39.5c0-6 1.5-10.7 4.6-14s7.5-4.9 13.3-4.9 10.2 1.7 13.3 4.9 4.6 8 4.6 14v39.5c0 6-1.6 10.6-4.6 13.9s-7.5 4.9-13.3 4.9-10.2-1.6-13.3-4.9zm19.4-13.2v-41c0-4.9-2-7.4-6.1-7.4s-6.1 2.5-6.1 7.4v41c0 4.9 2 7.4 6.1 7.4s6.1-2.5 6.1-7.4z" fill="#fff"/>
   <path d="m355.2 274.3h17.5c6 0 10.5 1.4 13.3 4.2s4.1 7.2 4.1 13.1v4.6c0 7.8-2.5 12.7-7.7 14.8v0.2a9.1 9.1 0 0 1 6.1 5.2c1.2 2.7 1.7 6.2 1.7 10.7v13.1a35.4 35.4 0 0 0 0.3 5.2 13.8 13.8 0 0 0 1 4h-12a17.3 17.3 0 0 1 -0.8 -3.5 40.6 40.6 0 0 1 -0.2 -5.8v-13.7c0-3.4-0.6-5.8-1.7-7.2s-3-2-5.7-2h-4.1v32.2h-11.8zm16.1 32.2a6.9 6.9 0 0 0 5.3 -1.9c1.2-1.2 1.7-3.2 1.7-6.1v-5.8c0-2.7-0.4-4.6-1.4-5.9a5.6 5.6 0 0 0 -4.6 -1.8h-5.3v21.5z" fill="#fff"/>
   <path d="m398.4 274.3h32.2v10.7h-20.4v19.9h16.2v10.7h-16.2v23h20.4v10.8h-32.2z" fill="#fff"/>
   <path d="m441 345.6c-2.9-3.2-4.4-7.8-4.4-13.6v-40.3c0-5.9 1.5-10.4 4.4-13.7s7.3-4.8 13-4.8 9.9 1.6 12.9 4.8 4.4 7.8 4.4 13.7v7.9h-11.1v-8.7c0-4.6-2-7-5.9-7s-5.9 2.4-5.9 7v41.9c0 4.6 1.9 6.9 5.9 6.9s5.9-2.3 5.9-6.9v-11.4h11.1v10.6c0 5.8-1.5 10.4-4.4 13.6s-7.3 4.8-12.9 4.8-10-1.6-13-4.8z" fill="#fff"/>
   <path d="m478.4 274.3h11.8v75.1h-11.8z" fill="#fff"/>
   <path d="m499 274.3h17.8c6.1 0 10.5 1.4 13.3 4.2s4.2 7.2 4.2 13.1v3a21.2 21.2 0 0 1 -1.9 9.4 11.1 11.1 0 0 1 -5.7 5.2v0.3c5.8 2 8.8 7.2 8.8 15.6v6.5c0 5.7-1.6 10.2-4.6 13.2s-7.5 4.6-13.4 4.6h-18.5zm16.4 30.6a7.1 7.1 0 0 0 5.3 -1.9c1.2-1.2 1.8-3.2 1.8-6.1v-4.2c0-2.7-0.5-4.6-1.5-5.9a5.4 5.4 0 0 0 -4.5 -1.8h-5.7v19.9zm2.1 33.7c2.1 0 3.7-0.5 4.7-1.6s1.5-3 1.5-5.8v-6.5c0-3.4-0.6-5.8-1.8-7.1s-3.1-2-5.9-2h-5.2v23z" fill="#fff"/>
   <path d="m549.3 256.9h12.9l-11.5 12.3h-8.9zm-7 17.4h11.8v75.1h-11.8z" fill="#fff"/>
   <path d="m589.3 285h-12.3v-10.7h36.4v10.7h-12.3v64.4h-11.8z" fill="#fff"/>
   <path d="m623.2 345.6c-3-3.3-4.5-8-4.5-14v-57.3h11.8v58.1c0 2.6 0.5 4.4 1.5 5.6a6 6 0 0 0 4.5 1.7 5.7 5.7 0 0 0 4.4 -1.7c1.1-1.2 1.6-3 1.6-5.6v-58.1h11.3v57.3c0 6-1.5 10.7-4.5 14s-7.3 4.8-13 4.8-10.1-1.6-13.1-4.8z" fill="#fff"/>
   <path d="m679.4 274.3h16.8l7.5 53.7h0.2l7.5-53.7h16.9v75.1h-11.2v-56.9h-0.2l-8.6 56.9h-9.8l-8.6-56.9h-0.2v56.9h-10.3z" fill="#fff"/>
   <path d="m737.1 274.3h32.1v10.7h-20.3v19.9h16.2v10.7h-16.2v23h20.3v10.8h-32.1z" fill="#fff"/>
   <path d="m776 274.3h14.8l11.5 44.9h0.2v-44.9h10.5v75.1h-12.1l-14.2-54.8h-0.2v54.8h-10.5z" fill="#fff"/>
   <path d="m824.1 345.6c-2.9-3.3-4.4-8-4.4-14v-4.3h11.2v5.1c0 4.9 2 7.3 6.1 7.3a5.9 5.9 0 0 0 4.6 -1.8c1-1.1 1.5-3.1 1.5-5.7a16.3 16.3 0 0 0 -2.1 -8.3 39.6 39.6 0 0 0 -8 -8.6c-4.8-4.3-8.2-8.2-10.1-11.7a22.8 22.8 0 0 1 -2.9 -11.7q0-9 4.5-13.8c3-3.3 7.3-4.9 13-4.9s10 1.6 12.9 4.9 4.3 7.9 4.3 14v3.1h-11.1v-3.9c0-2.5-0.5-4.4-1.5-5.6a5.4 5.4 0 0 0 -4.4 -1.8c-4 0-5.9 2.4-5.9 7.2a13.7 13.7 0 0 0 2.2 7.6c1.4 2.4 4.1 5.3 7.9 8.6s8.4 8.2 10.2 11.7a25.4 25.4 0 0 1 2.8 12.3c0 6.2-1.5 10.9-4.5 14.2s-7.5 4.9-13.3 4.9-10-1.6-13-4.8z" fill="#fff"/>
   <path d="m870.5 274.3h16l12.2 75.1h-11.8l-2.2-14.9v0.2h-13.4l-2.1 14.7h-11zm12.8 50.2-5.2-37.1h-0.2l-5.2 37.1z" fill="#fff"/>
   <path d="m901.7 349.4v-10.8a14.6 14.6 0 0 0 3.8 0.5 7.1 7.1 0 0 0 5.3 -1.8 7.8 7.8 0 0 0 1.7 -5.4v-57.6h11.8v57.3c0 6.1-1.4 10.7-4.2 13.7s-7.2 4.5-13 4.5a39.9 39.9 0 0 1 -5.4 -0.4z" fill="#fff"/>
   <path d="m932.8 274.3h32.2v10.7h-20.4v19.9h16.2v10.7h-16.2v23h20.4v10.8h-32.2z" fill="#fff"/>
   <path stroke-miterlimit="10" d="m21.1 378.5h-15.6v12.8h14v4.1h-14v13.2h15.6v4.1h-20.6v-38.4h20.6z" stroke="#fff" fill="none"/>
   <path stroke-miterlimit="10" d="m58.8 374.3v38.4h-5l-20.1-30.5v30.5h-5v-38.4h5l20.1 30.5v-30.5z" stroke="#fff" fill="none"/>
   <path stroke-miterlimit="10" d="m96.3 412.7h-14.3v-38.3h13.8c8.1 0 12.2 4.4 12.2 9.7s-3.1 7.7-6.8 8.9a9.5 9.5 0 0 1 7.6 9.4c0 5.8-4.5 10.3-12.5 10.3zm-0.9-34.2h-8.3v12.4h8.4c4.6 0 7.3-2.3 7.3-6.2s-2.5-6.2-7.4-6.2zm0.3 16.6h-8.6v13.5h8.8c5 0 7.9-2.5 7.9-6.7s-3.2-6.8-8.1-6.8z" stroke="#fff" fill="none"/>
   <path stroke-miterlimit="10" d="m128.1 374.4c9 0 13.3 5 13.3 11.3s-2.7 9.5-9.1 11l9.6 16h-6l-9.1-15.7h-6v15.7h-5v-38.3zm0 4.1h-7.3v14.5h7.3c5.7 0 8.2-3.1 8.2-7.3s-2.5-7.2-8.2-7.2z" stroke="#fff" fill="none"/>
   <path stroke-miterlimit="10" d="m169.8 378.5h-15.6v12.8h14v4.1h-14v13.2h15.6v4.1h-20.6v-38.4h20.6z" stroke="#fff" fill="none"/>
   <path stroke-miterlimit="10" d="m203.8 374.4h5.3l-14.5 38.3h-5.8l-14.4-38.3h5.3l12.1 33z" stroke="#fff" fill="none"/>
   <path stroke-miterlimit="10" d="m235.2 378.5h-15.6v12.8h13.9v4.1h-13.9v13.2h15.6v4.1h-20.6v-38.4h20.6z" stroke="#fff" fill="none"/>
   <path stroke-miterlimit="10" d="m257.5 374.7h5.3l14.1 31.4 14.1-31.4h5.3v38h-5v-28.4l-12.6 28.4h-3.5l-12.7-28.4v28.4h-5z" stroke="#fff" fill="none"/>
   <path stroke-miterlimit="10" d="m325.4 378.5h-15.6v12.8h14v4.1h-14v13.2h15.6v4.1h-20.6v-38.4h20.6z" stroke="#fff" fill="none"/>
   <path stroke-miterlimit="10" d="m365 373.9c8.3 0 14.9 4.2 17.7 11.6h-6c-2.1-4.6-6.1-7.2-11.7-7.2-8.1 0-14.1 5.8-14.1 15.2s6 15.2 14.1 15.2c5.6 0 9.6-2.6 11.7-7.1h6c-2.8 7.3-9.4 11.4-17.7 11.4-10.8 0-19.2-8-19.2-19.5s8.4-19.6 19.2-19.6z" stroke="#fff" fill="none"/>
   <path stroke-miterlimit="10" d="m407.5 413.1c-10.8 0-19.2-8.1-19.2-19.6s8.4-19.6 19.2-19.6 19.3 8.1 19.3 19.6-8.4 19.6-19.3 19.6zm0-4.3c8.1 0 14.2-5.9 14.2-15.3s-6.1-15.2-14.2-15.2-14.1 5.8-14.1 15.2 6 15.3 14.1 15.3z" stroke="#fff" fill="none"/>
   <path stroke-miterlimit="10" d="m433.4 374.7h5.4l14 31.4 14.1-31.4h5.4v38h-5.1v-28.4l-12.6 28.4h-3.5l-12.7-28.4v28.4h-5z" stroke="#fff" fill="none"/>
   <path stroke-miterlimit="10" d="m480.6 374.4h5v24.2c0 7.1 3.8 10.1 9.5 10.1s9.4-3 9.4-10.1v-24.2h5v24.2c0 9.9-6.6 14.5-14.5 14.5s-14.4-4.6-14.4-14.5z" stroke="#fff" fill="none"/>
   <path stroke-miterlimit="10" d="m548 374.3v38.4h-5l-20.2-30.5v30.5h-5v-38.4h5l20.2 30.5v-30.5z" stroke="#fff" fill="none"/>
   <path stroke-miterlimit="10" d="m556.5 374.4h5v38.3h-5z" stroke="#fff" fill="none"/>
   <path stroke-miterlimit="10" d="m587.3 373.9c8.3 0 14.9 4.2 17.7 11.6h-5.9c-2.1-4.6-6.2-7.2-11.8-7.2-8 0-14 5.8-14 15.2s6 15.2 14 15.2c5.6 0 9.7-2.6 11.8-7.1h5.9c-2.8 7.3-9.4 11.4-17.7 11.4-10.7 0-19.2-8-19.2-19.5s8.5-19.6 19.2-19.6z" stroke="#fff" fill="none"/>
   <path stroke-miterlimit="10" d="m635.1 404.2h-16.7l-3.1 8.5h-5.3l13.9-38.1h5.8l13.8 38.1h-5.3zm-8.3-23.4-7 19.3h13.9z" stroke="#fff" fill="none"/>
   <path stroke-miterlimit="10" d="m661.9 374.4c9 0 13.3 5 13.3 11.3s-2.7 9.5-9.1 11l9.6 16h-6l-9.1-15.7h-6.1v15.7h-5v-38.3zm0 4.1h-7.4v14.5h7.4c5.7 0 8.1-3.1 8.1-7.3s-2.4-7.2-8.1-7.2z" stroke="#fff" fill="none"/>
   <path stroke-miterlimit="10" d="m703.6 378.5h-15.6v12.8h13.9v4.1h-13.9v13.2h15.6v4.1h-20.6v-38.4h20.6zm-5.5-16.8v4.4l-11.7 6.2v-3.7z" stroke="#fff" fill="none"/>
   <path stroke-miterlimit="10" d="m743.1 373.9c8.3 0 14.9 4.2 17.8 11.6h-6c-2.1-4.6-6.2-7.2-11.8-7.2-8 0-14 5.8-14 15.2s6 15.2 14 15.2c5.6 0 9.7-2.6 11.8-7.1h6c-2.9 7.3-9.5 11.4-17.8 11.4-10.7 0-19.1-8-19.1-19.5s8.4-19.6 19.1-19.6z" stroke="#fff" fill="none"/>
   <path stroke-miterlimit="10" d="m785.7 413.1c-10.8 0-19.3-8.1-19.3-19.6s8.5-19.6 19.3-19.6 19.2 8.1 19.2 19.6-8.4 19.6-19.2 19.6zm0-4.3c8.1 0 14.1-5.9 14.1-15.3s-6-15.2-14.1-15.2-14.2 5.8-14.2 15.2 6.1 15.3 14.2 15.3z" stroke="#fff" fill="none"/>
   <path stroke-miterlimit="10" d="m841.7 374.3v38.4h-5l-20.2-30.5v30.5h-5v-38.4h5l20.2 30.5v-30.5z" stroke="#fff" fill="none"/>
   <path stroke-miterlimit="10" d="m847.8 374.4h26v4.1h-10.5v34.2h-5v-34.2h-10.5z" stroke="#fff" fill="none"/>
   <path stroke-miterlimit="10" d="m879.9 374.4h5v38.3h-5z" stroke="#fff" fill="none"/>
   <path stroke-miterlimit="10" d="m928.5 385.5h-6c-2.1-4.5-6.3-7-11.7-7-8.1 0-14.1 5.8-14.1 15s6 15 14.1 15 12.7-4.8 13.5-12.4h-15.3v-4.1h20.6v3.9a18.5 18.5 0 0 1 -18.8 17.1c-10.7 0-19.2-8-19.2-19.5s8.5-19.6 19.2-19.6c8.1 0 14.8 4.2 17.7 11.6z" stroke="#fff" fill="none"/>
   <path stroke-miterlimit="10" d="m953.6 413.1c-10.8 0-19.2-8.1-19.2-19.6s8.4-19.6 19.2-19.6 19.3 8.1 19.3 19.6-8.5 19.6-19.3 19.6zm0-4.3c8.1 0 14.1-5.9 14.1-15.3s-6-15.2-14.1-15.2-14.1 5.8-14.1 15.2 6 15.3 14.1 15.3z" stroke="#fff" fill="none"/>
  </g>
 </g>
</svg>
