<?xml version="1.0" encoding="UTF-8" standalone="no"?>
<svg xmlns="http://www.w3.org/2000/svg" viewBox="0 0 265.3 125.7">
 <title>Recurso 23</title>
 <g id="fc3ff6e4-ee68-4cdd-8a0c-82d9eca4a6fe" data-name="Capa 2">
  <g id="a1a1101f-e965-46da-8831-fd905083f92d" data-name="Capa 1">
   <rect width="265.3" fill="#171919" rx="12" height="125.69"/>
   <g fill="#f3f1e5">
    <path d="m57.9 67.6a0.2 0.2 0 0 0 0.2 0.2h21.8c0.3 0 0.3 0 0.3-0.2v-19.5h-0.2a0.1 0.1 0 0 1 -0.1 0.1l-3.5 0.5-3.9 0.5-4.1 0.6-3.9 0.6-3.7 0.6-2.7 0.3c-0.1 0.1-0.2 0.1-0.2 0.3z"/>
    <path d="m55.9 51.8h-0.1l-2.8 0.4-2.9 0.4-2.9 0.4-3.4 0.4-2.7 0.4-1.9 0.2v13.9h16.5c0.2 0 0.2 0 0.2-0.2v-15.9z"/>
    <path d="m80 69.8h-21.9c-0.2 0-0.2 0-0.2 0.2v15.9h0.1l2.3 0.3 2.8 0.4 3 0.5 2.9 0.4 2.7 0.4 2.9 0.4 2.8 0.3 2.5 0.4c0.3 0 0.3 0.1 0.3-0.2v-18.8z"/>
    <path d="m55.9 73.7v-3.8c0-0.2 0-0.2-0.2-0.2h-16.5v13.8l1.3 0.2 3.6 0.5 3.6 0.5 4.1 0.6 3.9 0.5c0.2 0.1 0.2 0.1 0.2-0.2z"/>
   </g>
   <g fill="#f3f1e5">
    <path d="m49.9 102.5-1.5 4.5h-0.4l-1.4-4.1-1.4 4.1h-0.4l-1.5-4.5h0.3l1.4 4.1 1.4-4.1h0.4l1.4 4.1 1.4-4.1z"/>
    <path d="m50.9 102.5h0.3v4.5h-0.3z"/>
    <path d="m56.5 102.5v4.5h-0.3l-3.1-3.9v3.9h-0.3v-4.5h0.3l3.1 3.9v-3.9z"/>
    <path d="m58.1 102.5h1.8a2.3 2.3 0 1 1 0 4.5h-1.8zm1.8 4.2a1.9 1.9 0 0 0 2.1 -1.9 1.9 1.9 0 0 0 -2.1 -2h-1.4v3.9z"/>
    <path d="m63.1 104.8a2.4 2.4 0 1 1 4.7 0 2.3 2.3 0 0 1 -2.3 2.3 2.3 2.3 0 0 1 -2.4 -2.3zm4.4 0a1.9 1.9 0 0 0 -2 -2 2 2 0 0 0 -2.1 2 2 2 0 0 0 2.1 2 2 2 0 0 0 2 -2z"/>
    <path d="m75 102.5-1.6 4.5h-0.3l-1.5-4.1-1.4 4.1h-0.3l-1.6-4.5h0.4l1.4 4.1 1.4-4.1h0.3l1.4 4.1 1.4-4.1z"/>
    <path d="m75.5 106.5v-0.3a2.3 2.3 0 0 0 1.5 0.6c0.9 0 1.3-0.4 1.3-0.9s-2.8-0.6-2.8-2.2 0.5-1.3 1.6-1.3a2.4 2.4 0 0 1 1.4 0.5v0.2a3.3 3.3 0 0 0 -1.3 -0.4c-0.9 0-1.3 0.5-1.3 1s2.9 0.5 2.9 2.2-0.5 1.2-1.7 1.2a2.4 2.4 0 0 1 -1.6 -0.6z"/>
   </g>
   <g fill="#f3f1e5">
    <path d="m147.2 60.5c-7.2 4.8-6.1 14.6 1.1 17.8v0.4a27.1 27.1 0 0 1 -5.7 9.5 5.6 5.6 0 0 1 -4 2.2 6.7 6.7 0 0 1 -3.4 -0.7 19.7 19.7 0 0 0 -3.2 -1 8.4 8.4 0 0 0 -4.7 0.6 16.6 16.6 0 0 1 -2.9 1 4.7 4.7 0 0 1 -4.1 -0.9 10.7 10.7 0 0 1 -1.9 -1.8 29.1 29.1 0 0 1 -6.7 -14.8 17.7 17.7 0 0 1 0.9 -9.4 11.4 11.4 0 0 1 8.4 -7.1 9.5 9.5 0 0 1 5 0.5l2.8 1.1a4.2 4.2 0 0 0 2.7 0 31.2 31.2 0 0 1 4.3 -1.5 10.7 10.7 0 0 1 11.1 3.8z"/>
    <path d="m139 45.1a11.2 11.2 0 0 1 -0.7 4.5 9.3 9.3 0 0 1 -6.7 5.8l-1.1 0.2c-0.5 0.1-0.7-0.1-0.7-0.6a9.8 9.8 0 0 1 2 -5.9 10.2 10.2 0 0 1 6.5 -3.9z"/>
   </g>
   <g fill="#f3f1e5">
    <path d="m121.4 109.9v-4l-2 3.4h-0.2l-1.9-3.4v4h-0.4v-4.7h0.3l2.1 3.6 2.1-3.6h0.3v4.7z"/>
    <path d="m126.3 108.6h-2.8l-0.6 1.3h-0.3l2.1-4.7h0.4l2.1 4.7h-0.3zm-0.2-0.3-1.2-2.7-1.2 2.7z"/>
    <path d="m127.6 107.5a2.3 2.3 0 0 1 2.4 -2.3 2.4 2.4 0 0 1 1.7 0.6l-0.2 0.2a2 2 0 0 0 -1.5 -0.5 2 2 0 0 0 -2.1 2 2.1 2.1 0 0 0 2.1 2.1 2 2 0 0 0 1.5 -0.5l0.2 0.2a2.4 2.4 0 0 1 -1.7 0.6 2.3 2.3 0 0 1 -2.4 -2.4z"/>
    <path d="m134.1 107.5a2.4 2.4 0 0 1 2.5 -2.3 2.4 2.4 0 1 1 0 4.7 2.4 2.4 0 0 1 -2.5 -2.4zm4.6 0a2.1 2.1 0 0 0 -4.2 0 2.1 2.1 0 1 0 4.2 0z"/>
    <path d="m139.7 109.3l0.2-0.3a2 2 0 0 0 1.6 0.6c0.9 0 1.3-0.4 1.3-0.9s-2.9-0.6-2.9-2.3 0.5-1.2 1.6-1.2a2.4 2.4 0 0 1 1.5 0.4l-0.2 0.3a2 2 0 0 0 -1.3 -0.4c-0.9 0-1.3 0.4-1.3 0.9s3 0.6 3 2.3-0.6 1.2-1.7 1.2a2.6 2.6 0 0 1 -1.8 -0.6z"/>
   </g>
   <g fill="#f3f1e5">
    <path d="m215.7 77.6c0.4 0 0.6 0.3 0.7 0.7a10.5 10.5 0 0 1 0.4 1.7 1.6 1.6 0 0 0 0.8 1.4l1.6 1 0.8 0.6a1.5 1.5 0 0 1 -0.1 1.9 2.6 2.6 0 0 1 -1.1 0.7l-1.5 0.7a9.4 9.4 0 0 0 -2.3 1.6l-2.7 2.2a4.2 4.2 0 0 1 -1.8 1.1h-1.5a3.7 3.7 0 0 1 -2.5 -1.2l-0.5-0.6a0.1 0.1 0 0 0 -0.1 -0.1 39.2 39.2 0 0 0 -5.9 -0.5 11.4 11.4 0 0 0 -3.7 0.5l-0.7 0.3-0.2 0.2a3.4 3.4 0 0 1 -3.9 1l-3.1-0.9-3.8-1.1-2-0.4-1.6-0.5c-0.3-0.2-0.6-0.4-0.6-0.8a1.8 1.8 0 0 1 0.2 -1l0.8-1.3a2.3 2.3 0 0 0 0.1 -1.4l-0.3-2.4a2.3 2.3 0 0 1 0.7 -2 1.6 1.6 0 0 1 0.9 -0.3h1.6a1.1 1.1 0 0 0 0.7 -0.3c0.1 0 0.1 0 0.1-0.1l0.3-0.7a3.6 3.6 0 0 1 0.4 -0.9 1.7 1.7 0 0 1 -0.1 -1.4 13.1 13.1 0 0 1 0.8 -2.1l1.5-2.7a14 14 0 0 0 0.9 -2.9 7.6 7.6 0 0 1 1.7 -3.2c0.7-1 1.5-1.9 2.2-2.8a5.3 5.3 0 0 0 1.1 -2.4 8.6 8.6 0 0 0 0 -1.6l-0.3-3.3c-0.1-1.2-0.1-2.3-0.1-3.4a8.6 8.6 0 0 1 0.5 -3.2 5.6 5.6 0 0 1 2.2 -2.6 4.7 4.7 0 0 1 1.9 -0.6 11.4 11.4 0 0 1 2.6 -0.2h0.5l1.7 0.4a6.1 6.1 0 0 1 3.4 2.7 6.5 6.5 0 0 1 0.9 2.3 25.1 25.1 0 0 1 0.4 2.7l0.3 3.3a25.6 25.6 0 0 0 0.5 2.7 16.5 16.5 0 0 0 1.4 2.6l1.7 2.4 1 1.4a13.9 13.9 0 0 1 2.2 3.7 23.4 23.4 0 0 1 0.9 2.4 13.7 13.7 0 0 1 0.3 4.5 15.2 15.2 0 0 1 -0.3 2.2zm-24.5-10.4a3.5 3.5 0 0 0 -0.5 0.8l-1.2 2.5a9 9 0 0 0 -0.9 3.2 3.5 3.5 0 0 0 0.9 2.6 24.3 24.3 0 0 0 2.5 2 12.5 12.5 0 0 1 1.2 0.8 11.4 11.4 0 0 1 1.6 1.5 4 4 0 0 1 1 1.2 1.3 1.3 0 0 1 0.1 0.6 2.4 2.4 0 0 1 -1.4 1.4h-0.2c-0.2 0-0.2 0.1-0.1 0.2a4.1 4.1 0 0 0 0.5 0.9 2.2 2.2 0 0 0 1.2 0.9 6.9 6.9 0 0 0 2.5 0.4 11.9 11.9 0 0 0 3.7 -0.6 10.4 10.4 0 0 0 4.5 -3.5v-0.2a4.9 4.9 0 0 0 -0.1 -1.2c0-0.2-0.1-0.4-0.1-0.7a3.4 3.4 0 0 0 0.1 -1 3.4 3.4 0 0 1 0.5 -1.4 1.2 1.2 0 0 1 1.8 -0.4h0.1a2.5 2.5 0 0 0 0.1 -0.8c0-1 0.1-2.1 0.1-3.1a15.3 15.3 0 0 0 -0.3 -3 7 7 0 0 0 -1.1 -2.7l-0.6-0.9a10.9 10.9 0 0 1 -0.8 -1.5 4.7 4.7 0 0 1 -0.3 -1.7 0.4 0.4 0 0 0 -0.1 -0.3 20.1 20.1 0 0 1 -1.6 -3.3l-0.5-1.1c-0.1 0.1-0.1 0.1-0.1 0.2l-2.3 1.6a5.8 5.8 0 0 1 -3.6 0.8 1.9 1.9 0 0 1 -1.3 -0.5l-1-0.9h-0.1a4.1 4.1 0 0 1 -0.5 1.8 13 13 0 0 0 -1.4 2.9 3 3 0 0 0 -0.2 1 4.2 4.2 0 0 1 -0.4 1l-1.2 2.4c-0.3 0.7-0.7 1.5-1 2.3a9 9 0 0 0 -0.6 4.3v0.3h-0.1a2.3 2.3 0 0 1 -0.9 -1.9 7.7 7.7 0 0 1 0.4 -2.5 13.3 13.3 0 0 1 2.1 -4.1c0.1-0.1 0-0.2-0.1-0.2zm4 21a3.3 3.3 0 0 0 -0.4 -1.9 10.5 10.5 0 0 0 -2 -3.4c-0.6-0.9-1.3-1.7-1.8-2.6l-1.2-2a3.6 3.6 0 0 0 -1.6 -1.4 1.2 1.2 0 0 0 -1.3 -0.1 1.3 1.3 0 0 0 -0.9 0.9l-0.2 0.6a0.7 0.7 0 0 1 -0.6 0.7l-1 0.2h-2a2.3 2.3 0 0 0 -0.5 1.8c0.1 0.4 0.1 0.9 0.2 1.3a4.9 4.9 0 0 1 0.1 1.7 3.1 3.1 0 0 1 -0.6 1.3 11.7 11.7 0 0 1 -0.5 1.1 0.6 0.6 0 0 0 0.3 0.8l0.6 0.4 1.9 0.4a24.9 24.9 0 0 1 4.7 1.2l3.2 1.1a1.7 1.7 0 0 0 1 0.1 3.3 3.3 0 0 0 2.4 -1.2 1.4 1.4 0 0 0 0.2 -0.7c0.1 0.1 0-0.1 0-0.3zm11.9-6.1v2.5a0.6 0.6 0 0 1 -0.1 0.4 6.8 6.8 0 0 1 -0.2 1.4v1l-0.3 1.6a3.3 3.3 0 0 0 3.3 1.7 4.9 4.9 0 0 0 2.3 -1.1l1.8-1.5a14.1 14.1 0 0 1 3.6 -2.4l1-0.5c0.3-0.1 0.7-0.2 0.8-0.4a1.2 1.2 0 0 0 0 -1.7 3.6 3.6 0 0 0 -1.2 -0.8 3.4 3.4 0 0 1 -1.2 -0.9 3.5 3.5 0 0 1 -0.6 -1.4 7.5 7.5 0 0 0 -0.4 -1.6c-0.1-0.5-0.2-0.5-0.6-0.3h-0.2a6 6 0 0 1 -0.8 0.8c0 0.1-0.2 0.2-0.2 0.3l-1.1 0.8a2.1 2.1 0 0 1 -1.9 0.3 2.1 2.1 0 0 1 -1.8 -1.4l-0.3-1c0-0.2-0.1-0.3-0.3-0.4a0.8 0.8 0 0 0 -1.3 0.3 2 2 0 0 0 -0.3 1.1zm-12-23.6h-0.1a4.3 4.3 0 0 0 0.4 0.7l1.1 1a2.6 2.6 0 0 0 2.5 0.8 4.4 4.4 0 0 0 1.9 -0.7l2.9-1.9a1.5 1.5 0 0 0 0.6 -0.9c0-0.1 0.1-0.3 0-0.4l-0.6-0.5-0.7-0.3-2.1-0.9-1.3-0.4a2.6 2.6 0 0 0 -2.1 0.2l-0.4 0.2a5.3 5.3 0 0 0 -2 1.3 2.5 2.5 0 0 1 -0.4 0.7v0.3c0.1 0.1 0.2 0.4 0.4 0.5l1.2 0.7a1.6 1.6 0 0 0 1.2 0.4 4 4 0 0 0 1.9 -0.2 14.6 14.6 0 0 0 3 -1.7l0.2-0.2v0.2l0.2 0.2h-0.1a12.3 12.3 0 0 1 -3.2 1.7 4.2 4.2 0 0 1 -4.5 -0.9zm16.3 16.8h0.1a11.7 11.7 0 0 0 0.5 -4.9 5.6 5.6 0 0 0 -1.5 -3.2 2.4 2.4 0 0 0 -1.2 -0.7c-0.2-0.1-0.3 0-0.3 0.1s0 0.2 0.1 0.2a3.5 3.5 0 0 1 1.9 1.9 6 6 0 0 1 0.6 2.7 11 11 0 0 1 -0.8 4c0 0.1 0 0.1-0.1 0.2a2.9 2.9 0 0 0 -1.2 1l-0.4 0.6c0 0.1 0.1 0.2 0.1 0.3s0.1-0.1 0.2-0.1a2.7 2.7 0 0 1 0.7 -0.8 1.9 1.9 0 0 1 1.6 -0.7 6 6 0 0 1 2.2 0.4 1.6 1.6 0 0 1 0.8 0.6l0.5 0.8h0.2c0-0.1 0.1-0.1 0.1-0.2s-0.1-0.4-0.2-0.6a3.2 3.2 0 0 0 -1.2 -1.1l-1.7-0.4zm-10.4-20.1a0.8 0.8 0 0 1 -0.1 -0.4v-1a1.9 1.9 0 0 1 0.2 -0.7 1.1 1.1 0 0 1 1 -0.6 1.2 1.2 0 0 1 1.1 0.7 2.5 2.5 0 0 1 0.3 1.5 1.3 1.3 0 0 1 -0.8 1.1h0.2l0.5 0.2 0.3 0.2c0-0.4 0.1-0.7 0.1-1a6.5 6.5 0 0 0 0.1 -2.4 2.2 2.2 0 0 0 -0.5 -1.1 2.2 2.2 0 0 0 -2.2 -0.4 1.7 1.7 0 0 0 -1.1 1.6 4.7 4.7 0 0 0 0.3 1.7c0.1 0.4 0.3 0.5 0.6 0.6zm-3.7-0.3c0.1 0 0.1 0 0.1-0.1a0.5 0.5 0 0 0 0.2 -0.4v-1.1a1.9 1.9 0 0 0 -0.7 -1.4 1.3 1.3 0 0 0 -1.9 0.4 4.1 4.1 0 0 0 -0.4 1.9 2.6 2.6 0 0 0 0.8 1.9l0.5-0.3c-0.3-0.2-0.6-0.4-0.6-0.7a2.3 2.3 0 0 1 0.2 -2.1 0.8 0.8 0 0 1 0.8 -0.3 0.9 0.9 0 0 1 0.7 0.6 4.1 4.1 0 0 1 0.3 1.6zm4.8-1.7c0.1 0.1 0.1 0.2 0.2 0.2s0.4 0.4 0.5 0.6 0.1 0.3 0.3 0.2a1.3 1.3 0 0 0 -0.1 -0.6c0-0.3-0.2-0.4-0.4-0.6s-0.2 0.1-0.4 0.1zm-6.2 0.2h0.4l0.2 0.8h0.3a1.1 1.1 0 0 0 -0.2 -0.8 0.8 0.8 0 0 0 -0.4 -0.4h-0.1c-0.2 0.1-0.3 0.2-0.2 0.4z"/>
    <path d="m197.4 55.7a0.4 0.4 0 0 0 0.1 -0.3h0.7c0 0.2-0.4 0.6-0.5 0.7a0.3 0.3 0 0 1 -0.3 -0.4z"/>
    <path d="m199.4 56l-0.3-0.2a0.3 0.3 0 0 1 -0.1 -0.2c-0.1-0.1-0.1-0.1-0.1-0.2a0.1 0.1 0 0 1 0 -0.2h0.2a1 1 0 0 1 0.5 0.4c0.1 0.2 0 0.4-0.2 0.4z"/>
   </g>
   <g fill="#f3f1e5">
    <path d="m192.2 105.2h0.3v4.4h2.7v0.3h-3z"/>
    <path d="m196.1 105.2h0.4v4.7h-0.4z"/>
    <path d="m201.9 105.2v4.7h-0.3l-3.2-4.1v4.1h-0.3v-4.7h0.3l3.2 4.1v-4.1z"/>
    <path d="m203.5 107.9v-2.7h0.4v2.7c0 1.2 0.5 1.7 1.5 1.7s1.6-0.5 1.6-1.7v-2.7h0.3v2.7c0 1.4-0.7 2-1.9 2s-1.9-0.6-1.9-2z"/>
    <path d="m211.8 109.9l-1.6-2.2-1.6 2.2h-0.4l1.8-2.4-1.7-2.3h0.4l1.5 2 1.5-2h0.4l-1.7 2.3 1.8 2.4z"/>
   </g>
   <g fill="#f3f1e5">
    <path d="m36.9 26.4l0.4-0.6a5.5 5.5 0 0 0 3.8 1.5c2.2 0 3.3-1 3.3-2.3 0-3.4-7.2-1.4-7.2-5.6 0-1.6 1.3-3 4.1-3a6.5 6.5 0 0 1 3.4 1l-0.3 0.7a5.2 5.2 0 0 0 -3.1 -1c-2.3 0-3.2 1.1-3.2 2.3 0 3.4 7.1 1.4 7.1 5.6 0 1.6-1.3 3-4.1 3a5.6 5.6 0 0 1 -4.2 -1.6z"/>
    <path d="m48 16.5h0.8v11.4h-0.8z"/>
    <path d="m51.7 26.4l0.3-0.6a5.7 5.7 0 0 0 3.8 1.5c2.3 0 3.3-1 3.3-2.3 0-3.4-7.1-1.4-7.1-5.6 0-1.6 1.2-3 4-3a6.5 6.5 0 0 1 3.5 1l-0.3 0.7a5.5 5.5 0 0 0 -3.2 -1c-2.2 0-3.2 1.1-3.2 2.3 0 3.4 7.1 1.4 7.1 5.6 0 1.6-1.2 3-4.1 3a5.3 5.3 0 0 1 -4.1 -1.6z"/>
    <path d="m64.8 17.2h-4.1v-0.7h9v0.7h-4.1v10.7h-0.8z"/>
    <path d="m79.7 27.2v0.7h-7.9v-11.4h7.6v0.7h-6.8v4.5h6.1v0.8h-6.1v4.7z"/>
    <path d="m93.5 27.9v-9.8l-4.8 8.3h-0.4l-4.8-8.2v9.7h-0.8v-11.4h0.7l5.1 8.8 5.2-8.8h0.6v11.4z"/>
    <path d="m105.4 24.7h-6.6l-1.5 3.2h-0.9l5.3-11.4h0.8l5.3 11.4h-0.9zm-0.3-0.7-3-6.6-3 6.6z"/>
    <path d="m108.7 26.4l0.4-0.6a5.3 5.3 0 0 0 3.7 1.5c2.3 0 3.3-1 3.3-2.3 0-3.4-7.1-1.4-7.1-5.6 0-1.6 1.2-3 4-3a6.5 6.5 0 0 1 3.5 1l-0.3 0.7a5.5 5.5 0 0 0 -3.2 -1c-2.2 0-3.2 1.1-3.2 2.3 0 3.4 7.2 1.4 7.2 5.6 0 1.6-1.3 3-4.1 3a5.6 5.6 0 0 1 -4.2 -1.6z"/>
    <path d="m122.9 22.2a5.7 5.7 0 0 1 5.9 -5.8 5.8 5.8 0 1 1 0 11.6 5.7 5.7 0 0 1 -5.9 -5.8zm11 0a5.1 5.1 0 1 0 -5.1 5 4.9 4.9 0 0 0 5.1 -5z"/>
    <path d="m146.4 20.3c0 2.4-1.8 3.9-4.6 3.9h-3.3v3.7h-0.8v-11.4h4.1c2.8 0 4.6 1.4 4.6 3.8zm-0.9 0c0-1.9-1.3-3.1-3.7-3.1h-3.3v6.2h3.3c2.4 0 3.7-1.1 3.7-3.1z"/>
    <path d="m157.1 27.2v0.7h-7.9v-11.4h7.6v0.7h-6.8v4.5h6.1v0.8h-6.1v4.7z"/>
    <path d="m168 27.9l-2.7-3.8h-4.4v3.7h-0.8v-11.3h4.1c2.9 0 4.6 1.4 4.6 3.8a3.6 3.6 0 0 1 -2.7 3.6l2.9 4zm-3.8-4.5c2.5 0 3.8-1.1 3.8-3.1s-1.3-3.1-3.8-3.1h-3.3v6.2z"/>
    <path d="m178.9 24.7h-6.6l-1.4 3.2h-0.9l5.2-11.4h0.8l5.3 11.4h-0.9zm-0.3-0.7-3-6.6-3 6.6z"/>
    <path d="m185 17.2h-4.1v-0.7h9v0.7h-4.1v10.7h-0.8z"/>
    <path d="m192 16.5h0.8v11.4h-0.8z"/>
    <path d="m205.8 16.5l-5.1 11.4h-0.8l-5.1-11.4h0.9l4.6 10.3 4.6-10.3z"/>
    <path d="m206.4 22.2a5.8 5.8 0 0 1 6 -5.8 5.8 5.8 0 1 1 0 11.6 5.8 5.8 0 0 1 -6 -5.8zm11.1 0a5.1 5.1 0 1 0 -5.1 5 4.9 4.9 0 0 0 5.1 -5z"/>
    <path d="m220.1 26.4l0.3-0.6a5.7 5.7 0 0 0 3.8 1.5c2.3 0 3.3-1 3.3-2.3 0-3.4-7.1-1.4-7.1-5.6 0-1.6 1.2-3 4-3a6.5 6.5 0 0 1 3.5 1l-0.3 0.7a5.5 5.5 0 0 0 -3.2 -1c-2.2 0-3.2 1.1-3.2 2.3 0 3.4 7.1 1.4 7.1 5.6 0 1.6-1.2 3-4.1 3a5.3 5.3 0 0 1 -4.1 -1.6z"/>
   </g>
  </g>
 </g>
</svg>
