<svg xmlns="http://www.w3.org/2000/svg" viewBox="0 0 265.3 125.7">
  <title>Recurso 23</title>
  <g id="fc3ff6e4-ee68-4cdd-8a0c-82d9eca4a6fe" data-name="Capa 2">
    <g id="a1a1101f-e965-46da-8831-fd905083f92d" data-name="Capa 1">
      <g>
        <rect width="265.3" height="125.69" rx="12" style="fill: #171919"/>
        <g>
          <path d="M57.9,67.6a.2.2,0,0,0,.2.2H79.9c.3,0,.3,0,.3-.2V48.1H80a.1.1,0,0,1-.1.1l-3.5.5-3.9.5-4.1.6-3.9.6-3.7.6-2.7.3c-.1.1-.2.1-.2.3Z" style="fill: #f3f1e5"/>
          <path d="M55.9,51.8h-.1l-2.8.4-2.9.4-2.9.4-3.4.4-2.7.4-1.9.2v1.6h0V67.9H55.7c.2,0,.2,0,.2-.2V51.8Z" style="fill: #f3f1e5"/>
          <path d="M80,69.8H58.1c-.2,0-.2,0-.2.2V85.9H58l2.3.3,2.8.4,3,.5,2.9.4,2.7.4,2.9.4,2.8.3,2.5.4c.3,0,.3.1.3-.2V79.5h0V70Z" style="fill: #f3f1e5"/>
          <path d="M55.9,73.7V69.9c0-.2,0-.2-.2-.2H39.2V83.5h0l1.3.2,3.6.5,3.6.5,4.1.6,3.9.5c.2.1.2.1.2-.2Z" style="fill: #f3f1e5"/>
        </g>
        <g>
          <path d="M49.9,102.5,48.4,107H48l-1.4-4.1L45.2,107h-.4l-1.5-4.5h.3l1.4,4.1,1.4-4.1h.4l1.4,4.1,1.4-4.1Z" style="fill: #f3f1e5"/>
          <path d="M50.9,102.5h.3V107h-.3Z" style="fill: #f3f1e5"/>
          <path d="M56.5,102.5V107h-.3l-3.1-3.9V107h-.3v-4.5h.3l3.1,3.9v-3.9Z" style="fill: #f3f1e5"/>
          <path d="M58.1,102.5h1.8a2.3,2.3,0,1,1,0,4.5H58.1Zm1.8,4.2a1.9,1.9,0,0,0,2.1-1.9,1.9,1.9,0,0,0-2.1-2H58.5v3.9Z" style="fill: #f3f1e5"/>
          <path d="M63.1,104.8a2.4,2.4,0,1,1,4.7,0,2.3,2.3,0,0,1-2.3,2.3A2.3,2.3,0,0,1,63.1,104.8Zm4.4,0a1.9,1.9,0,0,0-2-2,2,2,0,0,0-2.1,2,2,2,0,0,0,2.1,2A2,2,0,0,0,67.5,104.8Z" style="fill: #f3f1e5"/>
          <path d="M75,102.5,73.4,107h-.3l-1.5-4.1L70.2,107h-.3l-1.6-4.5h.4l1.4,4.1,1.4-4.1h.3l1.4,4.1,1.4-4.1Z" style="fill: #f3f1e5"/>
          <path d="M75.5,106.5v-.3a2.3,2.3,0,0,0,1.5.6c.9,0,1.3-.4,1.3-.9s-2.8-.6-2.8-2.2.5-1.3,1.6-1.3a2.4,2.4,0,0,1,1.4.5v.2a3.3,3.3,0,0,0-1.3-.4c-.9,0-1.3.5-1.3,1s2.9.5,2.9,2.2-.5,1.2-1.7,1.2A2.4,2.4,0,0,1,75.5,106.5Z" style="fill: #f3f1e5"/>
        </g>
        <g>
          <path d="M147.2,60.5c-7.2,4.8-6.1,14.6,1.1,17.8v.4a27.1,27.1,0,0,1-5.7,9.5,5.6,5.6,0,0,1-4,2.2,6.7,6.7,0,0,1-3.4-.7,19.7,19.7,0,0,0-3.2-1,8.4,8.4,0,0,0-4.7.6,16.6,16.6,0,0,1-2.9,1,4.7,4.7,0,0,1-4.1-.9,10.7,10.7,0,0,1-1.9-1.8,29.1,29.1,0,0,1-6.7-14.8,17.7,17.7,0,0,1,.9-9.4,11.4,11.4,0,0,1,8.4-7.1,9.5,9.5,0,0,1,5,.5l2.8,1.1a4.2,4.2,0,0,0,2.7,0,31.2,31.2,0,0,1,4.3-1.5,10.7,10.7,0,0,1,11.1,3.8Z" style="fill: #f3f1e5"/>
          <path d="M139,45.1a11.2,11.2,0,0,1-.7,4.5,9.3,9.3,0,0,1-6.7,5.8l-1.1.2c-.5.1-.7-.1-.7-.6a9.8,9.8,0,0,1,2-5.9,10.2,10.2,0,0,1,6.5-3.9Z" style="fill: #f3f1e5"/>
        </g>
        <g>
          <path d="M121.4,109.9v-4l-2,3.4h-.2l-1.9-3.4v4h-.4v-4.7h.3l2.1,3.6,2.1-3.6h.3v4.7Z" style="fill: #f3f1e5"/>
          <path d="M126.3,108.6h-2.8l-.6,1.3h-.3l2.1-4.7h.4l2.1,4.7h-.3Zm-.2-.3-1.2-2.7-1.2,2.7Z" style="fill: #f3f1e5"/>
          <path d="M127.6,107.5a2.3,2.3,0,0,1,2.4-2.3,2.4,2.4,0,0,1,1.7.6l-.2.2a2,2,0,0,0-1.5-.5,2,2,0,0,0-2.1,2,2.1,2.1,0,0,0,2.1,2.1,2,2,0,0,0,1.5-.5l.2.2a2.4,2.4,0,0,1-1.7.6A2.3,2.3,0,0,1,127.6,107.5Z" style="fill: #f3f1e5"/>
          <path d="M134.1,107.5a2.4,2.4,0,0,1,2.5-2.3,2.4,2.4,0,1,1,0,4.7A2.4,2.4,0,0,1,134.1,107.5Zm4.6,0a2.1,2.1,0,0,0-4.2,0,2.1,2.1,0,1,0,4.2,0Z" style="fill: #f3f1e5"/>
          <path d="M139.7,109.3l.2-.3a2,2,0,0,0,1.6.6c.9,0,1.3-.4,1.3-.9s-2.9-.6-2.9-2.3.5-1.2,1.6-1.2a2.4,2.4,0,0,1,1.5.4l-.2.3a2,2,0,0,0-1.3-.4c-.9,0-1.3.4-1.3.9s3,.6,3,2.3-.6,1.2-1.7,1.2A2.6,2.6,0,0,1,139.7,109.3Z" style="fill: #f3f1e5"/>
        </g>
        <g>
          <path d="M215.7,77.6c.4,0,.6.3.7.7a10.5,10.5,0,0,1,.4,1.7,1.6,1.6,0,0,0,.8,1.4l1.6,1,.8.6a1.5,1.5,0,0,1-.1,1.9,2.6,2.6,0,0,1-1.1.7l-1.5.7a9.4,9.4,0,0,0-2.3,1.6l-2.7,2.2a4.2,4.2,0,0,1-1.8,1.1H209a3.7,3.7,0,0,1-2.5-1.2l-.5-.6a.1.1,0,0,0-.1-.1,39.2,39.2,0,0,0-5.9-.5,11.4,11.4,0,0,0-3.7.5l-.7.3-.2.2a3.4,3.4,0,0,1-3.9,1l-3.1-.9-3.8-1.1-2-.4-1.6-.5c-.3-.2-.6-.4-.6-.8a1.8,1.8,0,0,1,.2-1l.8-1.3a2.3,2.3,0,0,0,.1-1.4l-.3-2.4a2.3,2.3,0,0,1,.7-2,1.6,1.6,0,0,1,.9-.3h1.6a1.1,1.1,0,0,0,.7-.3c.1,0,.1,0,.1-.1l.3-.7a3.6,3.6,0,0,1,.4-.9,1.7,1.7,0,0,1-.1-1.4,13.1,13.1,0,0,1,.8-2.1l1.5-2.7a14,14,0,0,0,.9-2.9,7.6,7.6,0,0,1,1.7-3.2c.7-1,1.5-1.9,2.2-2.8a5.3,5.3,0,0,0,1.1-2.4,8.6,8.6,0,0,0,0-1.6l-.3-3.3c-.1-1.2-.1-2.3-.1-3.4a8.6,8.6,0,0,1,.5-3.2,5.6,5.6,0,0,1,2.2-2.6,4.7,4.7,0,0,1,1.9-.6,11.4,11.4,0,0,1,2.6-.2h.5l1.7.4a6.1,6.1,0,0,1,3.4,2.7,6.5,6.5,0,0,1,.9,2.3,25.1,25.1,0,0,1,.4,2.7l.3,3.3a25.6,25.6,0,0,0,.5,2.7,16.5,16.5,0,0,0,1.4,2.6l1.7,2.4,1,1.4a13.9,13.9,0,0,1,2.2,3.7,23.4,23.4,0,0,1,.9,2.4,13.7,13.7,0,0,1,.3,4.5A15.2,15.2,0,0,1,215.7,77.6ZM191.2,67.2h0a3.5,3.5,0,0,0-.5.8l-1.2,2.5a9,9,0,0,0-.9,3.2,3.5,3.5,0,0,0,.9,2.6,24.3,24.3,0,0,0,2.5,2,12.5,12.5,0,0,1,1.2.8,11.4,11.4,0,0,1,1.6,1.5,4,4,0,0,1,1,1.2,1.3,1.3,0,0,1,.1.6,2.4,2.4,0,0,1-1.4,1.4h-.2c-.2,0-.2.1-.1.2a4.1,4.1,0,0,0,.5.9,2.2,2.2,0,0,0,1.2.9,6.9,6.9,0,0,0,2.5.4,11.9,11.9,0,0,0,3.7-.6,10.4,10.4,0,0,0,4.5-3.5v-.2a4.9,4.9,0,0,0-.1-1.2c0-.2-.1-.4-.1-.7a3.4,3.4,0,0,0,.1-1,3.4,3.4,0,0,1,.5-1.4,1.2,1.2,0,0,1,1.8-.4h.1a2.5,2.5,0,0,0,.1-.8c0-1,.1-2.1.1-3.1a15.3,15.3,0,0,0-.3-3,7,7,0,0,0-1.1-2.7l-.6-.9a10.9,10.9,0,0,1-.8-1.5,4.7,4.7,0,0,1-.3-1.7.4.4,0,0,0-.1-.3,20.1,20.1,0,0,1-1.6-3.3l-.5-1.1c-.1.1-.1.1-.1.2l-2.3,1.6a5.8,5.8,0,0,1-3.6.8,1.9,1.9,0,0,1-1.3-.5l-1-.9h-.1a4.1,4.1,0,0,1-.5,1.8,13,13,0,0,0-1.4,2.9,3,3,0,0,0-.2,1,4.2,4.2,0,0,1-.4,1l-1.2,2.4c-.3.7-.7,1.5-1,2.3a9,9,0,0,0-.6,4.3v.3H190a2.3,2.3,0,0,1-.9-1.9,7.7,7.7,0,0,1,.4-2.5,13.3,13.3,0,0,1,2.1-4.1c.1-.1,0-.2-.1-.2Zm4,21a3.3,3.3,0,0,0-.4-1.9,10.5,10.5,0,0,0-2-3.4c-.6-.9-1.3-1.7-1.8-2.6l-1.2-2a3.6,3.6,0,0,0-1.6-1.4,1.2,1.2,0,0,0-1.3-.1,1.3,1.3,0,0,0-.9.9l-.2.6a.7.7,0,0,1-.6.7l-1,.2h-2a2.3,2.3,0,0,0-.5,1.8c.1.4.1.9.2,1.3a4.9,4.9,0,0,1,.1,1.7,3.1,3.1,0,0,1-.6,1.3,11.7,11.7,0,0,1-.5,1.1.6.6,0,0,0,.3.8l.6.4,1.9.4a24.9,24.9,0,0,1,4.7,1.2l3.2,1.1a1.7,1.7,0,0,0,1,.1,3.3,3.3,0,0,0,2.4-1.2,1.4,1.4,0,0,0,.2-.7C195.3,88.6,195.2,88.4,195.2,88.2Zm11.9-6.1h0v2.5a.6.6,0,0,1-.1.4,6.8,6.8,0,0,1-.2,1.4v1l-.3,1.6h0a3.3,3.3,0,0,0,3.3,1.7,4.9,4.9,0,0,0,2.3-1.1l1.8-1.5a14.1,14.1,0,0,1,3.6-2.4l1-.5c.3-.1.7-.2.8-.4a1.2,1.2,0,0,0,0-1.7,3.6,3.6,0,0,0-1.2-.8,3.4,3.4,0,0,1-1.2-.9,3.5,3.5,0,0,1-.6-1.4,7.5,7.5,0,0,0-.4-1.6c-.1-.5-.2-.5-.6-.3h-.2a6,6,0,0,1-.8.8c0,.1-.2.2-.2.3l-1.1.8a2.1,2.1,0,0,1-1.9.3,2.1,2.1,0,0,1-1.8-1.4l-.3-1c0-.2-.1-.3-.3-.4a.8.8,0,0,0-1.3.3,2,2,0,0,0-.3,1.1Zm-12-23.6H195a4.3,4.3,0,0,0,.4.7l1.1,1a2.6,2.6,0,0,0,2.5.8,4.4,4.4,0,0,0,1.9-.7l2.9-1.9a1.5,1.5,0,0,0,.6-.9c0-.1.1-.3,0-.4l-.6-.5-.7-.3-2.1-.9-1.3-.4a2.6,2.6,0,0,0-2.1.2l-.4.2a5.3,5.3,0,0,0-2,1.3,2.5,2.5,0,0,1-.4.7v.3c.1.1.2.4.4.5l1.2.7a1.6,1.6,0,0,0,1.2.4,4,4,0,0,0,1.9-.2,14.6,14.6,0,0,0,3-1.7l.2-.2v.2l.2.2h-.1a12.3,12.3,0,0,1-3.2,1.7,4.2,4.2,0,0,1-4.5-.9Zm16.3,16.8h.1a11.7,11.7,0,0,0,.5-4.9,5.6,5.6,0,0,0-1.5-3.2,2.4,2.4,0,0,0-1.2-.7c-.2-.1-.3,0-.3.1s0,.2.1.2a3.5,3.5,0,0,1,1.9,1.9,6,6,0,0,1,.6,2.7,11,11,0,0,1-.8,4c0,.1,0,.1-.1.2a2.9,2.9,0,0,0-1.2,1l-.4.6c0,.1.1.2.1.3s.1-.1.2-.1a2.7,2.7,0,0,1,.7-.8,1.9,1.9,0,0,1,1.6-.7,6,6,0,0,1,2.2.4,1.6,1.6,0,0,1,.8.6l.5.8h.2c0-.1.1-.1.1-.2s-.1-.4-.2-.6a3.2,3.2,0,0,0-1.2-1.1l-1.7-.4ZM201,55.2a.8.8,0,0,1-.1-.4v-1a1.9,1.9,0,0,1,.2-.7,1.1,1.1,0,0,1,1-.6,1.2,1.2,0,0,1,1.1.7,2.5,2.5,0,0,1,.3,1.5,1.3,1.3,0,0,1-.8,1.1h.2l.5.2.3.2c0-.4.1-.7.1-1a6.5,6.5,0,0,0,.1-2.4,2.2,2.2,0,0,0-.5-1.1,2.2,2.2,0,0,0-2.2-.4,1.7,1.7,0,0,0-1.1,1.6,4.7,4.7,0,0,0,.3,1.7C200.5,55,200.7,55.1,201,55.2Zm-3.7-.3c.1,0,.1,0,.1-.1a.5.5,0,0,0,.2-.4V53.3a1.9,1.9,0,0,0-.7-1.4,1.3,1.3,0,0,0-1.9.4,4.1,4.1,0,0,0-.4,1.9,2.6,2.6,0,0,0,.8,1.9l.5-.3c-.3-.2-.6-.4-.6-.7a2.3,2.3,0,0,1,.2-2.1.8.8,0,0,1,.8-.3.9.9,0,0,1,.7.6A4.1,4.1,0,0,1,197.3,54.9Zm4.8-1.7c.1.1.1.2.2.2s.4.4.5.6.1.3.3.2a1.3,1.3,0,0,0-.1-.6c0-.3-.2-.4-.4-.6s-.2.1-.4.1Zm-6.2.2h.4l.2.8h.3a1.1,1.1,0,0,0-.2-.8.8.8,0,0,0-.4-.4h-.1C195.9,53.1,195.8,53.2,195.9,53.4Z" style="fill: #f3f1e5"/>
          <path d="M197.4,55.7a.4.4,0,0,0,.1-.3h.7c0,.2-.4.6-.5.7A.3.3,0,0,1,197.4,55.7Z" style="fill: #f3f1e5"/>
          <path d="M199.4,56l-.3-.2a.3.3,0,0,1-.1-.2c-.1-.1-.1-.1-.1-.2a.1.1,0,0,1,0-.2h.2a1,1,0,0,1,.5.4C199.7,55.8,199.6,56,199.4,56Z" style="fill: #f3f1e5"/>
        </g>
        <g>
          <path d="M192.2,105.2h.3v4.4h2.7v.3h-3Z" style="fill: #f3f1e5"/>
          <path d="M196.1,105.2h.4v4.7h-.4Z" style="fill: #f3f1e5"/>
          <path d="M201.9,105.2v4.7h-.3l-3.2-4.1v4.1h-.3v-4.7h.3l3.2,4.1v-4.1Z" style="fill: #f3f1e5"/>
          <path d="M203.5,107.9v-2.7h.4v2.7c0,1.2.5,1.7,1.5,1.7s1.6-.5,1.6-1.7v-2.7h.3v2.7c0,1.4-.7,2-1.9,2S203.5,109.3,203.5,107.9Z" style="fill: #f3f1e5"/>
          <path d="M211.8,109.9l-1.6-2.2-1.6,2.2h-.4l1.8-2.4-1.7-2.3h.4l1.5,2,1.5-2h.4l-1.7,2.3,1.8,2.4Z" style="fill: #f3f1e5"/>
        </g>
        <g>
          <path d="M36.9,26.4l.4-.6a5.5,5.5,0,0,0,3.8,1.5c2.2,0,3.3-1,3.3-2.3,0-3.4-7.2-1.4-7.2-5.6,0-1.6,1.3-3,4.1-3a6.5,6.5,0,0,1,3.4,1l-.3.7a5.2,5.2,0,0,0-3.1-1c-2.3,0-3.2,1.1-3.2,2.3,0,3.4,7.1,1.4,7.1,5.6,0,1.6-1.3,3-4.1,3A5.6,5.6,0,0,1,36.9,26.4Z" style="fill: #f3f1e5"/>
          <path d="M48,16.5h.8V27.9H48Z" style="fill: #f3f1e5"/>
          <path d="M51.7,26.4l.3-.6a5.7,5.7,0,0,0,3.8,1.5c2.3,0,3.3-1,3.3-2.3,0-3.4-7.1-1.4-7.1-5.6,0-1.6,1.2-3,4-3a6.5,6.5,0,0,1,3.5,1l-.3.7a5.5,5.5,0,0,0-3.2-1c-2.2,0-3.2,1.1-3.2,2.3,0,3.4,7.1,1.4,7.1,5.6,0,1.6-1.2,3-4.1,3A5.3,5.3,0,0,1,51.7,26.4Z" style="fill: #f3f1e5"/>
          <path d="M64.8,17.2H60.7v-.7h9v.7H65.6V27.9h-.8Z" style="fill: #f3f1e5"/>
          <path d="M79.7,27.2v.7H71.8V16.5h7.6v.7H72.6v4.5h6.1v.8H72.6v4.7Z" style="fill: #f3f1e5"/>
          <path d="M93.5,27.9V18.1l-4.8,8.3h-.4l-4.8-8.2v9.7h-.8V16.5h.7l5.1,8.8,5.2-8.8h.6V27.9Z" style="fill: #f3f1e5"/>
          <path d="M105.4,24.7H98.8l-1.5,3.2h-.9l5.3-11.4h.8l5.3,11.4h-.9Zm-.3-.7-3-6.6-3,6.6Z" style="fill: #f3f1e5"/>
          <path d="M108.7,26.4l.4-.6a5.3,5.3,0,0,0,3.7,1.5c2.3,0,3.3-1,3.3-2.3,0-3.4-7.1-1.4-7.1-5.6,0-1.6,1.2-3,4-3a6.5,6.5,0,0,1,3.5,1l-.3.7a5.5,5.5,0,0,0-3.2-1c-2.2,0-3.2,1.1-3.2,2.3,0,3.4,7.2,1.4,7.2,5.6,0,1.6-1.3,3-4.1,3A5.6,5.6,0,0,1,108.7,26.4Z" style="fill: #f3f1e5"/>
          <path d="M122.9,22.2a5.7,5.7,0,0,1,5.9-5.8,5.8,5.8,0,1,1,0,11.6A5.7,5.7,0,0,1,122.9,22.2Zm11,0a5.1,5.1,0,1,0-5.1,5A4.9,4.9,0,0,0,133.9,22.2Z" style="fill: #f3f1e5"/>
          <path d="M146.4,20.3c0,2.4-1.8,3.9-4.6,3.9h-3.3v3.7h-.8V16.5h4.1C144.6,16.5,146.4,17.9,146.4,20.3Zm-.9,0c0-1.9-1.3-3.1-3.7-3.1h-3.3v6.2h3.3C144.2,23.4,145.5,22.3,145.5,20.3Z" style="fill: #f3f1e5"/>
          <path d="M157.1,27.2v.7h-7.9V16.5h7.6v.7H150v4.5h6.1v.8H150v4.7Z" style="fill: #f3f1e5"/>
          <path d="M168,27.9l-2.7-3.8h-4.4v3.7h-.8V16.5h4.1c2.9,0,4.6,1.4,4.6,3.8a3.6,3.6,0,0,1-2.7,3.6l2.9,4Zm-3.8-4.5c2.5,0,3.8-1.1,3.8-3.1s-1.3-3.1-3.8-3.1h-3.3v6.2Z" style="fill: #f3f1e5"/>
          <path d="M178.9,24.7h-6.6l-1.4,3.2H170l5.2-11.4h.8l5.3,11.4h-.9Zm-.3-.7-3-6.6-3,6.6Z" style="fill: #f3f1e5"/>
          <path d="M185,17.2h-4.1v-.7h9v.7h-4.1V27.9H185Z" style="fill: #f3f1e5"/>
          <path d="M192,16.5h.8V27.9H192Z" style="fill: #f3f1e5"/>
          <path d="M205.8,16.5l-5.1,11.4h-.8l-5.1-11.4h.9l4.6,10.3,4.6-10.3Z" style="fill: #f3f1e5"/>
          <path d="M206.4,22.2a5.8,5.8,0,0,1,6-5.8,5.8,5.8,0,1,1,0,11.6A5.8,5.8,0,0,1,206.4,22.2Zm11.1,0a5.1,5.1,0,1,0-5.1,5A4.9,4.9,0,0,0,217.5,22.2Z" style="fill: #f3f1e5"/>
          <path d="M220.1,26.4l.3-.6a5.7,5.7,0,0,0,3.8,1.5c2.3,0,3.3-1,3.3-2.3,0-3.4-7.1-1.4-7.1-5.6,0-1.6,1.2-3,4-3a6.5,6.5,0,0,1,3.5,1l-.3.7a5.5,5.5,0,0,0-3.2-1c-2.2,0-3.2,1.1-3.2,2.3,0,3.4,7.1,1.4,7.1,5.6,0,1.6-1.2,3-4.1,3A5.3,5.3,0,0,1,220.1,26.4Z" style="fill: #f3f1e5"/>
        </g>
      </g>
    </g>
  </g>
</svg>
