<?xml version="1.0" encoding="UTF-8" standalone="no"?>
<svg xmlns="http://www.w3.org/2000/svg" viewBox="0 0 491.8 116">
 <title>Recurso 9</title>
 <g id="a010bbf7-976d-4d87-ad11-24837966a8b8" data-name="Capa 2">
  <g id="a81a58f7-1f1c-4eeb-ad98-cfb276faa723" data-name="Capa 1">
   <g stroke="#f2f2f2" stroke-miterlimit="10" fill="none">
    <path d="m50.3 48.7a1.6 1.6 0 0 1 -1.9 1.4 89.8 89.8 0 0 0 -15.3 -1.9c-8.2-0.1-9.3 5.2-9.3 6.6s0.9 7.1 10.8 9.5 21 11.4 21 27.2-9 24-31.8 24a164.6 164.6 0 0 1 -17.7 -1 1.7 1.7 0 0 1 -1.4 -1.8l1.6-16.3a1.6 1.6 0 0 1 1.9 -1.4 82.9 82.9 0 0 0 14.8 1.9c8.3 0.1 9.3-5.2 9.3-6.6s-0.9-7.1-10.8-9.5-21-11.4-21-27.2 12.3-24 31.8-24a170.3 170.3 0 0 1 18.2 1.1 1.6 1.6 0 0 1 1.4 1.7z"/>
    <path d="m144.6 71.9c0 24.1-19.8 43.6-44.2 43.6s-44.2-19.5-44.2-43.6 19.8-43.5 44.2-43.5 44.2 19.5 44.2 43.5zm-24 0a20.3 20.3 0 1 0 -20.2 20 20.1 20.1 0 0 0 20.2 -20z"/>
    <path d="m212.8 86.4c0 17.7-10.3 26.7-21.8 26.7h-42.3a1.8 1.8 0 0 1 -1.7 -1.7v-80.2a1.7 1.7 0 0 1 1.7 -1.6h37.6c12 0 22.4 8.7 22.4 25.7 0 9.1-2.8 12.3-2.8 12.3a28.7 28.7 0 0 1 6.9 18.8zm-42.3-25.8a0.9 0.9 0 0 0 0.8 0.8h7.5a6.2 6.2 0 0 0 0 -12.4h-7.5a0.9 0.9 0 0 0 -0.8 0.8zm18.3 26.9a6.2 6.2 0 0 0 -6.2 -6.2h-11.3a0.8 0.8 0 0 0 -0.8 0.8v10.7a0.8 0.8 0 0 0 0.8 0.8h11.3a6.1 6.1 0 0 0 6.2 -6.1z"/>
    <path d="m281.7 112.6a1.6 1.6 0 0 1 -1.6 1.7h-21.6a1.7 1.7 0 0 1 -1.7 -1.6c-0.4-13.7-7.3-20.7-18.1-21.4v21.4a1.6 1.6 0 0 1 -1.6 1.6h-20.2a1.6 1.6 0 0 1 -1.6 -1.6v-81.5a1.6 1.6 0 0 1 1.6 -1.6h39.7c13.6 0 24.7 9.6 24.7 29.9 0 11.9-3.8 20.1-9.8 24.9 6.1 6.9 9.9 16.4 10.2 28.2zm-43-43.5a0.9 0.9 0 0 0 0.9 0.8h9.5c4.7 0 8.6-3.7 8.6-9.7s-3.9-9.6-8.6-9.6h-9.5a0.8 0.8 0 0 0 -0.9 0.7z"/>
    <path d="m284.3 111.4v-80.2a1.6 1.6 0 0 1 1.6 -1.6h49a1.7 1.7 0 0 1 1.7 1.6v16.7a1.7 1.7 0 0 1 -1.7 1.6h-27.2v11.9h23.5a1.6 1.6 0 0 1 1.6 1.6v16.7a1.6 1.6 0 0 1 -1.6 1.6h-23.5v11.9h27.2a1.7 1.7 0 0 1 1.7 1.6v16.6a1.8 1.8 0 0 1 -1.7 1.7h-49a1.7 1.7 0 0 1 -1.6 -1.7z"/>
    <path d="m435.2 29.6h21.1a1.7 1.7 0 0 1 1.7 1.6v80.2a1.8 1.8 0 0 1 -1.7 1.7h-20.1a1.8 1.8 0 0 1 -1.7 -1.7v-40.5l-6.2 26.1a1.5 1.5 0 0 1 -1.6 1.3h-21a1.6 1.6 0 0 1 -1.6 -1.3l-6.2-26.1v40.5a1.7 1.7 0 0 1 -1.6 1.7h-20.2a1.7 1.7 0 0 1 -1.6 -1.7v-80.2a1.6 1.6 0 0 1 1.6 -1.6h21.1a2.1 2.1 0 0 1 1.2 0.4c7.6 7.7 17.8 35.7 17.8 35.7s10.2-28 17.8-35.7a1.7 1.7 0 0 1 1.2 -0.4z"/>
    <path d="m462.1 113.1a1.8 1.8 0 0 1 -1.7 -1.7v-80.2a1.7 1.7 0 0 1 1.7 -1.6h20.1a1.7 1.7 0 0 1 1.7 1.6v80.2a1.8 1.8 0 0 1 -1.7 1.7zm-1-93.5a1.7 1.7 0 0 1 0.1 -2.3l19.1-16.4a1.7 1.7 0 0 1 2.4 0.3l8.3 11.4a1.6 1.6 0 0 1 -0.4 2.4l-20.5 13.1a1.7 1.7 0 0 1 -2.1 -0.3z"/>
   </g>
  </g>
 </g>
</svg>
