<svg xmlns="http://www.w3.org/2000/svg" viewBox="0 0 265.3 125.7">
  <title>Recurso 22</title>
  <g id="ad30dfd9-ef53-4944-a595-dd06849bcbec" data-name="Capa 2">
    <g id="bfaa8694-d4ff-4e79-9a33-1355c5f7b14a" data-name="Capa 1">
      <g>
        <rect width="265.3" height="125.69" rx="12" style="fill: #171919"/>
        <path d="M102.6,80.6l25,3V50.4h-.2l-5.8,1.4-6.9,1.6-3.4.8c-.2,0-.2.1-.2.2V76.7l-8.7,3.8V52.1h.2l22.7-8.4,2.1-.8h.3l13.4,4.3h.2V85.5h-.2l-13.4,4.1h-.3l-11.2-4-13.4-4.8Z" style="fill: #f3f1e5"/>
        <g>
          <path d="M41.9,43.5H23.2V89.2h.1V89L35.9,58.2c1.9-4.8,3.9-9.5,5.9-14.3A.8.8,0,0,1,41.9,43.5Z" style="fill: #f3f1e5"/>
          <path d="M55.4,75.9C53.2,71,51.1,66.1,49,61.1c0-.1-.1-.2-.1-.3s-8.3,19.4-8.4,19.6h8.8a.4.4,0,0,1,.1.3c1.3,2.7,2.5,5.5,3.7,8.2a.4.4,0,0,1,.1.3h7.9a.4.4,0,0,1-.1-.3C59.1,84.5,57.2,80.2,55.4,75.9Z" style="fill: #f3f1e5"/>
          <path d="M55.8,43.5c0,.1,0,.2.1.2q9.5,22.6,19,45.3h0V43.5Z" style="fill: #f3f1e5"/>
        </g>
        <g>
          <path d="M221.3,48.4c0-.2,0-.2-.1-.3L211,43.9l-1-.4V82.2h0c0,.2-.1.2-.2.2l-.8-.2-3.7-.5-3.7-.6-4-.6-3.9-.6-4-.5-4-.6-3.7-.6-3.7-.5-2-.3h.1L191,82.5l18.2,6.1.7.3h.3l10.9-4.6c.2,0,.3-.1.2-.3Z" style="fill: #f3f1e5"/>
          <path d="M185,62.7a.2.2,0,0,1,0,.3l-4.2,4.2-2,2,2.4.8h.3l6-4.5c.1-.1.2-.1.3.1l2.1,2c2.7,2.7,5.4,5.3,8,8h.3l6-2.5a.4.4,0,0,0,.1-.3V53c0-.2,0-.3-.2-.3l-5.8-2.5c-.2-.1-.3,0-.4.1l-10.1,10a.2.2,0,0,1-.3,0l-6-4.5h-.3l-.8.2-1.6.6h.1Zm13.1-5.2V68.3l-7.2-5.4Z" style="fill: #f3f1e5"/>
        </g>
        <g>
          <path d="M25.1,109.1v-.2a2.4,2.4,0,0,0,1.6.6c.9,0,1.3-.4,1.3-1s-2.9-.5-2.9-2.3.5-1.2,1.6-1.2a3.3,3.3,0,0,1,1.5.4l-.2.3a2,2,0,0,0-1.3-.4c-.9,0-1.3.4-1.3.9s3,.6,3,2.3-.6,1.3-1.7,1.3A2.2,2.2,0,0,1,25.1,109.1Z" style="fill: #f3f1e5"/>
          <path d="M29.6,107.7V105h.3v2.7c0,1.2.6,1.8,1.6,1.8s1.5-.6,1.5-1.8V105h.4v2.7a1.8,1.8,0,0,1-1.9,2.1C30.3,109.8,29.6,109.1,29.6,107.7Z" style="fill: #f3f1e5"/>
          <path d="M35,105h.3v4.7H35Z" style="fill: #f3f1e5"/>
          <path d="M37.9,105.3H36.2V105h3.7v.3H38.2v4.4h-.3Z" style="fill: #f3f1e5"/>
          <path d="M44,109.4v.3H40.7V105h3.2v.3H41.1v1.9h2.5v.3H41.1v1.9Z" style="fill: #f3f1e5"/>
          <path d="M49.9,108.4H47.2l-.6,1.3h-.4l2.2-4.7h.3l2.2,4.7h-.4Zm-.1-.3-1.3-2.7-1.2,2.7Z" style="fill: #f3f1e5"/>
          <path d="M51.7,105h1.9a2.3,2.3,0,0,1,2.5,2.4,2.3,2.3,0,0,1-2.5,2.3H51.7Zm1.9,4.4a1.9,1.9,0,0,0,2.1-2,2,2,0,0,0-2.1-2.1H52.1v4.1Z" style="fill: #f3f1e5"/>
          <path d="M56.8,107.4a2.4,2.4,0,0,1,2.5-2.4,2.4,2.4,0,0,1,0,4.8A2.4,2.4,0,0,1,56.8,107.4Zm4.6,0a2.1,2.1,0,1,0-2.1,2.1A2.1,2.1,0,0,0,61.4,107.4Z" style="fill: #f3f1e5"/>
          <path d="M66.8,108.5q0,1.2-1.8,1.2H62.9V105h2c1,0,1.6.5,1.6,1.2a1,1,0,0,1-.8,1.1A1.1,1.1,0,0,1,66.8,108.5Zm-3.5-3.2v1.9h1.6c.8,0,1.3-.3,1.3-.9s-.5-1-1.3-1Zm3.1,3.2c0-.7-.5-1-1.4-1H63.3v1.9H65C65.9,109.4,66.4,109.1,66.4,108.5Z" style="fill: #f3f1e5"/>
          <path d="M71.2,109.4v.3H68V105h3.1v.3H68.3v1.9h2.5v.3H68.3v1.9Z" style="fill: #f3f1e5"/>
        </g>
        <g>
          <path d="M99.4,109.1l.2-.2a2.3,2.3,0,0,0,1.5.6c1,0,1.4-.4,1.4-1s-2.9-.5-2.9-2.3.5-1.2,1.6-1.2a2.9,2.9,0,0,1,1.4.4v.3a2,2,0,0,0-1.3-.4c-.9,0-1.3.4-1.3.9s2.9.6,2.9,2.3-.5,1.3-1.7,1.3A2.4,2.4,0,0,1,99.4,109.1Z" style="fill: #f3f1e5"/>
          <path d="M104,107.7V105h.3v2.7c0,1.2.6,1.8,1.6,1.8s1.5-.6,1.5-1.8V105h.3v2.7c0,1.4-.7,2.1-1.8,2.1S104,109.1,104,107.7Z" style="fill: #f3f1e5"/>
          <path d="M109.3,105h.4v4.7h-.4Z" style="fill: #f3f1e5"/>
          <path d="M112.2,105.3h-1.7V105h3.8v.3h-1.7v4.4h-.4Z" style="fill: #f3f1e5"/>
          <path d="M118.4,109.4v.3h-3.3V105h3.2v.3h-2.8v1.9H118v.3h-2.5v1.9Z" style="fill: #f3f1e5"/>
          <path d="M120.9,107.4a2.3,2.3,0,0,1,2.5-2.4,2.4,2.4,0,0,1,0,4.8A2.3,2.3,0,0,1,120.9,107.4Zm4.6,0a2.1,2.1,0,0,0-2.1-2.1,2.1,2.1,0,1,0,0,4.2A2.1,2.1,0,0,0,125.5,107.4Z" style="fill: #f3f1e5"/>
          <path d="M127.3,105.3v2.1h2.6v.3h-2.6v2H127V105h3.1v.3Z" style="fill: #f3f1e5"/>
          <path d="M131.6,105.3v2.1h2.5v.3h-2.5v2h-.4V105h3.2v.3Z" style="fill: #f3f1e5"/>
          <path d="M135.5,105h.3v4.7h-.3Z" style="fill: #f3f1e5"/>
          <path d="M137,107.4a2.4,2.4,0,0,1,2.5-2.4,2.3,2.3,0,0,1,1.6.6l-.2.3a2,2,0,0,0-1.4-.6,2.1,2.1,0,0,0,0,4.2,2,2,0,0,0,1.4-.6l.2.2a2,2,0,0,1-1.6.7A2.4,2.4,0,0,1,137,107.4Z" style="fill: #f3f1e5"/>
          <path d="M145.6,109.4v.3h-3.3V105h3.1v.3h-2.8v1.9h2.6v.3h-2.6v1.9Z" style="fill: #f3f1e5"/>
        </g>
        <g>
          <path d="M172,105l-2.1,4.7h-.4l-2.1-4.7h.4l1.9,4.3,1.9-4.3Z" style="fill: #f3f1e5"/>
          <path d="M172.7,105h.4v4.7h-.4Z" style="fill: #f3f1e5"/>
          <path d="M174.2,109.1l.2-.2a2.3,2.3,0,0,0,1.5.6c1,0,1.4-.4,1.4-1s-2.9-.5-2.9-2.3.5-1.2,1.6-1.2a2.9,2.9,0,0,1,1.4.4v.3a2,2,0,0,0-1.3-.4c-.9,0-1.3.4-1.3.9s2.9.6,2.9,2.3-.5,1.3-1.7,1.3A2.4,2.4,0,0,1,174.2,109.1Z" style="fill: #f3f1e5"/>
          <path d="M178.8,107.7V105h.3v2.7c0,1.2.6,1.8,1.6,1.8s1.5-.6,1.5-1.8V105h.3v2.7c0,1.4-.7,2.1-1.8,2.1S178.8,109.1,178.8,107.7Z" style="fill: #f3f1e5"/>
          <path d="M187,108.4h-2.8l-.6,1.3h-.3l2.1-4.7h.4l2.1,4.7h-.3Zm-.2-.3-1.2-2.7-1.2,2.7Z" style="fill: #f3f1e5"/>
          <path d="M188.8,105h.3v4.4h2.7v.3h-3Z" style="fill: #f3f1e5"/>
          <path d="M194,109.1v-.2a2.8,2.8,0,0,0,1.6.6c.9,0,1.4-.4,1.4-1s-3-.5-3-2.3.5-1.2,1.7-1.2a3.3,3.3,0,0,1,1.4.4v.3a2.2,2.2,0,0,0-1.3-.4c-.9,0-1.3.4-1.3.9s2.9.6,2.9,2.3-.5,1.3-1.7,1.3A2.2,2.2,0,0,1,194,109.1Z" style="fill: #f3f1e5"/>
          <path d="M199.4,105.3h-1.7V105h3.7v.3h-1.7v4.4h-.3Z" style="fill: #f3f1e5"/>
          <path d="M202.2,107.7V105h.3v2.7c0,1.2.6,1.8,1.5,1.8s1.6-.6,1.6-1.8V105h.3v2.7c0,1.4-.7,2.1-1.9,2.1S202.2,109.1,202.2,107.7Z" style="fill: #f3f1e5"/>
          <path d="M207.5,105h1.9a2.3,2.3,0,0,1,2.5,2.4,2.3,2.3,0,0,1-2.5,2.3h-1.9Zm1.9,4.4a2,2,0,0,0,2.2-2,2.1,2.1,0,0,0-2.2-2.1h-1.5v4.1Z" style="fill: #f3f1e5"/>
          <path d="M213.1,105h.3v4.7h-.3Z" style="fill: #f3f1e5"/>
          <path d="M214.6,107.4a2.4,2.4,0,0,1,2.5-2.4,2.4,2.4,0,1,1,0,4.8A2.4,2.4,0,0,1,214.6,107.4Zm4.6,0a2.1,2.1,0,1,0-2.1,2.1A2.1,2.1,0,0,0,219.2,107.4Z" style="fill: #f3f1e5"/>
          <path d="M222,107.4a2.3,2.3,0,0,1,2.4-2.4,2.4,2.4,0,0,1,1.7.6l-.2.3a2,2,0,0,0-1.4-.6,2.1,2.1,0,1,0,0,4.2,2,2,0,0,0,1.4-.6l.2.2a2.1,2.1,0,0,1-1.7.7A2.3,2.3,0,0,1,222,107.4Z" style="fill: #f3f1e5"/>
          <path d="M226.7,107.4a2.4,2.4,0,0,1,2.5-2.4,2.4,2.4,0,1,1,0,4.8A2.4,2.4,0,0,1,226.7,107.4Zm4.6,0a2.1,2.1,0,1,0-2.1,2.1A2.1,2.1,0,0,0,231.3,107.4Z" style="fill: #f3f1e5"/>
          <path d="M232.8,105h1.9a2.3,2.3,0,0,1,2.5,2.4,2.3,2.3,0,0,1-2.5,2.3h-1.9Zm1.8,4.4a2,2,0,0,0,2.2-2,2,2,0,0,0-2.2-2.1h-1.5v4.1Z" style="fill: #f3f1e5"/>
          <path d="M241.6,109.4v.3h-3.2V105h3.1v.3h-2.8v1.9h2.5v.3h-2.5v1.9Z" style="fill: #f3f1e5"/>
        </g>
        <g>
          <path d="M83.2,27l.3-.7a5.7,5.7,0,0,0,3.9,1.5c2.4,0,3.4-1,3.4-2.3,0-3.5-7.3-1.4-7.3-5.7,0-1.7,1.3-3.2,4.2-3.2a6.1,6.1,0,0,1,3.5,1.1l-.3.7a5.7,5.7,0,0,0-3.2-1c-2.3,0-3.4,1-3.4,2.3,0,3.6,7.4,1.5,7.4,5.8,0,1.6-1.3,3.1-4.3,3.1A6,6,0,0,1,83.2,27Z" style="fill: #f3f1e5"/>
          <path d="M93.5,22.6a6.1,6.1,0,1,1,6.1,6A5.9,5.9,0,0,1,93.5,22.6Zm11.4,0a5.3,5.3,0,1,0-5.3,5.2A5.1,5.1,0,0,0,104.9,22.6Z" style="fill: #f3f1e5"/>
          <path d="M109.6,17.5v5h6.2v.8h-6.2v5.2h-.9V16.7h7.9v.8Z" style="fill: #f3f1e5"/>
          <path d="M121.7,17.5h-4.3v-.8h9.4v.8h-4.3v11h-.8Z" style="fill: #f3f1e5"/>
          <path d="M144.6,16.7l-4,11.8h-.9L136,17.9l-3.6,10.6h-.9l-4-11.8h.9l3.5,10.6,3.7-10.6h.9l3.6,10.6,3.6-10.6Z" style="fill: #f3f1e5"/>
          <path d="M154,25.2h-6.8l-1.5,3.3h-1l5.5-11.8h.8l5.4,11.8h-.9Zm-.3-.7-3.1-6.8-3.1,6.8Z" style="fill: #f3f1e5"/>
          <path d="M166.8,28.5l-2.9-3.9h-4.5v3.9h-.8V16.7h4.2c3,0,4.7,1.5,4.7,4a3.6,3.6,0,0,1-2.7,3.7l2.9,4.1Zm-4-4.6c2.5,0,3.9-1.2,3.9-3.2s-1.4-3.2-3.9-3.2h-3.4v6.4Z" style="fill: #f3f1e5"/>
          <path d="M178.8,27.7v.8h-8.1V16.7h7.9v.8h-7.1v4.6h6.3v.8h-6.3v4.8Z" style="fill: #f3f1e5"/>
        </g>
      </g>
    </g>
  </g>
</svg>
