<?xml version="1.0" encoding="UTF-8" standalone="no"?>
<svg xmlns="http://www.w3.org/2000/svg" viewBox="0 0 265.3 125.7">
 <title>Recurso 22</title>
 <g id="ad30dfd9-ef53-4944-a595-dd06849bcbec" data-name="Capa 2">
  <g id="bfaa8694-d4ff-4e79-9a33-1355c5f7b14a" data-name="Capa 1">
   <rect width="265.3" fill="#171919" rx="12" height="125.69"/>
   <path d="m102.6 80.6l25 3v-33.2h-0.2l-5.8 1.4-6.9 1.6-3.4 0.8c-0.2 0-0.2 0.1-0.2 0.2v22.3l-8.7 3.8v-28.4h0.2l22.7-8.4 2.1-0.8h0.3l13.4 4.3h0.2v38.3h-0.2l-13.4 4.1h-0.3l-11.2-4-13.4-4.8z" fill="#f3f1e5"/>
   <g fill="#f3f1e5">
    <path d="m41.9 43.5h-18.7v45.7h0.1v-0.2l12.6-30.8c1.9-4.8 3.9-9.5 5.9-14.3a0.8 0.8 0 0 1 0.1 -0.4z"/>
    <path d="m55.4 75.9c-2.2-4.9-4.3-9.8-6.4-14.8 0-0.1-0.1-0.2-0.1-0.3s-8.3 19.4-8.4 19.6h8.8a0.4 0.4 0 0 1 0.1 0.3c1.3 2.7 2.5 5.5 3.7 8.2a0.4 0.4 0 0 1 0.1 0.3h7.9a0.4 0.4 0 0 1 -0.1 -0.3c-1.9-4.4-3.8-8.7-5.6-13z"/>
    <path d="m55.8 43.5c0 0.1 0 0.2 0.1 0.2q9.5 22.6 19 45.3v-45.5z"/>
   </g>
   <g fill="#f3f1e5">
    <path d="m221.3 48.4c0-0.2 0-0.2-0.1-0.3l-10.2-4.2-1-0.4v38.7c0 0.2-0.1 0.2-0.2 0.2l-0.8-0.2-3.7-0.5-3.7-0.6-4-0.6-3.9-0.6-4-0.5-4-0.6-3.7-0.6-3.7-0.5-2-0.3h0.1l14.6 5.1 18.2 6.1 0.7 0.3h0.3l10.9-4.6c0.2 0 0.3-0.1 0.2-0.3z"/>
    <path d="m185 62.7a0.2 0.2 0 0 1 0 0.3l-4.2 4.2-2 2 2.4 0.8h0.3l6-4.5c0.1-0.1 0.2-0.1 0.3 0.1l2.1 2c2.7 2.7 5.4 5.3 8 8h0.3l6-2.5a0.4 0.4 0 0 0 0.1 -0.3v-19.8c0-0.2 0-0.3-0.2-0.3l-5.8-2.5c-0.2-0.1-0.3 0-0.4 0.1l-10.1 10a0.2 0.2 0 0 1 -0.3 0l-6-4.5h-0.3l-0.8 0.2-1.6 0.6h0.1zm13.1-5.2v10.8l-7.2-5.4z"/>
   </g>
   <g fill="#f3f1e5">
    <path d="m25.1 109.1v-0.2a2.4 2.4 0 0 0 1.6 0.6c0.9 0 1.3-0.4 1.3-1s-2.9-0.5-2.9-2.3 0.5-1.2 1.6-1.2a3.3 3.3 0 0 1 1.5 0.4l-0.2 0.3a2 2 0 0 0 -1.3 -0.4c-0.9 0-1.3 0.4-1.3 0.9s3 0.6 3 2.3-0.6 1.3-1.7 1.3a2.2 2.2 0 0 1 -1.6 -0.7z"/>
    <path d="m29.6 107.7v-2.7h0.3v2.7c0 1.2 0.6 1.8 1.6 1.8s1.5-0.6 1.5-1.8v-2.7h0.4v2.7a1.8 1.8 0 0 1 -1.9 2.1c-1.2 0-1.9-0.7-1.9-2.1z"/>
    <path d="m35 105h0.3v4.7h-0.3z"/>
    <path d="m37.9 105.3h-1.7v-0.3h3.7v0.3h-1.7v4.4h-0.3z"/>
    <path d="m44 109.4v0.3h-3.3v-4.7h3.2v0.3h-2.8v1.9h2.5v0.3h-2.5v1.9z"/>
    <path d="m49.9 108.4h-2.7l-0.6 1.3h-0.4l2.2-4.7h0.3l2.2 4.7h-0.4zm-0.1-0.3-1.3-2.7-1.2 2.7z"/>
    <path d="m51.7 105h1.9a2.3 2.3 0 0 1 2.5 2.4 2.3 2.3 0 0 1 -2.5 2.3h-1.9zm1.9 4.4a1.9 1.9 0 0 0 2.1 -2 2 2 0 0 0 -2.1 -2.1h-1.5v4.1z"/>
    <path d="m56.8 107.4a2.4 2.4 0 0 1 2.5 -2.4 2.4 2.4 0 0 1 0 4.8 2.4 2.4 0 0 1 -2.5 -2.4zm4.6 0a2.1 2.1 0 1 0 -2.1 2.1 2.1 2.1 0 0 0 2.1 -2.1z"/>
    <path d="m66.8 108.5q0 1.2-1.8 1.2h-2.1v-4.7h2c1 0 1.6 0.5 1.6 1.2a1 1 0 0 1 -0.8 1.1 1.1 1.1 0 0 1 1.1 1.2zm-3.5-3.2v1.9h1.6c0.8 0 1.3-0.3 1.3-0.9s-0.5-1-1.3-1zm3.1 3.2c0-0.7-0.5-1-1.4-1h-1.7v1.9h1.7c0.9 0 1.4-0.3 1.4-0.9z"/>
    <path d="m71.2 109.4v0.3h-3.2v-4.7h3.1v0.3h-2.8v1.9h2.5v0.3h-2.5v1.9z"/>
   </g>
   <g fill="#f3f1e5">
    <path d="m99.4 109.1l0.2-0.2a2.3 2.3 0 0 0 1.5 0.6c1 0 1.4-0.4 1.4-1s-2.9-0.5-2.9-2.3 0.5-1.2 1.6-1.2a2.9 2.9 0 0 1 1.4 0.4v0.3a2 2 0 0 0 -1.3 -0.4c-0.9 0-1.3 0.4-1.3 0.9s2.9 0.6 2.9 2.3-0.5 1.3-1.7 1.3a2.4 2.4 0 0 1 -1.8 -0.7z"/>
    <path d="m104 107.7v-2.7h0.3v2.7c0 1.2 0.6 1.8 1.6 1.8s1.5-0.6 1.5-1.8v-2.7h0.3v2.7c0 1.4-0.7 2.1-1.8 2.1s-1.9-0.7-1.9-2.1z"/>
    <path d="m109.3 105h0.4v4.7h-0.4z"/>
    <path d="m112.2 105.3h-1.7v-0.3h3.8v0.3h-1.7v4.4h-0.4z"/>
    <path d="m118.4 109.4v0.3h-3.3v-4.7h3.2v0.3h-2.8v1.9h2.5v0.3h-2.5v1.9z"/>
    <path d="m120.9 107.4a2.3 2.3 0 0 1 2.5 -2.4 2.4 2.4 0 0 1 0 4.8 2.3 2.3 0 0 1 -2.5 -2.4zm4.6 0a2.1 2.1 0 0 0 -2.1 -2.1 2.1 2.1 0 1 0 0 4.2 2.1 2.1 0 0 0 2.1 -2.1z"/>
    <path d="m127.3 105.3v2.1h2.6v0.3h-2.6v2h-0.3v-4.7h3.1v0.3z"/>
    <path d="m131.6 105.3v2.1h2.5v0.3h-2.5v2h-0.4v-4.7h3.2v0.3z"/>
    <path d="m135.5 105h0.3v4.7h-0.3z"/>
    <path d="m137 107.4a2.4 2.4 0 0 1 2.5 -2.4 2.3 2.3 0 0 1 1.6 0.6l-0.2 0.3a2 2 0 0 0 -1.4 -0.6 2.1 2.1 0 0 0 0 4.2 2 2 0 0 0 1.4 -0.6l0.2 0.2a2 2 0 0 1 -1.6 0.7 2.4 2.4 0 0 1 -2.5 -2.4z"/>
    <path d="m145.6 109.4v0.3h-3.3v-4.7h3.1v0.3h-2.8v1.9h2.6v0.3h-2.6v1.9z"/>
   </g>
   <g fill="#f3f1e5">
    <path d="m172 105l-2.1 4.7h-0.4l-2.1-4.7h0.4l1.9 4.3 1.9-4.3z"/>
    <path d="m172.7 105h0.4v4.7h-0.4z"/>
    <path d="m174.2 109.1l0.2-0.2a2.3 2.3 0 0 0 1.5 0.6c1 0 1.4-0.4 1.4-1s-2.9-0.5-2.9-2.3 0.5-1.2 1.6-1.2a2.9 2.9 0 0 1 1.4 0.4v0.3a2 2 0 0 0 -1.3 -0.4c-0.9 0-1.3 0.4-1.3 0.9s2.9 0.6 2.9 2.3-0.5 1.3-1.7 1.3a2.4 2.4 0 0 1 -1.8 -0.7z"/>
    <path d="m178.8 107.7v-2.7h0.3v2.7c0 1.2 0.6 1.8 1.6 1.8s1.5-0.6 1.5-1.8v-2.7h0.3v2.7c0 1.4-0.7 2.1-1.8 2.1s-1.9-0.7-1.9-2.1z"/>
    <path d="m187 108.4h-2.8l-0.6 1.3h-0.3l2.1-4.7h0.4l2.1 4.7h-0.3zm-0.2-0.3-1.2-2.7-1.2 2.7z"/>
    <path d="m188.8 105h0.3v4.4h2.7v0.3h-3z"/>
    <path d="m194 109.1v-0.2a2.8 2.8 0 0 0 1.6 0.6c0.9 0 1.4-0.4 1.4-1s-3-0.5-3-2.3 0.5-1.2 1.7-1.2a3.3 3.3 0 0 1 1.4 0.4v0.3a2.2 2.2 0 0 0 -1.3 -0.4c-0.9 0-1.3 0.4-1.3 0.9s2.9 0.6 2.9 2.3-0.5 1.3-1.7 1.3a2.2 2.2 0 0 1 -1.7 -0.7z"/>
    <path d="m199.4 105.3h-1.7v-0.3h3.7v0.3h-1.7v4.4h-0.3z"/>
    <path d="m202.2 107.7v-2.7h0.3v2.7c0 1.2 0.6 1.8 1.5 1.8s1.6-0.6 1.6-1.8v-2.7h0.3v2.7c0 1.4-0.7 2.1-1.9 2.1s-1.8-0.7-1.8-2.1z"/>
    <path d="m207.5 105h1.9a2.3 2.3 0 0 1 2.5 2.4 2.3 2.3 0 0 1 -2.5 2.3h-1.9zm1.9 4.4a2 2 0 0 0 2.2 -2 2.1 2.1 0 0 0 -2.2 -2.1h-1.5v4.1z"/>
    <path d="m213.1 105h0.3v4.7h-0.3z"/>
    <path d="m214.6 107.4a2.4 2.4 0 0 1 2.5 -2.4 2.4 2.4 0 1 1 0 4.8 2.4 2.4 0 0 1 -2.5 -2.4zm4.6 0a2.1 2.1 0 1 0 -2.1 2.1 2.1 2.1 0 0 0 2.1 -2.1z"/>
    <path d="m222 107.4a2.3 2.3 0 0 1 2.4 -2.4 2.4 2.4 0 0 1 1.7 0.6l-0.2 0.3a2 2 0 0 0 -1.4 -0.6 2.1 2.1 0 1 0 0 4.2 2 2 0 0 0 1.4 -0.6l0.2 0.2a2.1 2.1 0 0 1 -1.7 0.7 2.3 2.3 0 0 1 -2.4 -2.4z"/>
    <path d="m226.7 107.4a2.4 2.4 0 0 1 2.5 -2.4 2.4 2.4 0 1 1 0 4.8 2.4 2.4 0 0 1 -2.5 -2.4zm4.6 0a2.1 2.1 0 1 0 -2.1 2.1 2.1 2.1 0 0 0 2.1 -2.1z"/>
    <path d="m232.8 105h1.9a2.3 2.3 0 0 1 2.5 2.4 2.3 2.3 0 0 1 -2.5 2.3h-1.9zm1.8 4.4a2 2 0 0 0 2.2 -2 2 2 0 0 0 -2.2 -2.1h-1.5v4.1z"/>
    <path d="m241.6 109.4v0.3h-3.2v-4.7h3.1v0.3h-2.8v1.9h2.5v0.3h-2.5v1.9z"/>
   </g>
   <g fill="#f3f1e5">
    <path d="m83.2 27l0.3-0.7a5.7 5.7 0 0 0 3.9 1.5c2.4 0 3.4-1 3.4-2.3 0-3.5-7.3-1.4-7.3-5.7 0-1.7 1.3-3.2 4.2-3.2a6.1 6.1 0 0 1 3.5 1.1l-0.3 0.7a5.7 5.7 0 0 0 -3.2 -1c-2.3 0-3.4 1-3.4 2.3 0 3.6 7.4 1.5 7.4 5.8 0 1.6-1.3 3.1-4.3 3.1a6 6 0 0 1 -4.2 -1.6z"/>
    <path d="m93.5 22.6a6.1 6.1 0 1 1 6.1 6 5.9 5.9 0 0 1 -6.1 -6zm11.4 0a5.3 5.3 0 1 0 -5.3 5.2 5.1 5.1 0 0 0 5.3 -5.2z"/>
    <path d="m109.6 17.5v5h6.2v0.8h-6.2v5.2h-0.9v-11.8h7.9v0.8z"/>
    <path d="m121.7 17.5h-4.3v-0.8h9.4v0.8h-4.3v11h-0.8z"/>
    <path d="m144.6 16.7l-4 11.8h-0.9l-3.7-10.6-3.6 10.6h-0.9l-4-11.8h0.9l3.5 10.6 3.7-10.6h0.9l3.6 10.6 3.6-10.6z"/>
    <path d="m154 25.2h-6.8l-1.5 3.3h-1l5.5-11.8h0.8l5.4 11.8h-0.9zm-0.3-0.7-3.1-6.8-3.1 6.8z"/>
    <path d="m166.8 28.5l-2.9-3.9h-4.5v3.9h-0.8v-11.8h4.2c3 0 4.7 1.5 4.7 4a3.6 3.6 0 0 1 -2.7 3.7l2.9 4.1zm-4-4.6c2.5 0 3.9-1.2 3.9-3.2s-1.4-3.2-3.9-3.2h-3.4v6.4z"/>
    <path d="m178.8 27.7v0.8h-8.1v-11.8h7.9v0.8h-7.1v4.6h6.3v0.8h-6.3v4.8z"/>
   </g>
  </g>
 </g>
</svg>
