<?xml version="1.0" encoding="UTF-8" standalone="no"?>
<svg xmlns="http://www.w3.org/2000/svg" viewBox="0 0 155.1 161.3">
 <title>web</title>
 <g id="aa54e552-75cb-4ef2-ad7b-ee0ccd118677" data-name="Capa 2">
  <g id="ed74b753-9907-467f-94db-18d6dd79e8d4" data-name="Capa 1">
   <g stroke="#fff" stroke-miterlimit="10" fill="none">
    <path d="m76.9 19a10.7 10.7 0 1 1 -10.7 10.7 10.7 10.7 0 0 1 10.7 -10.7z"/>
    <polygon points="47.9 124.5 59.4 124.5 95.1 124.5 106.6 124.5 106.6 130.8 47.9 130.8"/>
    <polygon points="89.9 104.5 95.1 124.5 59.4 124.5 64.6 104.5"/>
    <path d="m27 91.6h100.5a5.2 5.2 0 0 0 5.2 -5.2v11.9a6.2 6.2 0 0 1 -6.1 6.2h-98.6a6.2 6.2 0 0 1 -6.2 -6.2v-11.9a5.2 5.2 0 0 0 5.2 5.2zm47.9 6.5a2.4 2.4 0 0 0 4.7 0 2.4 2.4 0 1 0 -4.7 0z"/>
    <path d="m74.8 58.8l-1.2-8.1a21.8 21.8 0 0 1 -4.4 -1.1l-5 6.3-3.7-2 3-7.6a32.2 32.2 0 0 1 -3.2 -3.2l-7.6 3-2.1-3.7 6.4-5.1a27 27 0 0 1 -1.2 -4.3l-8-1.2v-4.2l8-1.2a28.3 28.3 0 0 1 1.2 -4.4l-1-0.9-5.4-4.2 2.1-3.6 7.6 3a25 25 0 0 1 3.2 -3.3l-3-7.5 3.7-2.1 5 6.3a21.8 21.8 0 0 1 4.4 -1.1l1.2-8.1h4.2l1.2 8.1a21.8 21.8 0 0 1 4.4 1.1l5.1-6.3 3.6 2.1-3 7.5a19.9 19.9 0 0 1 3.2 3.3l7.6-3 2.1 3.6-5.3 4.2-1.1 0.9a15.9 15.9 0 0 1 1.2 4.4l8.1 1.2v4.1l-8.1 1.3a15.2 15.2 0 0 1 -1.2 4.3l6.4 5.1-2.1 3.6-7.6-2.9a24.2 24.2 0 0 1 -3.2 3.2l3 7.6-3.6 2-5.1-6.3a21.8 21.8 0 0 1 -4.4 1.1l-1.2 8.1zm-8.6-29.1a10.7 10.7 0 1 0 10.7 -10.7 10.7 10.7 0 0 0 -10.7 10.7z"/>
    <path d="m73.6 50.7l1.2 8.1h4.2l1.2-8.1a21.8 21.8 0 0 0 4.4 -1.1l5.1 6.3 3.6-2-3-7.6a24.2 24.2 0 0 0 3.2 -3.2l7.6 2.9 2.1-3.6-6.4-5.1a15.2 15.2 0 0 0 1.2 -4.3l8.1-1.3v-4.1l-8.1-1.2a15.9 15.9 0 0 0 -1.2 -4.4l1.1-0.9h28.7a6.2 6.2 0 0 1 6.1 6.2v59.1a5.2 5.2 0 0 1 -5.2 5.2h-100.5a5.2 5.2 0 0 1 -5.2 -5.2v-59.1a6.2 6.2 0 0 1 6.2 -6.2h28l1 0.9a28.3 28.3 0 0 0 -1.2 4.4l-8 1.2v4.2l8 1.2a27 27 0 0 0 1.2 4.3l-6.4 5.1 2.1 3.7 7.6-3a32.2 32.2 0 0 0 3.2 3.2l-3 7.6 3.7 2 5-6.3a21.8 21.8 0 0 0 4.4 1.1z"/>
    <path d="m64.6 104.5h-36.6a6.2 6.2 0 0 1 -6.2 -6.2v-71a6.2 6.2 0 0 1 6.2 -6.2h28"/>
    <path d="m97.9 21.1h28.7a6.2 6.2 0 0 1 6.1 6.2v71a6.2 6.2 0 0 1 -6.1 6.2h-36.7"/>
    <path d="m132.7 86.4a5.2 5.2 0 0 1 -5.2 5.2h-100.5a5.2 5.2 0 0 1 -5.2 -5.2"/>
    <polyline points="59.4 124.5 64.6 104.5 89.9 104.5 95.1 124.5"/>
    <path d="m77.2 95.7a2.4 2.4 0 1 1 0 4.7 2.4 2.4 0 0 1 0 -4.7z"/>
    <polygon points="95.1 124.5 106.6 124.5 106.6 130.8 47.9 130.8 47.9 124.5 59.4 124.5"/>
    <path d="m110.9 76.3h-0.1l-12.2-6.1c-0.1 0-0.1-0.1-0.1-0.2h0.1l12.2-6.1h0.1l12.2 6.1h0.1c0 0.1 0 0.2-0.1 0.2l-12.2 6.1zm-11.8-6.3l11.8 5.9 11.7-5.9-11.7-5.8z"/>
    <path d="m110.9 81.6h-0.1l-12.2-6c-0.1-0.1-0.1-0.1-0.1-0.2s0-0.2 0.1-0.2l5.2-2.6h0.2l6.9 3.4 6.8-3.4h0.2l5.2 2.6c0.1 0 0.1 0.1 0.1 0.2s0 0.1-0.1 0.2l-12.2 6zm-11.8-6.3l11.8 5.8 11.7-5.8-4.8-2.4-6.9 3.4h-0.1l-6.9-3.4z"/>
    <path d="m110.9 86.8h-0.1l-12.2-6.1c-0.1 0-0.1-0.1-0.1-0.2v-0.2l5.2-2.6h0.2l6.9 3.4 6.8-3.4h0.2l5.2 2.6v0.2c0 0.1 0 0.2-0.1 0.2l-12.2 6.1zm-11.8-6.3l11.8 5.9 11.7-5.9-4.8-2.4-6.9 3.4h-0.1l-6.9-3.4z"/>
    <path d="m101.8 71.7h-0.2c0-0.1 0-0.2 0.1-0.2l11.7-6.3h0.3a0.4 0.4 0 0 1 -0.1 0.3l-11.7 6.2z"/>
    <path d="m104.8 73.3h-0.2a0.2 0.2 0 0 1 0.1 -0.3l11.8-6.2h0.3a0.4 0.4 0 0 1 -0.1 0.3l-11.8 6.1z"/>
    <path d="m107.7 74.6h-0.1c-0.1-0.1-0.1-0.2 0-0.2l12.1-6.1h0.2a0.2 0.2 0 0 1 -0.1 0.3l-12 6z"/>
    <path d="m76.7 76.3h-0.1l-12.1-6.1c-0.1 0-0.1-0.1-0.1-0.2h0.1l12.1-6.1h0.2l12.2 6h0.1c0 0.1 0 0.2-0.1 0.2l-12.2 6.2zm-11.7-6.3l11.7 5.9 11.7-5.9-11.7-5.8z"/>
    <path d="m76.7 81.6h-0.1l-12.1-6c-0.1-0.1-0.1-0.1-0.1-0.2s0-0.2 0.1-0.2l5.2-2.6h0.2l6.8 3.4 6.9-3.4h0.1l5.3 2.5c0.1 0 0.1 0.1 0.1 0.2s0 0.1-0.1 0.2l-12.2 6zm-11.7-6.3l11.7 5.8 11.7-5.8-4.7-2.4-6.9 3.4h-0.2l-6.8-3.4z"/>
    <path d="m76.7 86.8h-0.1l-12.1-6.1c-0.1 0-0.1-0.1-0.1-0.2v-0.2l5.2-2.6h0.2l6.8 3.4 6.9-3.4h0.1l5.4 2.6v0.2c0 0.1 0 0.2-0.1 0.2l-12.1 6.1zm-11.7-6.3l11.7 5.9 11.7-5.9-4.7-2.4-6.9 3.4h-0.2l-6.8-3.4z"/>
    <path d="m67.7 71.7h-0.2c0-0.1 0-0.2 0.1-0.2l11.7-6.3h0.3a0.4 0.4 0 0 1 -0.1 0.3l-11.7 6.2z"/>
    <path d="m70.6 73.3h-0.1a0.2 0.2 0 0 1 0.1 -0.3l11.8-6.2h0.3a0.4 0.4 0 0 1 -0.1 0.3l-11.9 6.1z"/>
    <path d="m73.6 74.6h-0.2c0-0.1 0-0.2 0.1-0.2l12.1-6.1h0.2a0.2 0.2 0 0 1 -0.1 0.3l-12 6z"/>
    <path d="m41 76.3h-0.1l-12.1-6.1a0.2 0.2 0 0 1 -0.2 -0.2h0.2l12.1-6.1h0.2l12.1 6.1h0.2l-0.2 0.2-12.1 6.1zm-11.7-6.3 11.7 5.9 11.7-5.9-11.7-5.8z"/>
    <path d="m41 81.6h-0.1l-12.1-6c-0.1-0.1-0.2-0.1-0.2-0.2a0.2 0.2 0 0 1 0.2 -0.2l5.2-2.7h0.2l6.8 3.4 6.8-3.4h0.2l5.2 2.6 0.2 0.2c0 0.1-0.1 0.1-0.2 0.2l-12.1 6zm-11.7-6.3 11.7 5.8l11.7-5.8-4.8-2.4-6.8 3.4h-0.2l-6.8-3.4z"/>
    <path d="m41 86.8h-0.1l-12.1-6.1a0.2 0.2 0 0 1 -0.2 -0.2l0.2-0.2 5.2-2.6h0.2l6.8 3.4 6.8-3.4h0.2l5.2 2.6 0.2 0.2-0.2 0.2-12.1 6.1zm-11.7-6.3 11.7 5.9l11.7-5.9-4.8-2.4-6.8 3.4h-0.2l-6.8-3.4z"/>
    <path d="m32 71.7c-0.1 0-0.2 0-0.2-0.1s0-0.2 0.1-0.2l11.7-6.3c0.1 0 0.2 0 0.2 0.1a0.2 0.2 0 0 1 0 0.3l-11.7 6.2z"/>
    <path d="m34.9 73.3h-0.2c0-0.1 0-0.3 0.1-0.3l11.8-6.2h0.3c0.1 0.1 0 0.2-0.1 0.3l-11.8 6.1z"/>
    <path d="m37.9 74.6h-0.2c0-0.1 0-0.2 0.1-0.2l12-6.1h0.3c0 0.1 0 0.3-0.1 0.3l-12 6z"/>
   </g>
   <g fill="#fff">
    <path d="m0 145.1h7c5.2 0 8.7 3.2 8.7 7.9s-3.5 8-8.7 8h-7zm6.8 13.4c3.6 0 5.9-2.1 5.9-5.5s-2.3-5.4-5.9-5.4h-3.8v10.9z"/>
    <path d="m18.9 145.1h2.9v15.9h-2.9z"/>
    <path d="m24.8 159.3l1-2.3a8.5 8.5 0 0 0 5.3 1.8c2.5 0 3.5-0.9 3.5-2.1 0-3.4-9.5-1.2-9.5-7.1 0-2.6 2.1-4.8 6.5-4.8a10.2 10.2 0 0 1 5.3 1.4l-0.9 2.3a9.8 9.8 0 0 0 -4.5 -1.2c-2.4 0-3.4 1-3.4 2.2 0 3.4 9.4 1.1 9.4 7 0 2.6-2 4.8-6.4 4.8a9.9 9.9 0 0 1 -6.3 -2z"/>
    <path d="m52.5 158.5v2.5h-12v-15.9h11.7v2.4h-8.7v4.2h7.7v2.4h-7.7v4.4z"/>
    <path d="m70 145.1v15.9h-2.5l-8.8-10.8v10.8h-2.9v-15.9h2.4l8.8 10.8v-10.8zm-9.7-1.5h-1.5c0-1.9 1-3 2.4-3s2.3 1.5 3.1 1.5 1.1-0.5 1.2-1.3h1.5c0 1.7-1 3-2.5 3s-2.3-1.6-3.1-1.6-1 0.6-1.1 1.4z"/>
    <path d="m73.1 153c0-4.7 3.7-8.2 8.6-8.2s8.6 3.5 8.6 8.2-3.6 8.3-8.6 8.3a8.2 8.2 0 0 1 -8.6 -8.3zm14.3 0a5.7 5.7 0 1 0 -5.7 5.7 5.5 5.5 0 0 0 5.7 -5.7z"/>
    <path d="m123.1 145.1-5.2 15.9h-3.2l-3.9-11.8-4.1 11.8h-3.1l-5.3-15.9h3l4 12.1 4.2-12.1h2.7l4 12.2 4.1-12.2z"/>
    <path d="m137.6 158.5v2.5h-12v-15.9h11.6v2.4h-8.7v4.2h7.8v2.4h-7.8v4.4z"/>
    <path d="m155.1 156.7c0 2.7-2.2 4.3-6.3 4.3h-7.9v-15.9h7.4c3.9 0 5.9 1.6 5.9 4.1a3.7 3.7 0 0 1 -2 3.5 4 4 0 0 1 2.9 4zm-11.3-9.3v4.4h4.2c2.1 0 3.2-0.7 3.2-2.2s-1.1-2.2-3.2-2.2zm8.3 9c0-1.6-1.2-2.3-3.5-2.3h-4.8v4.6h4.8c2.3 0 3.5-0.7 3.5-2.3z"/>
   </g>
  </g>
 </g>
</svg>
