<svg xmlns="http://www.w3.org/2000/svg" viewBox="0 0 155.1 161.3">
  <title>web</title>
  <g id="aa54e552-75cb-4ef2-ad7b-ee0ccd118677" data-name="Capa 2">
    <g id="ed74b753-9907-467f-94db-18d6dd79e8d4" data-name="Capa 1">
      <g>
        <g>
          <g>
            <path d="M76.9,19A10.7,10.7,0,1,1,66.2,29.7,10.7,10.7,0,0,1,76.9,19Z" style="fill: none;stroke: #fff;stroke-miterlimit: 10"/>
            <polygon points="47.9 124.5 59.4 124.5 95.1 124.5 106.6 124.5 106.6 130.8 47.9 130.8 47.9 124.5" style="fill: none;stroke: #fff;stroke-miterlimit: 10"/>
            <polygon points="89.9 104.5 95.1 124.5 59.4 124.5 64.6 104.5 89.9 104.5" style="fill: none;stroke: #fff;stroke-miterlimit: 10"/>
            <path d="M27,91.6H127.5a5.2,5.2,0,0,0,5.2-5.2V98.3a6.2,6.2,0,0,1-6.1,6.2H28a6.2,6.2,0,0,1-6.2-6.2V86.4A5.2,5.2,0,0,0,27,91.6Zm47.9,6.5a2.4,2.4,0,0,0,4.7,0,2.4,2.4,0,1,0-4.7,0Z" style="fill: none;stroke: #fff;stroke-miterlimit: 10"/>
            <path d="M74.8,58.8l-1.2-8.1a21.8,21.8,0,0,1-4.4-1.1l-5,6.3-3.7-2,3-7.6a32.2,32.2,0,0,1-3.2-3.2l-7.6,3-2.1-3.7L57,37.3A27,27,0,0,1,55.8,33l-8-1.2V27.6l8-1.2A28.3,28.3,0,0,1,57,22l-1-.9-5.4-4.2,2.1-3.6,7.6,3A25,25,0,0,1,63.5,13l-3-7.5,3.7-2.1,5,6.3a21.8,21.8,0,0,1,4.4-1.1L74.8.5H79l1.2,8.1a21.8,21.8,0,0,1,4.4,1.1l5.1-6.3,3.6,2.1-3,7.5a19.9,19.9,0,0,1,3.2,3.3l7.6-3,2.1,3.6-5.3,4.2-1.1.9A15.9,15.9,0,0,1,98,26.4l8.1,1.2v4.1L98,33a15.2,15.2,0,0,1-1.2,4.3l6.4,5.1L101.1,46l-7.6-2.9a24.2,24.2,0,0,1-3.2,3.2l3,7.6-3.6,2-5.1-6.3a21.8,21.8,0,0,1-4.4,1.1L79,58.8ZM66.2,29.7A10.7,10.7,0,1,0,76.9,19,10.7,10.7,0,0,0,66.2,29.7Z" style="fill: none;stroke: #fff;stroke-miterlimit: 10"/>
            <path d="M73.6,50.7l1.2,8.1H79l1.2-8.1a21.8,21.8,0,0,0,4.4-1.1l5.1,6.3,3.6-2-3-7.6a24.2,24.2,0,0,0,3.2-3.2l7.6,2.9,2.1-3.6-6.4-5.1A15.2,15.2,0,0,0,98,33l8.1-1.3V27.6L98,26.4A15.9,15.9,0,0,0,96.8,22l1.1-.9h28.7a6.2,6.2,0,0,1,6.1,6.2V86.4a5.2,5.2,0,0,1-5.2,5.2H27a5.2,5.2,0,0,1-5.2-5.2V27.3A6.2,6.2,0,0,1,28,21.1H56l1,.9a28.3,28.3,0,0,0-1.2,4.4l-8,1.2v4.2l8,1.2A27,27,0,0,0,57,37.3l-6.4,5.1,2.1,3.7,7.6-3a32.2,32.2,0,0,0,3.2,3.2l-3,7.6,3.7,2,5-6.3A21.8,21.8,0,0,0,73.6,50.7Z" style="fill: none;stroke: #fff;stroke-miterlimit: 10"/>
          </g>
          <g>
            <path d="M64.6,104.5H28a6.2,6.2,0,0,1-6.2-6.2v-71A6.2,6.2,0,0,1,28,21.1H56" style="fill: none;stroke: #fff;stroke-miterlimit: 10"/>
            <path d="M97.9,21.1h28.7a6.2,6.2,0,0,1,6.1,6.2v71a6.2,6.2,0,0,1-6.1,6.2H89.9" style="fill: none;stroke: #fff;stroke-miterlimit: 10"/>
            <path d="M132.7,86.4a5.2,5.2,0,0,1-5.2,5.2H27a5.2,5.2,0,0,1-5.2-5.2" style="fill: none;stroke: #fff;stroke-miterlimit: 10"/>
            <polyline points="59.4 124.5 64.6 104.5 89.9 104.5 95.1 124.5" style="fill: none;stroke: #fff;stroke-miterlimit: 10"/>
            <path d="M77.2,95.7a2.4,2.4,0,1,1,0,4.7,2.4,2.4,0,0,1,0-4.7Z" style="fill: none;stroke: #fff;stroke-miterlimit: 10"/>
            <polygon points="95.1 124.5 106.6 124.5 106.6 130.8 47.9 130.8 47.9 124.5 59.4 124.5 95.1 124.5" style="fill: none;stroke: #fff;stroke-miterlimit: 10"/>
          </g>
          <g>
            <g>
              <path d="M110.9,76.3h-.1L98.6,70.2c-.1,0-.1-.1-.1-.2h.1l12.2-6.1h.1l12.2,6.1h.1c0,.1,0,.2-.1.2l-12.2,6.1ZM99.1,70l11.8,5.9L122.6,70l-11.7-5.8Z" style="fill: none;stroke: #fff;stroke-miterlimit: 10"/>
              <path d="M110.9,81.6h-.1l-12.2-6c-.1-.1-.1-.1-.1-.2s0-.2.1-.2l5.2-2.6h.2l6.9,3.4,6.8-3.4h.2l5.2,2.6c.1,0,.1.1.1.2s0,.1-.1.2l-12.2,6ZM99.1,75.3l11.8,5.8,11.7-5.8-4.8-2.4-6.9,3.4h-.1l-6.9-3.4Z" style="fill: none;stroke: #fff;stroke-miterlimit: 10"/>
              <path d="M110.9,86.8h-.1L98.6,80.7c-.1,0-.1-.1-.1-.2v-.2l5.2-2.6h.2l6.9,3.4,6.8-3.4h.2l5.2,2.6v.2c0,.1,0,.2-.1.2l-12.2,6.1ZM99.1,80.5l11.8,5.9,11.7-5.9-4.8-2.4-6.9,3.4h-.1l-6.9-3.4Z" style="fill: none;stroke: #fff;stroke-miterlimit: 10"/>
              <path d="M101.8,71.7h-.2c0-.1,0-.2.1-.2l11.7-6.3h.3a.4.4,0,0,1-.1.3l-11.7,6.2Z" style="fill: none;stroke: #fff;stroke-miterlimit: 10"/>
              <path d="M104.8,73.3h-.2a.2.2,0,0,1,.1-.3l11.8-6.2h.3a.4.4,0,0,1-.1.3l-11.8,6.1Z" style="fill: none;stroke: #fff;stroke-miterlimit: 10"/>
              <path d="M107.7,74.6h-.1c-.1-.1-.1-.2,0-.2l12.1-6.1h.2a.2.2,0,0,1-.1.3l-12,6Z" style="fill: none;stroke: #fff;stroke-miterlimit: 10"/>
            </g>
            <g>
              <path d="M76.7,76.3h-.1L64.5,70.2c-.1,0-.1-.1-.1-.2h.1l12.1-6.1h.2L89,69.9h.1c0,.1,0,.2-.1.2L76.8,76.3ZM65,70l11.7,5.9L88.4,70,76.7,64.2Z" style="fill: none;stroke: #fff;stroke-miterlimit: 10"/>
              <path d="M76.7,81.6h-.1l-12.1-6c-.1-.1-.1-.1-.1-.2s0-.2.1-.2l5.2-2.6h.2l6.8,3.4,6.9-3.4h.1L89,75.1c.1,0,.1.1.1.2s0,.1-.1.2l-12.2,6ZM65,75.3l11.7,5.8,11.7-5.8-4.7-2.4-6.9,3.4h-.2l-6.8-3.4Z" style="fill: none;stroke: #fff;stroke-miterlimit: 10"/>
              <path d="M76.7,86.8h-.1L64.5,80.7c-.1,0-.1-.1-.1-.2v-.2l5.2-2.6h.2l6.8,3.4,6.9-3.4h.1L89,80.3v.2c0,.1,0,.2-.1.2L76.8,86.8ZM65,80.5l11.7,5.9,11.7-5.9-4.7-2.4-6.9,3.4h-.2l-6.8-3.4Z" style="fill: none;stroke: #fff;stroke-miterlimit: 10"/>
              <path d="M67.7,71.7h-.2c0-.1,0-.2.1-.2l11.7-6.3h.3a.4.4,0,0,1-.1.3L67.8,71.7Z" style="fill: none;stroke: #fff;stroke-miterlimit: 10"/>
              <path d="M70.6,73.3h-.1a.2.2,0,0,1,.1-.3l11.8-6.2h.3a.4.4,0,0,1-.1.3L70.7,73.2Z" style="fill: none;stroke: #fff;stroke-miterlimit: 10"/>
              <path d="M73.6,74.6h-.2c0-.1,0-.2.1-.2l12.1-6.1h.2a.2.2,0,0,1-.1.3l-12,6Z" style="fill: none;stroke: #fff;stroke-miterlimit: 10"/>
            </g>
            <g>
              <path d="M41,76.3h-.1L28.8,70.2a.2.2,0,0,1-.2-.2h.2l12.1-6.1h.2l12.1,6.1h.2l-.2.2L41.1,76.3ZM29.3,70,41,75.9,52.7,70,41,64.2Z" style="fill: none;stroke: #fff;stroke-miterlimit: 10"/>
              <path d="M41,81.6h-.1l-12.1-6c-.1-.1-.2-.1-.2-.2a.2.2,0,0,1,.2-.2L34,72.5h.2L41,75.9l6.8-3.4H48l5.2,2.6.2.2c0,.1-.1.1-.2.2l-12.1,6ZM29.3,75.3,41,81.1l11.7-5.8-4.8-2.4-6.8,3.4h-.2l-6.8-3.4Z" style="fill: none;stroke: #fff;stroke-miterlimit: 10"/>
              <path d="M41,86.8h-.1L28.8,80.7a.2.2,0,0,1-.2-.2l.2-.2L34,77.7h.2L41,81.1l6.8-3.4H48l5.2,2.6.2.2-.2.2L41.1,86.8ZM29.3,80.5,41,86.4l11.7-5.9-4.8-2.4-6.8,3.4h-.2l-6.8-3.4Z" style="fill: none;stroke: #fff;stroke-miterlimit: 10"/>
              <path d="M32,71.7c-.1,0-.2,0-.2-.1s0-.2.1-.2l11.7-6.3c.1,0,.2,0,.2.1a.2.2,0,0,1,0,.3L32.1,71.7Z" style="fill: none;stroke: #fff;stroke-miterlimit: 10"/>
              <path d="M34.9,73.3h-.2c0-.1,0-.3.1-.3l11.8-6.2h.3c.1.1,0,.2-.1.3L35,73.2Z" style="fill: none;stroke: #fff;stroke-miterlimit: 10"/>
              <path d="M37.9,74.6h-.2c0-.1,0-.2.1-.2l12-6.1h.3c0,.1,0,.3-.1.3l-12,6Z" style="fill: none;stroke: #fff;stroke-miterlimit: 10"/>
            </g>
          </g>
        </g>
        <g>
          <path d="M0,145.1H7c5.2,0,8.7,3.2,8.7,7.9s-3.5,8-8.7,8H0Zm6.8,13.4c3.6,0,5.9-2.1,5.9-5.5s-2.3-5.4-5.9-5.4H3v10.9Z" style="fill: #fff"/>
          <path d="M18.9,145.1h2.9V161H18.9Z" style="fill: #fff"/>
          <path d="M24.8,159.3l1-2.3a8.5,8.5,0,0,0,5.3,1.8c2.5,0,3.5-.9,3.5-2.1,0-3.4-9.5-1.2-9.5-7.1,0-2.6,2.1-4.8,6.5-4.8a10.2,10.2,0,0,1,5.3,1.4l-.9,2.3a9.8,9.8,0,0,0-4.5-1.2c-2.4,0-3.4,1-3.4,2.2,0,3.4,9.4,1.1,9.4,7,0,2.6-2,4.8-6.4,4.8A9.9,9.9,0,0,1,24.8,159.3Z" style="fill: #fff"/>
          <path d="M52.5,158.5V161h-12V145.1H52.2v2.4H43.5v4.2h7.7v2.4H43.5v4.4Z" style="fill: #fff"/>
          <path d="M70,145.1V161H67.5l-8.8-10.8V161H55.8V145.1h2.4L67,155.9V145.1Zm-9.7-1.5H58.8c0-1.9,1-3,2.4-3s2.3,1.5,3.1,1.5,1.1-.5,1.2-1.3H67c0,1.7-1,3-2.5,3s-2.3-1.6-3.1-1.6S60.4,142.8,60.3,143.6Z" style="fill: #fff"/>
          <path d="M73.1,153c0-4.7,3.7-8.2,8.6-8.2s8.6,3.5,8.6,8.2-3.6,8.3-8.6,8.3A8.2,8.2,0,0,1,73.1,153Zm14.3,0a5.7,5.7,0,1,0-5.7,5.7A5.5,5.5,0,0,0,87.4,153Z" style="fill: #fff"/>
          <path d="M123.1,145.1,117.9,161h-3.2l-3.9-11.8L106.7,161h-3.1l-5.3-15.9h3l4,12.1,4.2-12.1h2.7l4,12.2,4.1-12.2Z" style="fill: #fff"/>
          <path d="M137.6,158.5V161h-12V145.1h11.6v2.4h-8.7v4.2h7.8v2.4h-7.8v4.4Z" style="fill: #fff"/>
          <path d="M155.1,156.7c0,2.7-2.2,4.3-6.3,4.3h-7.9V145.1h7.4c3.9,0,5.9,1.6,5.9,4.1a3.7,3.7,0,0,1-2,3.5A4,4,0,0,1,155.1,156.7Zm-11.3-9.3v4.4H148c2.1,0,3.2-.7,3.2-2.2s-1.1-2.2-3.2-2.2Zm8.3,9c0-1.6-1.2-2.3-3.5-2.3h-4.8v4.6h4.8C150.9,158.7,152.1,158,152.1,156.4Z" style="fill: #fff"/>
        </g>
      </g>
    </g>
  </g>
</svg>
