<svg xmlns="http://www.w3.org/2000/svg" viewBox="0 0 111.9 131.3">
  <title>Recurso 3</title>
  <g id="b3d8d00b-ad45-47d3-b99e-048717b5e726" data-name="Capa 2">
    <g id="e6d94fda-ea5d-4ede-ba9c-caa1cc1c441b" data-name="Capa 1">
      <g>
        <g>
          <path d="M55.6,19A10.7,10.7,0,1,1,44.9,29.7,10.6,10.6,0,0,1,55.6,19Z" style="fill: none;stroke: #fff;stroke-miterlimit: 10"/>
          <polygon points="26.6 124.5 38.1 124.5 73.9 124.5 85.3 124.5 85.3 130.8 26.6 130.8 26.6 124.5" style="fill: none;stroke: #fff;stroke-miterlimit: 10"/>
          <polygon points="68.6 104.5 73.9 124.5 38.1 124.5 43.3 104.5 68.6 104.5" style="fill: none;stroke: #fff;stroke-miterlimit: 10"/>
          <path d="M5.7,91.6H106.2a5.2,5.2,0,0,0,5.2-5.2V98.3a6.1,6.1,0,0,1-6.1,6.2H6.7A6.2,6.2,0,0,1,.5,98.3V86.4A5.2,5.2,0,0,0,5.7,91.6Zm47.9,6.5a2.4,2.4,0,0,0,2.4,2.3,2.4,2.4,0,0,0,0-4.7A2.4,2.4,0,0,0,53.6,98.1Z" style="fill: none;stroke: #fff;stroke-miterlimit: 10"/>
          <path d="M53.5,58.8l-1.2-8.1A20.9,20.9,0,0,1,48,49.6l-5.1,6.3-3.6-2,2.9-7.6c-1.1-1-2.2-2.1-3.2-3.2l-7.6,3-2.1-3.7,6.4-5.1A27,27,0,0,1,34.5,33l-8-1.2V27.6l8-1.2A28.3,28.3,0,0,1,35.7,22l-1-.9-5.4-4.2,2.1-3.6,7.6,3A33.4,33.4,0,0,1,42.2,13L39.3,5.5l3.6-2.1L48,9.7a20.9,20.9,0,0,1,4.3-1.1L53.5.5h4.2L59,8.6a20.9,20.9,0,0,1,4.3,1.1l5.1-6.3L72,5.5,69,13a19.9,19.9,0,0,1,3.2,3.3l7.6-3,2.1,3.6-5.3,4.2-1,.9a20.2,20.2,0,0,1,1.1,4.4l8.1,1.2v4.1L76.7,33a19.4,19.4,0,0,1-1.1,4.3l6.3,5.1L79.8,46l-7.6-2.9A24.2,24.2,0,0,1,69,46.3l3,7.6-3.6,2-5.1-6.3A20.9,20.9,0,0,1,59,50.7l-1.3,8.1ZM44.9,29.7A10.7,10.7,0,1,0,55.6,19,10.7,10.7,0,0,0,44.9,29.7Z" style="fill: none;stroke: #fff;stroke-miterlimit: 10"/>
          <path d="M52.3,50.7l1.2,8.1h4.2L59,50.7a20.9,20.9,0,0,0,4.3-1.1l5.1,6.3,3.6-2-3-7.6a24.2,24.2,0,0,0,3.2-3.2L79.8,46l2.1-3.6-6.3-5.1A19.4,19.4,0,0,0,76.7,33l8.1-1.3V27.6l-8.1-1.2A20.2,20.2,0,0,0,75.6,22l1-.9h28.7a6.1,6.1,0,0,1,6.1,6.2V86.4a5.2,5.2,0,0,1-5.2,5.2H5.7A5.2,5.2,0,0,1,.5,86.4V27.3a6.2,6.2,0,0,1,6.2-6.2h28l1,.9a28.3,28.3,0,0,0-1.2,4.4l-8,1.2v4.2l8,1.2a27,27,0,0,0,1.2,4.3l-6.4,5.1,2.1,3.7,7.6-3c1,1.1,2.1,2.2,3.2,3.2l-2.9,7.6,3.6,2L48,49.6A20.9,20.9,0,0,0,52.3,50.7Z" style="fill: none;stroke: #fff;stroke-miterlimit: 10"/>
        </g>
        <g>
          <path d="M43.3,104.5H6.7A6.2,6.2,0,0,1,.5,98.3v-71a6.2,6.2,0,0,1,6.2-6.2h28" style="fill: none;stroke: #fff;stroke-miterlimit: 10"/>
          <path d="M76.6,21.1h28.7a6.1,6.1,0,0,1,6.1,6.2v71a6.1,6.1,0,0,1-6.1,6.2H68.6" style="fill: none;stroke: #fff;stroke-miterlimit: 10"/>
          <path d="M111.4,86.4a5.2,5.2,0,0,1-5.2,5.2H5.7A5.2,5.2,0,0,1,.5,86.4" style="fill: none;stroke: #fff;stroke-miterlimit: 10"/>
          <polyline points="38.1 124.5 43.3 104.5 68.6 104.5 73.9 124.5" style="fill: none;stroke: #fff;stroke-miterlimit: 10"/>
          <path d="M56,95.7a2.4,2.4,0,0,1,0,4.7,2.4,2.4,0,1,1,0-4.7Z" style="fill: none;stroke: #fff;stroke-miterlimit: 10"/>
          <polygon points="73.9 124.5 85.3 124.5 85.3 130.8 26.6 130.8 26.6 124.5 38.1 124.5 73.9 124.5" style="fill: none;stroke: #fff;stroke-miterlimit: 10"/>
        </g>
        <g>
          <g>
            <path d="M89.6,76.3h-.1L77.3,70.2c-.1,0-.1-.1-.1-.2h.1l12.2-6.1h.2l12.1,6.1h.1c0,.1,0,.2-.1.2L89.7,76.3ZM77.9,70l11.7,5.9L101.3,70,89.6,64.2Z" style="fill: none;stroke: #fff;stroke-miterlimit: 10"/>
            <path d="M89.6,81.6h-.1l-12.2-6c-.1-.1-.1-.1-.1-.2s0-.2.1-.2l5.3-2.6h.1l6.9,3.4,6.8-3.4h.2l5.2,2.6c.1,0,.1.1.1.2s0,.1-.1.2l-12.1,6ZM77.9,75.3l11.7,5.8,11.7-5.8-4.8-2.4-6.8,3.4h-.2l-6.9-3.4Z" style="fill: none;stroke: #fff;stroke-miterlimit: 10"/>
            <path d="M89.6,86.8h-.1L77.3,80.7c-.1,0-.1-.1-.1-.2v-.2l5.3-2.6h.1l6.9,3.4,6.8-3.4h.2l5.2,2.6v.2c0,.1,0,.2-.1.2L89.7,86.8ZM77.9,80.5l11.7,5.9,11.7-5.9-4.8-2.4-6.8,3.4h-.2l-6.9-3.4Z" style="fill: none;stroke: #fff;stroke-miterlimit: 10"/>
            <path d="M80.5,71.7a.1.1,0,0,1-.1-.1c-.1-.1-.1-.2,0-.2l11.7-6.3h.3c.1.1,0,.2-.1.3L80.6,71.7Z" style="fill: none;stroke: #fff;stroke-miterlimit: 10"/>
            <path d="M83.5,73.3h-.2a.2.2,0,0,1,.1-.3l11.8-6.2h.3a.4.4,0,0,1-.1.3L83.6,73.2Z" style="fill: none;stroke: #fff;stroke-miterlimit: 10"/>
            <path d="M86.5,74.6h-.2c-.1-.1,0-.2.1-.2l12-6.1h.2c.1.1.1.3,0,.3l-12.1,6Z" style="fill: none;stroke: #fff;stroke-miterlimit: 10"/>
          </g>
          <g>
            <path d="M55.5,76.3h-.1L43.2,70.2c-.1,0-.1-.1-.1-.2h.1l12.2-6.1h.1l12.2,6.1h.1c0,.1,0,.2-.1.2L55.5,76.3ZM43.7,70l11.8,5.9L67.2,70,55.5,64.2Z" style="fill: none;stroke: #fff;stroke-miterlimit: 10"/>
            <path d="M55.5,81.6h-.1l-12.2-6c-.1-.1-.1-.1-.1-.2s0-.2.1-.2l5.2-2.6h.2l6.9,3.4,6.8-3.4h.2l5.2,2.6c.1,0,.1.1.1.2s0,.1-.1.2l-12.2,6ZM43.7,75.3l11.8,5.8,11.7-5.8-4.8-2.4-6.9,3.4h-.1l-6.9-3.4Z" style="fill: none;stroke: #fff;stroke-miterlimit: 10"/>
            <path d="M55.5,86.8h-.1L43.2,80.7c-.1,0-.1-.1-.1-.2v-.2l5.2-2.6h.2l6.9,3.4,6.8-3.4h.2l5.2,2.6v.2c0,.1,0,.2-.1.2L55.5,86.8ZM43.7,80.5l11.8,5.9,11.7-5.9-4.8-2.4-6.9,3.4h-.1l-6.9-3.4Z" style="fill: none;stroke: #fff;stroke-miterlimit: 10"/>
            <path d="M46.4,71.7h-.2c0-.1,0-.2.1-.2L58,65.1h.3a.4.4,0,0,1-.1.3L46.5,71.7Z" style="fill: none;stroke: #fff;stroke-miterlimit: 10"/>
            <path d="M49.4,73.3h-.2a.2.2,0,0,1,.1-.3l11.8-6.2h.3a.4.4,0,0,1-.1.3L49.5,73.2Z" style="fill: none;stroke: #fff;stroke-miterlimit: 10"/>
            <path d="M52.3,74.6h-.1c-.1-.1-.1-.2,0-.2l12.1-6.1h.2a.2.2,0,0,1-.1.3l-12,6Z" style="fill: none;stroke: #fff;stroke-miterlimit: 10"/>
          </g>
          <g>
            <path d="M19.7,76.3h-.1L7.5,70.2c-.1,0-.1-.1-.1-.2h.1l12.1-6.1h.2L32,69.9h.1v.2L19.8,76.3ZM8,70l11.7,5.9L31.4,70,19.7,64.2Z" style="fill: none;stroke: #fff;stroke-miterlimit: 10"/>
            <path d="M19.7,81.6h-.1l-12.1-6c-.1-.1-.1-.1-.1-.2s0-.2.1-.2l5.2-2.6h.2l6.8,3.4,6.8-3.4h.2L32,75.1v.2c0,.1-.1.1-.1.2l-12.2,6ZM8,75.3l11.7,5.8,11.7-5.8-4.8-2.4-6.8,3.4h-.2l-6.8-3.4Z" style="fill: none;stroke: #fff;stroke-miterlimit: 10"/>
            <path d="M19.7,86.8h-.1L7.5,80.7c-.1,0-.1-.1-.1-.2v-.2l5.2-2.6h.2l6.8,3.4,6.8-3.4h.2L32,80.3c0,.1.1.1.1.2v.2L19.8,86.8ZM8,80.5l11.7,5.9,11.7-5.9-4.8-2.4-6.8,3.4h-.2l-6.8-3.4Z" style="fill: none;stroke: #fff;stroke-miterlimit: 10"/>
            <path d="M10.7,71.7c-.1,0-.2,0-.2-.1s0-.2.1-.2l11.7-6.3c.1,0,.2,0,.2.1a.2.2,0,0,1,0,.3L10.8,71.7Z" style="fill: none;stroke: #fff;stroke-miterlimit: 10"/>
            <path d="M13.6,73.3h-.2c0-.1,0-.3.1-.3l11.9-6.2h.2c.1.1,0,.2-.1.3L13.7,73.2Z" style="fill: none;stroke: #fff;stroke-miterlimit: 10"/>
            <path d="M16.6,74.6h-.2c0-.1,0-.2.1-.2l12-6.1h.3a.2.2,0,0,1-.1.3l-12,6Z" style="fill: none;stroke: #fff;stroke-miterlimit: 10"/>
          </g>
        </g>
      </g>
    </g>
  </g>
</svg>
